%TF.GenerationSoftware,KiCad,Pcbnew,5.1.5-1.fc31*%
%TF.CreationDate,2020-04-07T08:28:03+02:00*%
%TF.ProjectId,zasilacz,7a617369-6c61-4637-9a2e-6b696361645f,1.0*%
%TF.SameCoordinates,Original*%
%TF.FileFunction,Other,User*%
%FSLAX46Y46*%
G04 Gerber Fmt 4.6, Leading zero omitted, Abs format (unit mm)*
G04 Created by KiCad (PCBNEW 5.1.5-1.fc31) date 2020-04-07 08:28:03*
%MOMM*%
%LPD*%
G04 APERTURE LIST*
%ADD10C,0.050000*%
%ADD11C,0.120000*%
G04 APERTURE END LIST*
D10*
%TO.C,M1*%
X112940000Y-66040000D02*
G75*
G03X112940000Y-66040000I-2450000J0D01*
G01*
%TO.C,M4*%
X157263000Y-66040000D02*
G75*
G03X157263000Y-66040000I-2450000J0D01*
G01*
%TO.C,M3*%
X157263000Y-110490000D02*
G75*
G03X157263000Y-110490000I-2450000J0D01*
G01*
%TO.C,M2*%
X112940000Y-110490000D02*
G75*
G03X112940000Y-110490000I-2450000J0D01*
G01*
%TO.C,C1*%
X153840000Y-74970000D02*
G75*
G03X153840000Y-74970000I-5250000J0D01*
G01*
%TO.C,C2*%
X123360000Y-76200000D02*
G75*
G03X123360000Y-76200000I-4000000J0D01*
G01*
%TO.C,C3*%
X130780000Y-73200000D02*
X130780000Y-79200000D01*
X130780000Y-79200000D02*
X135880000Y-79200000D01*
X135880000Y-79200000D02*
X135880000Y-73200000D01*
X135880000Y-73200000D02*
X130780000Y-73200000D01*
%TO.C,D1*%
X141410000Y-111470000D02*
X117710000Y-111470000D01*
X141410000Y-111470000D02*
X141410000Y-103770000D01*
X117710000Y-103770000D02*
X117710000Y-111470000D01*
X117710000Y-103770000D02*
X141410000Y-103770000D01*
D11*
%TO.C,D2*%
X115570000Y-69850000D02*
X115570000Y-64770000D01*
X115570000Y-64770000D02*
X125730000Y-64770000D01*
X125730000Y-64770000D02*
X125730000Y-69850000D01*
X125730000Y-69850000D02*
X115570000Y-69850000D01*
%TO.C,J1*%
X149860000Y-96520000D02*
X154940000Y-96520000D01*
X149860000Y-106680000D02*
X149860000Y-96520000D01*
X154940000Y-106680000D02*
X149860000Y-106680000D01*
X154940000Y-96520000D02*
X154940000Y-106680000D01*
%TO.C,J2*%
X127000000Y-64770000D02*
X137160000Y-64770000D01*
X137160000Y-64770000D02*
X137160000Y-69850000D01*
X137160000Y-69850000D02*
X127000000Y-69850000D01*
X127000000Y-69850000D02*
X127000000Y-64770000D01*
%TO.C,J3*%
X140970000Y-86360000D02*
X130810000Y-86360000D01*
X130810000Y-86360000D02*
X130810000Y-81280000D01*
X130810000Y-81280000D02*
X140970000Y-81280000D01*
X140970000Y-81280000D02*
X140970000Y-86360000D01*
D10*
%TO.C,R1*%
X117930000Y-89230000D02*
X117930000Y-98730000D01*
X117930000Y-98730000D02*
X148770000Y-98730000D01*
X148770000Y-98730000D02*
X148770000Y-89230000D01*
X148770000Y-89230000D02*
X117930000Y-89230000D01*
%TO.C,U1*%
X109630000Y-92880000D02*
X114540000Y-92880000D01*
X114540000Y-92880000D02*
X114540000Y-82380000D01*
X114540000Y-82380000D02*
X109630000Y-82380000D01*
X109630000Y-82380000D02*
X109630000Y-92880000D01*
%TD*%
M02*
