%TF.GenerationSoftware,KiCad,Pcbnew,5.1.5-1.fc31*%
%TF.CreationDate,2020-04-07T08:28:03+02:00*%
%TF.ProjectId,zasilacz,7a617369-6c61-4637-9a2e-6b696361645f,1.0*%
%TF.SameCoordinates,Original*%
%TF.FileFunction,Copper,L2,Bot*%
%TF.FilePolarity,Positive*%
%FSLAX46Y46*%
G04 Gerber Fmt 4.6, Leading zero omitted, Abs format (unit mm)*
G04 Created by KiCad (PCBNEW 5.1.5-1.fc31) date 2020-04-07 08:28:03*
%MOMM*%
%LPD*%
G04 APERTURE LIST*
%TA.AperFunction,ComponentPad*%
%ADD10R,2.000000X2.000000*%
%TD*%
%TA.AperFunction,ComponentPad*%
%ADD11C,2.000000*%
%TD*%
%TA.AperFunction,ComponentPad*%
%ADD12R,1.600000X1.600000*%
%TD*%
%TA.AperFunction,ComponentPad*%
%ADD13C,1.600000*%
%TD*%
%TA.AperFunction,ComponentPad*%
%ADD14C,1.400000*%
%TD*%
%TA.AperFunction,ComponentPad*%
%ADD15C,2.800000*%
%TD*%
%TA.AperFunction,ComponentPad*%
%ADD16R,2.800000X2.800000*%
%TD*%
%TA.AperFunction,ComponentPad*%
%ADD17R,1.524000X1.524000*%
%TD*%
%TA.AperFunction,ComponentPad*%
%ADD18C,1.524000*%
%TD*%
%TA.AperFunction,ComponentPad*%
%ADD19C,1.824000*%
%TD*%
%TA.AperFunction,ComponentPad*%
%ADD20R,1.824000X1.824000*%
%TD*%
%TA.AperFunction,ComponentPad*%
%ADD21C,2.400000*%
%TD*%
%TA.AperFunction,ComponentPad*%
%ADD22O,2.400000X2.400000*%
%TD*%
%TA.AperFunction,ComponentPad*%
%ADD23R,2.000000X1.905000*%
%TD*%
%TA.AperFunction,ComponentPad*%
%ADD24O,2.000000X1.905000*%
%TD*%
%TA.AperFunction,Conductor*%
%ADD25C,1.500000*%
%TD*%
%TA.AperFunction,Conductor*%
%ADD26C,0.254000*%
%TD*%
G04 APERTURE END LIST*
D10*
%TO.P,C1,1*%
%TO.N,Net-(C1-Pad1)*%
X148590000Y-77470000D03*
D11*
%TO.P,C1,2*%
%TO.N,GND*%
X148590000Y-72470000D03*
%TD*%
D12*
%TO.P,C2,1*%
%TO.N,Net-(C2-Pad1)*%
X118110000Y-76200000D03*
D13*
%TO.P,C2,2*%
%TO.N,GND*%
X120610000Y-76200000D03*
%TD*%
D14*
%TO.P,C3,1*%
%TO.N,Net-(C2-Pad1)*%
X132080000Y-76200000D03*
%TO.P,C3,2*%
%TO.N,GND*%
X134580000Y-76200000D03*
%TD*%
D15*
%TO.P,D1,4*%
%TO.N,GND*%
X121920000Y-109220000D03*
%TO.P,D1,3*%
%TO.N,Net-(D1-Pad3)*%
X127000000Y-109220000D03*
%TO.P,D1,2*%
%TO.N,Net-(D1-Pad2)*%
X132080000Y-109220000D03*
D16*
%TO.P,D1,1*%
%TO.N,Net-(C1-Pad1)*%
X137160000Y-109220000D03*
%TD*%
D17*
%TO.P,D2,1*%
%TO.N,Net-(C2-Pad1)*%
X118110000Y-67310000D03*
D18*
%TO.P,D2,2*%
%TO.N,GND*%
X123190000Y-67310000D03*
%TD*%
D19*
%TO.P,J1,2*%
%TO.N,Net-(D1-Pad2)*%
X152400000Y-104140000D03*
D20*
%TO.P,J1,1*%
%TO.N,Net-(D1-Pad3)*%
X152400000Y-99060000D03*
%TD*%
%TO.P,J2,1*%
%TO.N,Net-(C2-Pad1)*%
X129540000Y-67310000D03*
D19*
%TO.P,J2,2*%
%TO.N,GND*%
X134620000Y-67310000D03*
%TD*%
D20*
%TO.P,J3,1*%
%TO.N,Net-(C1-Pad1)*%
X138430000Y-83820000D03*
D19*
%TO.P,J3,2*%
%TO.N,Net-(J3-Pad2)*%
X133350000Y-83820000D03*
%TD*%
D21*
%TO.P,R1,1*%
%TO.N,Net-(J3-Pad2)*%
X119380000Y-93980000D03*
D22*
%TO.P,R1,2*%
%TO.N,Net-(C1-Pad1)*%
X147320000Y-93980000D03*
%TD*%
D23*
%TO.P,U1,1*%
%TO.N,Net-(J3-Pad2)*%
X113030000Y-90170000D03*
D24*
%TO.P,U1,2*%
%TO.N,GND*%
X113030000Y-87630000D03*
%TO.P,U1,3*%
%TO.N,Net-(C2-Pad1)*%
X113030000Y-85090000D03*
%TD*%
D25*
%TO.N,Net-(C1-Pad1)*%
X137160000Y-109220000D02*
X150254900Y-109220000D01*
X150254900Y-109220000D02*
X154462400Y-105012500D01*
X154462400Y-105012500D02*
X154462400Y-97642100D01*
X154462400Y-97642100D02*
X150800300Y-93980000D01*
X150800300Y-93980000D02*
X147320000Y-93980000D01*
X148590000Y-77470000D02*
X146090000Y-77470000D01*
X140842000Y-83820000D02*
X146090000Y-78572000D01*
X146090000Y-78572000D02*
X146090000Y-77470000D01*
X139636000Y-83820000D02*
X140842000Y-83820000D01*
X138430000Y-83820000D02*
X139636000Y-83820000D01*
X147320000Y-93980000D02*
X147320000Y-91280000D01*
X147320000Y-91280000D02*
X140842000Y-84802000D01*
X140842000Y-84802000D02*
X140842000Y-83820000D01*
%TO.N,GND*%
X120610000Y-76200000D02*
X123190000Y-73620000D01*
X123190000Y-73620000D02*
X123190000Y-67310000D01*
X120610000Y-78125900D02*
X120610000Y-76200000D01*
X138310000Y-72470000D02*
X148590000Y-72470000D01*
X134580000Y-76200000D02*
X138310000Y-72470000D01*
X138310000Y-72470000D02*
X134620000Y-68780000D01*
X134620000Y-68780000D02*
X134620000Y-67310000D01*
X115530000Y-87630000D02*
X120610000Y-82550000D01*
X120610000Y-82550000D02*
X120610000Y-78125900D01*
X120610000Y-78125900D02*
X132888800Y-78125900D01*
X132888800Y-78125900D02*
X134580000Y-76434700D01*
X134580000Y-76434700D02*
X134580000Y-76200000D01*
X113030000Y-87630000D02*
X110530000Y-87630000D01*
X121920000Y-109220000D02*
X110530000Y-97830000D01*
X110530000Y-97830000D02*
X110530000Y-87630000D01*
X113030000Y-87630000D02*
X115530000Y-87630000D01*
%TO.N,Net-(C2-Pad1)*%
X118110000Y-76200000D02*
X118110000Y-78500000D01*
X113030000Y-85090000D02*
X113030000Y-82637500D01*
X113030000Y-82637500D02*
X117167500Y-78500000D01*
X117167500Y-78500000D02*
X118110000Y-78500000D01*
X129540000Y-67310000D02*
X127128000Y-67310000D01*
X118110000Y-67310000D02*
X120372000Y-67310000D01*
X120372000Y-67310000D02*
X122295700Y-65386300D01*
X122295700Y-65386300D02*
X125204300Y-65386300D01*
X125204300Y-65386300D02*
X127128000Y-67310000D01*
X118110000Y-76200000D02*
X118110000Y-67310000D01*
X129540000Y-67310000D02*
X129540000Y-69722000D01*
X129540000Y-69722000D02*
X132080000Y-72262000D01*
X132080000Y-72262000D02*
X132080000Y-76200000D01*
%TO.N,Net-(D1-Pad3)*%
X152400000Y-99060000D02*
X137160000Y-99060000D01*
X137160000Y-99060000D02*
X127000000Y-109220000D01*
%TO.N,Net-(D1-Pad2)*%
X152400000Y-104140000D02*
X137160000Y-104140000D01*
X137160000Y-104140000D02*
X132080000Y-109220000D01*
%TO.N,Net-(J3-Pad2)*%
X119380000Y-92075000D02*
X125095000Y-92075000D01*
X125095000Y-92075000D02*
X133350000Y-83820000D01*
X113030000Y-90170000D02*
X117475000Y-90170000D01*
X117475000Y-90170000D02*
X119380000Y-92075000D01*
X119380000Y-92075000D02*
X119380000Y-93980000D01*
%TD*%
D26*
%TO.N,GND*%
G36*
X121311619Y-64402219D02*
G01*
X121268250Y-64455064D01*
X119798315Y-65925000D01*
X119005752Y-65925000D01*
X118996482Y-65922188D01*
X118872000Y-65909928D01*
X117348000Y-65909928D01*
X117223518Y-65922188D01*
X117103820Y-65958498D01*
X116993506Y-66017463D01*
X116896815Y-66096815D01*
X116817463Y-66193506D01*
X116758498Y-66303820D01*
X116722188Y-66423518D01*
X116709928Y-66548000D01*
X116709928Y-68072000D01*
X116722188Y-68196482D01*
X116725001Y-68205755D01*
X116725000Y-75147397D01*
X116720498Y-75155820D01*
X116684188Y-75275518D01*
X116671928Y-75400000D01*
X116671928Y-77000000D01*
X116684188Y-77124482D01*
X116704969Y-77192987D01*
X116634919Y-77214236D01*
X116394312Y-77342843D01*
X116236266Y-77472548D01*
X116236264Y-77472550D01*
X116183419Y-77515919D01*
X116140050Y-77568764D01*
X112098764Y-81610051D01*
X112045920Y-81653419D01*
X112002551Y-81706264D01*
X112002548Y-81706267D01*
X111872844Y-81864312D01*
X111744236Y-82104920D01*
X111665040Y-82365993D01*
X111638300Y-82637500D01*
X111645001Y-82705539D01*
X111645000Y-84224634D01*
X111508745Y-84479551D01*
X111417970Y-84778796D01*
X111387319Y-85090000D01*
X111417970Y-85401204D01*
X111508745Y-85700449D01*
X111656155Y-85976235D01*
X111854537Y-86217963D01*
X112033899Y-86365163D01*
X111848685Y-86520563D01*
X111654031Y-86763077D01*
X111510429Y-87038906D01*
X111439437Y-87257020D01*
X111559406Y-87503000D01*
X112903000Y-87503000D01*
X112903000Y-87483000D01*
X113157000Y-87483000D01*
X113157000Y-87503000D01*
X114500594Y-87503000D01*
X114620563Y-87257020D01*
X114549571Y-87038906D01*
X114405969Y-86763077D01*
X114211315Y-86520563D01*
X114026101Y-86365163D01*
X114205463Y-86217963D01*
X114403845Y-85976235D01*
X114551255Y-85700449D01*
X114642030Y-85401204D01*
X114672681Y-85090000D01*
X114642030Y-84778796D01*
X114551255Y-84479551D01*
X114415000Y-84224635D01*
X114415000Y-83211185D01*
X117741186Y-79885000D01*
X118041964Y-79885000D01*
X118110000Y-79891701D01*
X118381507Y-79864960D01*
X118642581Y-79785764D01*
X118883188Y-79657157D01*
X119094081Y-79484081D01*
X119267157Y-79273188D01*
X119395764Y-79032581D01*
X119474960Y-78771507D01*
X119495000Y-78568037D01*
X119501701Y-78500000D01*
X119495000Y-78431963D01*
X119495000Y-77252603D01*
X119499502Y-77244180D01*
X119515117Y-77192702D01*
X119796903Y-77192702D01*
X119868486Y-77436671D01*
X120123996Y-77557571D01*
X120398184Y-77626300D01*
X120680512Y-77640217D01*
X120960130Y-77598787D01*
X121226292Y-77503603D01*
X121351514Y-77436671D01*
X121423097Y-77192702D01*
X120610000Y-76379605D01*
X119796903Y-77192702D01*
X119515117Y-77192702D01*
X119535812Y-77124482D01*
X119548072Y-77000000D01*
X119548072Y-76992785D01*
X119617298Y-77013097D01*
X120430395Y-76200000D01*
X120789605Y-76200000D01*
X121602702Y-77013097D01*
X121846671Y-76941514D01*
X121967571Y-76686004D01*
X122036300Y-76411816D01*
X122050217Y-76129488D01*
X122008787Y-75849870D01*
X121913603Y-75583708D01*
X121846671Y-75458486D01*
X121602702Y-75386903D01*
X120789605Y-76200000D01*
X120430395Y-76200000D01*
X119617298Y-75386903D01*
X119548072Y-75407215D01*
X119548072Y-75400000D01*
X119535812Y-75275518D01*
X119515118Y-75207298D01*
X119796903Y-75207298D01*
X120610000Y-76020395D01*
X121423097Y-75207298D01*
X121351514Y-74963329D01*
X121096004Y-74842429D01*
X120821816Y-74773700D01*
X120539488Y-74759783D01*
X120259870Y-74801213D01*
X119993708Y-74896397D01*
X119868486Y-74963329D01*
X119796903Y-75207298D01*
X119515118Y-75207298D01*
X119499502Y-75155820D01*
X119495000Y-75147397D01*
X119495000Y-68695000D01*
X120303971Y-68695000D01*
X120372000Y-68701700D01*
X120440029Y-68695000D01*
X120440037Y-68695000D01*
X120643507Y-68674960D01*
X120904581Y-68595764D01*
X121145188Y-68467157D01*
X121356081Y-68294081D01*
X121371276Y-68275565D01*
X122404040Y-68275565D01*
X122471020Y-68515656D01*
X122720048Y-68632756D01*
X122987135Y-68699023D01*
X123262017Y-68711910D01*
X123534133Y-68670922D01*
X123793023Y-68577636D01*
X123908980Y-68515656D01*
X123975960Y-68275565D01*
X123190000Y-67489605D01*
X122404040Y-68275565D01*
X121371276Y-68275565D01*
X121399454Y-68241231D01*
X121870791Y-67769895D01*
X121922364Y-67913023D01*
X121984344Y-68028980D01*
X122224435Y-68095960D01*
X123010395Y-67310000D01*
X122996253Y-67295858D01*
X123175858Y-67116253D01*
X123190000Y-67130395D01*
X123204143Y-67116253D01*
X123383748Y-67295858D01*
X123369605Y-67310000D01*
X124155565Y-68095960D01*
X124395656Y-68028980D01*
X124512756Y-67779952D01*
X124579023Y-67512865D01*
X124591910Y-67237983D01*
X124550922Y-66965867D01*
X124480814Y-66771300D01*
X124630615Y-66771300D01*
X126100550Y-68241236D01*
X126143919Y-68294081D01*
X126196764Y-68337450D01*
X126196766Y-68337452D01*
X126305264Y-68426494D01*
X126354812Y-68467157D01*
X126595419Y-68595764D01*
X126856493Y-68674960D01*
X127059963Y-68695000D01*
X127059971Y-68695000D01*
X127128000Y-68701700D01*
X127196029Y-68695000D01*
X128155001Y-68695000D01*
X128155001Y-69653961D01*
X128148300Y-69722000D01*
X128175040Y-69993507D01*
X128254236Y-70254580D01*
X128382844Y-70495188D01*
X128512548Y-70653233D01*
X128512551Y-70653236D01*
X128555920Y-70706081D01*
X128608765Y-70749450D01*
X130695000Y-72835685D01*
X130695001Y-76268037D01*
X130715041Y-76471507D01*
X130794237Y-76732581D01*
X130922844Y-76973188D01*
X131095920Y-77184081D01*
X131306813Y-77357157D01*
X131547420Y-77485764D01*
X131808494Y-77564960D01*
X132080000Y-77591701D01*
X132351507Y-77564960D01*
X132612581Y-77485764D01*
X132853188Y-77357157D01*
X133064081Y-77184081D01*
X133115629Y-77121269D01*
X133838336Y-77121269D01*
X133897797Y-77355037D01*
X134136242Y-77465934D01*
X134391740Y-77528183D01*
X134654473Y-77539390D01*
X134914344Y-77499125D01*
X135161366Y-77408935D01*
X135262203Y-77355037D01*
X135321664Y-77121269D01*
X134580000Y-76379605D01*
X133838336Y-77121269D01*
X133115629Y-77121269D01*
X133237157Y-76973188D01*
X133358331Y-76746488D01*
X133371065Y-76781366D01*
X133424963Y-76882203D01*
X133658731Y-76941664D01*
X134400395Y-76200000D01*
X134759605Y-76200000D01*
X135501269Y-76941664D01*
X135735037Y-76882203D01*
X135845934Y-76643758D01*
X135908183Y-76388260D01*
X135919390Y-76125527D01*
X135879125Y-75865656D01*
X135788935Y-75618634D01*
X135735037Y-75517797D01*
X135501269Y-75458336D01*
X134759605Y-76200000D01*
X134400395Y-76200000D01*
X133658731Y-75458336D01*
X133465000Y-75507613D01*
X133465000Y-75278731D01*
X133838336Y-75278731D01*
X134580000Y-76020395D01*
X135321664Y-75278731D01*
X135262203Y-75044963D01*
X135023758Y-74934066D01*
X134768260Y-74871817D01*
X134505527Y-74860610D01*
X134245656Y-74900875D01*
X133998634Y-74991065D01*
X133897797Y-75044963D01*
X133838336Y-75278731D01*
X133465000Y-75278731D01*
X133465000Y-73605413D01*
X147634192Y-73605413D01*
X147729956Y-73869814D01*
X148019571Y-74010704D01*
X148331108Y-74092384D01*
X148652595Y-74111718D01*
X148971675Y-74067961D01*
X149276088Y-73962795D01*
X149450044Y-73869814D01*
X149545808Y-73605413D01*
X148590000Y-72649605D01*
X147634192Y-73605413D01*
X133465000Y-73605413D01*
X133465000Y-72532595D01*
X146948282Y-72532595D01*
X146992039Y-72851675D01*
X147097205Y-73156088D01*
X147190186Y-73330044D01*
X147454587Y-73425808D01*
X148410395Y-72470000D01*
X148769605Y-72470000D01*
X149725413Y-73425808D01*
X149989814Y-73330044D01*
X150130704Y-73040429D01*
X150212384Y-72728892D01*
X150231718Y-72407405D01*
X150187961Y-72088325D01*
X150082795Y-71783912D01*
X149989814Y-71609956D01*
X149725413Y-71514192D01*
X148769605Y-72470000D01*
X148410395Y-72470000D01*
X147454587Y-71514192D01*
X147190186Y-71609956D01*
X147049296Y-71899571D01*
X146967616Y-72211108D01*
X146948282Y-72532595D01*
X133465000Y-72532595D01*
X133465000Y-72330026D01*
X133471700Y-72261999D01*
X133465000Y-72193972D01*
X133465000Y-72193963D01*
X133444960Y-71990493D01*
X133365764Y-71729419D01*
X133237157Y-71488812D01*
X133110587Y-71334587D01*
X147634192Y-71334587D01*
X148590000Y-72290395D01*
X149545808Y-71334587D01*
X149450044Y-71070186D01*
X149160429Y-70929296D01*
X148848892Y-70847616D01*
X148527405Y-70828282D01*
X148208325Y-70872039D01*
X147903912Y-70977205D01*
X147729956Y-71070186D01*
X147634192Y-71334587D01*
X133110587Y-71334587D01*
X133064080Y-71277919D01*
X133011235Y-71234550D01*
X130925000Y-69148315D01*
X130925000Y-68646603D01*
X130982537Y-68576494D01*
X131041502Y-68466180D01*
X131066842Y-68382642D01*
X133726963Y-68382642D01*
X133812096Y-68638049D01*
X134086709Y-68770145D01*
X134381817Y-68846129D01*
X134686077Y-68863080D01*
X134987798Y-68820347D01*
X135275385Y-68719572D01*
X135427904Y-68638049D01*
X135513037Y-68382642D01*
X134620000Y-67489605D01*
X133726963Y-68382642D01*
X131066842Y-68382642D01*
X131077812Y-68346482D01*
X131090072Y-68222000D01*
X131090072Y-67376077D01*
X133066920Y-67376077D01*
X133109653Y-67677798D01*
X133210428Y-67965385D01*
X133291951Y-68117904D01*
X133547358Y-68203037D01*
X134440395Y-67310000D01*
X134799605Y-67310000D01*
X135692642Y-68203037D01*
X135948049Y-68117904D01*
X136080145Y-67843291D01*
X136156129Y-67548183D01*
X136173080Y-67243923D01*
X136130347Y-66942202D01*
X136029572Y-66654615D01*
X135948049Y-66502096D01*
X135692642Y-66416963D01*
X134799605Y-67310000D01*
X134440395Y-67310000D01*
X133547358Y-66416963D01*
X133291951Y-66502096D01*
X133159855Y-66776709D01*
X133083871Y-67071817D01*
X133066920Y-67376077D01*
X131090072Y-67376077D01*
X131090072Y-66398000D01*
X131077812Y-66273518D01*
X131066843Y-66237358D01*
X133726963Y-66237358D01*
X134620000Y-67130395D01*
X135513037Y-66237358D01*
X135427904Y-65981951D01*
X135153291Y-65849855D01*
X134858183Y-65773871D01*
X134553923Y-65756920D01*
X134252202Y-65799653D01*
X133964615Y-65900428D01*
X133812096Y-65981951D01*
X133726963Y-66237358D01*
X131066843Y-66237358D01*
X131041502Y-66153820D01*
X130982537Y-66043506D01*
X130903185Y-65946815D01*
X130806494Y-65867463D01*
X130696180Y-65808498D01*
X130576482Y-65772188D01*
X130452000Y-65759928D01*
X128628000Y-65759928D01*
X128503518Y-65772188D01*
X128383820Y-65808498D01*
X128273506Y-65867463D01*
X128203397Y-65925000D01*
X127701686Y-65925000D01*
X126231754Y-64455069D01*
X126188381Y-64402219D01*
X126155337Y-64375100D01*
X154175494Y-64375100D01*
X154211566Y-64411172D01*
X153991169Y-64502463D01*
X153707002Y-64692337D01*
X153465337Y-64934002D01*
X153275463Y-65218169D01*
X153144675Y-65533919D01*
X153078000Y-65869117D01*
X153078000Y-66210883D01*
X153144675Y-66546081D01*
X153275463Y-66861831D01*
X153465337Y-67145998D01*
X153707002Y-67387663D01*
X153991169Y-67577537D01*
X154306919Y-67708325D01*
X154642117Y-67775000D01*
X154983883Y-67775000D01*
X155319081Y-67708325D01*
X155634831Y-67577537D01*
X155918998Y-67387663D01*
X156160663Y-67145998D01*
X156350537Y-66861831D01*
X156441828Y-66641434D01*
X156604901Y-66804507D01*
X156604900Y-109725494D01*
X156441828Y-109888566D01*
X156350537Y-109668169D01*
X156160663Y-109384002D01*
X155918998Y-109142337D01*
X155634831Y-108952463D01*
X155319081Y-108821675D01*
X154983883Y-108755000D01*
X154642117Y-108755000D01*
X154306919Y-108821675D01*
X153991169Y-108952463D01*
X153707002Y-109142337D01*
X153465337Y-109384002D01*
X153275463Y-109668169D01*
X153144675Y-109983919D01*
X153078000Y-110319117D01*
X153078000Y-110660883D01*
X153144675Y-110996081D01*
X153275463Y-111311831D01*
X153465337Y-111595998D01*
X153707002Y-111837663D01*
X153991169Y-112027537D01*
X154211566Y-112118828D01*
X154010394Y-112320000D01*
X111419606Y-112320000D01*
X111181237Y-112081631D01*
X111311831Y-112027537D01*
X111595998Y-111837663D01*
X111837663Y-111595998D01*
X112027537Y-111311831D01*
X112158325Y-110996081D01*
X112225000Y-110660883D01*
X112225000Y-110640447D01*
X120679158Y-110640447D01*
X120823135Y-110945770D01*
X121180892Y-111126597D01*
X121567053Y-111234155D01*
X121966777Y-111264310D01*
X122364704Y-111215904D01*
X122745540Y-111090795D01*
X123016865Y-110945770D01*
X123160842Y-110640447D01*
X121920000Y-109399605D01*
X120679158Y-110640447D01*
X112225000Y-110640447D01*
X112225000Y-110319117D01*
X112158325Y-109983919D01*
X112027537Y-109668169D01*
X111837663Y-109384002D01*
X111720438Y-109266777D01*
X119875690Y-109266777D01*
X119924096Y-109664704D01*
X120049205Y-110045540D01*
X120194230Y-110316865D01*
X120499553Y-110460842D01*
X121740395Y-109220000D01*
X122099605Y-109220000D01*
X123340447Y-110460842D01*
X123645770Y-110316865D01*
X123826597Y-109959108D01*
X123934155Y-109572947D01*
X123964310Y-109173223D01*
X123945619Y-109019570D01*
X124965000Y-109019570D01*
X124965000Y-109420430D01*
X125043204Y-109813587D01*
X125196607Y-110183934D01*
X125419313Y-110517237D01*
X125702763Y-110800687D01*
X126036066Y-111023393D01*
X126406413Y-111176796D01*
X126799570Y-111255000D01*
X127200430Y-111255000D01*
X127593587Y-111176796D01*
X127963934Y-111023393D01*
X128297237Y-110800687D01*
X128580687Y-110517237D01*
X128803393Y-110183934D01*
X128956796Y-109813587D01*
X129035000Y-109420430D01*
X129035000Y-109143685D01*
X137733686Y-100445000D01*
X151063397Y-100445000D01*
X151133506Y-100502537D01*
X151243820Y-100561502D01*
X151363518Y-100597812D01*
X151488000Y-100610072D01*
X153077401Y-100610072D01*
X153077400Y-102746128D01*
X152851243Y-102652451D01*
X152552366Y-102593000D01*
X152247634Y-102593000D01*
X151948757Y-102652451D01*
X151701182Y-102755000D01*
X137228029Y-102755000D01*
X137160000Y-102748300D01*
X137091971Y-102755000D01*
X137091963Y-102755000D01*
X136911892Y-102772735D01*
X136888492Y-102775040D01*
X136627419Y-102854236D01*
X136386812Y-102982843D01*
X136277108Y-103072875D01*
X136228766Y-103112548D01*
X136228764Y-103112550D01*
X136175919Y-103155919D01*
X136132550Y-103208764D01*
X132156315Y-107185000D01*
X131879570Y-107185000D01*
X131486413Y-107263204D01*
X131116066Y-107416607D01*
X130782763Y-107639313D01*
X130499313Y-107922763D01*
X130276607Y-108256066D01*
X130123204Y-108626413D01*
X130045000Y-109019570D01*
X130045000Y-109420430D01*
X130123204Y-109813587D01*
X130276607Y-110183934D01*
X130499313Y-110517237D01*
X130782763Y-110800687D01*
X131116066Y-111023393D01*
X131486413Y-111176796D01*
X131879570Y-111255000D01*
X132280430Y-111255000D01*
X132673587Y-111176796D01*
X133043934Y-111023393D01*
X133377237Y-110800687D01*
X133660687Y-110517237D01*
X133883393Y-110183934D01*
X134036796Y-109813587D01*
X134115000Y-109420430D01*
X134115000Y-109143685D01*
X135121928Y-108136757D01*
X135121928Y-110620000D01*
X135134188Y-110744482D01*
X135170498Y-110864180D01*
X135229463Y-110974494D01*
X135308815Y-111071185D01*
X135405506Y-111150537D01*
X135515820Y-111209502D01*
X135635518Y-111245812D01*
X135760000Y-111258072D01*
X138560000Y-111258072D01*
X138684482Y-111245812D01*
X138804180Y-111209502D01*
X138914494Y-111150537D01*
X139011185Y-111071185D01*
X139090537Y-110974494D01*
X139149502Y-110864180D01*
X139185812Y-110744482D01*
X139198072Y-110620000D01*
X139198072Y-110605000D01*
X150186871Y-110605000D01*
X150254900Y-110611700D01*
X150322929Y-110605000D01*
X150322937Y-110605000D01*
X150526407Y-110584960D01*
X150787481Y-110505764D01*
X151028088Y-110377157D01*
X151238981Y-110204081D01*
X151282354Y-110151231D01*
X155393641Y-106039945D01*
X155446480Y-105996581D01*
X155489845Y-105943741D01*
X155489852Y-105943734D01*
X155619557Y-105785688D01*
X155748164Y-105545081D01*
X155827360Y-105284007D01*
X155854101Y-105012500D01*
X155847400Y-104944463D01*
X155847400Y-97710126D01*
X155854100Y-97642099D01*
X155847400Y-97574072D01*
X155847400Y-97574063D01*
X155827360Y-97370593D01*
X155748164Y-97109519D01*
X155619557Y-96868912D01*
X155446481Y-96658019D01*
X155393631Y-96614646D01*
X151827754Y-93048769D01*
X151784381Y-92995919D01*
X151573488Y-92822843D01*
X151332881Y-92694236D01*
X151071807Y-92615040D01*
X150868337Y-92595000D01*
X150868329Y-92595000D01*
X150800300Y-92588300D01*
X150732271Y-92595000D01*
X148705000Y-92595000D01*
X148705000Y-91348026D01*
X148711700Y-91279999D01*
X148705000Y-91211972D01*
X148705000Y-91211963D01*
X148684960Y-91008493D01*
X148605764Y-90747419D01*
X148477157Y-90506812D01*
X148304081Y-90295919D01*
X148251231Y-90252546D01*
X142309685Y-84311000D01*
X147021241Y-79599445D01*
X147074080Y-79556081D01*
X147117445Y-79503241D01*
X147117452Y-79503234D01*
X147247157Y-79345188D01*
X147375764Y-79104581D01*
X147385763Y-79071619D01*
X147465518Y-79095812D01*
X147590000Y-79108072D01*
X149590000Y-79108072D01*
X149714482Y-79095812D01*
X149834180Y-79059502D01*
X149944494Y-79000537D01*
X150041185Y-78921185D01*
X150120537Y-78824494D01*
X150179502Y-78714180D01*
X150215812Y-78594482D01*
X150228072Y-78470000D01*
X150228072Y-76470000D01*
X150215812Y-76345518D01*
X150179502Y-76225820D01*
X150120537Y-76115506D01*
X150041185Y-76018815D01*
X149944494Y-75939463D01*
X149834180Y-75880498D01*
X149714482Y-75844188D01*
X149590000Y-75831928D01*
X147590000Y-75831928D01*
X147465518Y-75844188D01*
X147345820Y-75880498D01*
X147235506Y-75939463D01*
X147138815Y-76018815D01*
X147084499Y-76085000D01*
X146158037Y-76085000D01*
X146090000Y-76078299D01*
X146021964Y-76085000D01*
X146021963Y-76085000D01*
X145818493Y-76105040D01*
X145557419Y-76184236D01*
X145316812Y-76312843D01*
X145105919Y-76485919D01*
X144932843Y-76696812D01*
X144804236Y-76937419D01*
X144725040Y-77198493D01*
X144698299Y-77470000D01*
X144705000Y-77538037D01*
X144705000Y-77998314D01*
X140268315Y-82435000D01*
X139766603Y-82435000D01*
X139696494Y-82377463D01*
X139586180Y-82318498D01*
X139466482Y-82282188D01*
X139342000Y-82269928D01*
X137518000Y-82269928D01*
X137393518Y-82282188D01*
X137273820Y-82318498D01*
X137163506Y-82377463D01*
X137066815Y-82456815D01*
X136987463Y-82553506D01*
X136928498Y-82663820D01*
X136892188Y-82783518D01*
X136879928Y-82908000D01*
X136879928Y-84732000D01*
X136892188Y-84856482D01*
X136928498Y-84976180D01*
X136987463Y-85086494D01*
X137066815Y-85183185D01*
X137163506Y-85262537D01*
X137273820Y-85321502D01*
X137393518Y-85357812D01*
X137518000Y-85370072D01*
X139342000Y-85370072D01*
X139466482Y-85357812D01*
X139555126Y-85330922D01*
X139556236Y-85334580D01*
X139684843Y-85575187D01*
X139857919Y-85786080D01*
X139910765Y-85829450D01*
X145935001Y-91853686D01*
X145935000Y-92769918D01*
X145894662Y-92810256D01*
X145693844Y-93110801D01*
X145555518Y-93444750D01*
X145485000Y-93799268D01*
X145485000Y-94160732D01*
X145555518Y-94515250D01*
X145693844Y-94849199D01*
X145894662Y-95149744D01*
X146150256Y-95405338D01*
X146450801Y-95606156D01*
X146784750Y-95744482D01*
X147139268Y-95815000D01*
X147500732Y-95815000D01*
X147855250Y-95744482D01*
X148189199Y-95606156D01*
X148489744Y-95405338D01*
X148530082Y-95365000D01*
X150226615Y-95365000D01*
X152371543Y-97509928D01*
X151488000Y-97509928D01*
X151363518Y-97522188D01*
X151243820Y-97558498D01*
X151133506Y-97617463D01*
X151063397Y-97675000D01*
X137228029Y-97675000D01*
X137160000Y-97668300D01*
X137091971Y-97675000D01*
X137091963Y-97675000D01*
X136888493Y-97695040D01*
X136627419Y-97774236D01*
X136386812Y-97902843D01*
X136228766Y-98032548D01*
X136228764Y-98032550D01*
X136175919Y-98075919D01*
X136132550Y-98128764D01*
X127076315Y-107185000D01*
X126799570Y-107185000D01*
X126406413Y-107263204D01*
X126036066Y-107416607D01*
X125702763Y-107639313D01*
X125419313Y-107922763D01*
X125196607Y-108256066D01*
X125043204Y-108626413D01*
X124965000Y-109019570D01*
X123945619Y-109019570D01*
X123915904Y-108775296D01*
X123790795Y-108394460D01*
X123645770Y-108123135D01*
X123340447Y-107979158D01*
X122099605Y-109220000D01*
X121740395Y-109220000D01*
X120499553Y-107979158D01*
X120194230Y-108123135D01*
X120013403Y-108480892D01*
X119905845Y-108867053D01*
X119875690Y-109266777D01*
X111720438Y-109266777D01*
X111595998Y-109142337D01*
X111311831Y-108952463D01*
X110996081Y-108821675D01*
X110660883Y-108755000D01*
X110319117Y-108755000D01*
X109983919Y-108821675D01*
X109668169Y-108952463D01*
X109384002Y-109142337D01*
X109142337Y-109384002D01*
X108952463Y-109668169D01*
X108898369Y-109798763D01*
X108660000Y-109560394D01*
X108660000Y-107799553D01*
X120679158Y-107799553D01*
X121920000Y-109040395D01*
X123160842Y-107799553D01*
X123016865Y-107494230D01*
X122659108Y-107313403D01*
X122272947Y-107205845D01*
X121873223Y-107175690D01*
X121475296Y-107224096D01*
X121094460Y-107349205D01*
X120823135Y-107494230D01*
X120679158Y-107799553D01*
X108660000Y-107799553D01*
X108660000Y-89217500D01*
X111391928Y-89217500D01*
X111391928Y-91122500D01*
X111404188Y-91246982D01*
X111440498Y-91366680D01*
X111499463Y-91476994D01*
X111578815Y-91573685D01*
X111675506Y-91653037D01*
X111785820Y-91712002D01*
X111905518Y-91748312D01*
X112030000Y-91760572D01*
X114030000Y-91760572D01*
X114154482Y-91748312D01*
X114274180Y-91712002D01*
X114384494Y-91653037D01*
X114481185Y-91573685D01*
X114496519Y-91555000D01*
X116901315Y-91555000D01*
X117995000Y-92648686D01*
X117995000Y-92769918D01*
X117954662Y-92810256D01*
X117753844Y-93110801D01*
X117615518Y-93444750D01*
X117545000Y-93799268D01*
X117545000Y-94160732D01*
X117615518Y-94515250D01*
X117753844Y-94849199D01*
X117954662Y-95149744D01*
X118210256Y-95405338D01*
X118510801Y-95606156D01*
X118844750Y-95744482D01*
X119199268Y-95815000D01*
X119560732Y-95815000D01*
X119915250Y-95744482D01*
X120249199Y-95606156D01*
X120549744Y-95405338D01*
X120805338Y-95149744D01*
X121006156Y-94849199D01*
X121144482Y-94515250D01*
X121215000Y-94160732D01*
X121215000Y-93799268D01*
X121147515Y-93460000D01*
X125026971Y-93460000D01*
X125095000Y-93466700D01*
X125163029Y-93460000D01*
X125163037Y-93460000D01*
X125366507Y-93439960D01*
X125627581Y-93360764D01*
X125868188Y-93232157D01*
X126079081Y-93059081D01*
X126122454Y-93006231D01*
X133835204Y-85293482D01*
X134082779Y-85190933D01*
X134336155Y-85021633D01*
X134551633Y-84806155D01*
X134720933Y-84552779D01*
X134837549Y-84271243D01*
X134897000Y-83972366D01*
X134897000Y-83667634D01*
X134837549Y-83368757D01*
X134720933Y-83087221D01*
X134551633Y-82833845D01*
X134336155Y-82618367D01*
X134082779Y-82449067D01*
X133801243Y-82332451D01*
X133502366Y-82273000D01*
X133197634Y-82273000D01*
X132898757Y-82332451D01*
X132617221Y-82449067D01*
X132363845Y-82618367D01*
X132148367Y-82833845D01*
X131979067Y-83087221D01*
X131876518Y-83334796D01*
X124521315Y-90690000D01*
X119953686Y-90690000D01*
X118502454Y-89238769D01*
X118459081Y-89185919D01*
X118248188Y-89012843D01*
X118007581Y-88884236D01*
X117746507Y-88805040D01*
X117543037Y-88785000D01*
X117543029Y-88785000D01*
X117475000Y-88778300D01*
X117406971Y-88785000D01*
X114496519Y-88785000D01*
X114481185Y-88766315D01*
X114384494Y-88686963D01*
X114292781Y-88637941D01*
X114405969Y-88496923D01*
X114549571Y-88221094D01*
X114620563Y-88002980D01*
X114500594Y-87757000D01*
X113157000Y-87757000D01*
X113157000Y-87777000D01*
X112903000Y-87777000D01*
X112903000Y-87757000D01*
X111559406Y-87757000D01*
X111439437Y-88002980D01*
X111510429Y-88221094D01*
X111654031Y-88496923D01*
X111767219Y-88637941D01*
X111675506Y-88686963D01*
X111578815Y-88766315D01*
X111499463Y-88863006D01*
X111440498Y-88973320D01*
X111404188Y-89093018D01*
X111391928Y-89217500D01*
X108660000Y-89217500D01*
X108660000Y-66969606D01*
X108898369Y-66731237D01*
X108952463Y-66861831D01*
X109142337Y-67145998D01*
X109384002Y-67387663D01*
X109668169Y-67577537D01*
X109983919Y-67708325D01*
X110319117Y-67775000D01*
X110660883Y-67775000D01*
X110996081Y-67708325D01*
X111311831Y-67577537D01*
X111595998Y-67387663D01*
X111837663Y-67145998D01*
X112027537Y-66861831D01*
X112158325Y-66546081D01*
X112225000Y-66210883D01*
X112225000Y-65869117D01*
X112158325Y-65533919D01*
X112027537Y-65218169D01*
X111837663Y-64934002D01*
X111595998Y-64692337D01*
X111311831Y-64502463D01*
X111181237Y-64448369D01*
X111254506Y-64375100D01*
X121344663Y-64375100D01*
X121311619Y-64402219D01*
G37*
X121311619Y-64402219D02*
X121268250Y-64455064D01*
X119798315Y-65925000D01*
X119005752Y-65925000D01*
X118996482Y-65922188D01*
X118872000Y-65909928D01*
X117348000Y-65909928D01*
X117223518Y-65922188D01*
X117103820Y-65958498D01*
X116993506Y-66017463D01*
X116896815Y-66096815D01*
X116817463Y-66193506D01*
X116758498Y-66303820D01*
X116722188Y-66423518D01*
X116709928Y-66548000D01*
X116709928Y-68072000D01*
X116722188Y-68196482D01*
X116725001Y-68205755D01*
X116725000Y-75147397D01*
X116720498Y-75155820D01*
X116684188Y-75275518D01*
X116671928Y-75400000D01*
X116671928Y-77000000D01*
X116684188Y-77124482D01*
X116704969Y-77192987D01*
X116634919Y-77214236D01*
X116394312Y-77342843D01*
X116236266Y-77472548D01*
X116236264Y-77472550D01*
X116183419Y-77515919D01*
X116140050Y-77568764D01*
X112098764Y-81610051D01*
X112045920Y-81653419D01*
X112002551Y-81706264D01*
X112002548Y-81706267D01*
X111872844Y-81864312D01*
X111744236Y-82104920D01*
X111665040Y-82365993D01*
X111638300Y-82637500D01*
X111645001Y-82705539D01*
X111645000Y-84224634D01*
X111508745Y-84479551D01*
X111417970Y-84778796D01*
X111387319Y-85090000D01*
X111417970Y-85401204D01*
X111508745Y-85700449D01*
X111656155Y-85976235D01*
X111854537Y-86217963D01*
X112033899Y-86365163D01*
X111848685Y-86520563D01*
X111654031Y-86763077D01*
X111510429Y-87038906D01*
X111439437Y-87257020D01*
X111559406Y-87503000D01*
X112903000Y-87503000D01*
X112903000Y-87483000D01*
X113157000Y-87483000D01*
X113157000Y-87503000D01*
X114500594Y-87503000D01*
X114620563Y-87257020D01*
X114549571Y-87038906D01*
X114405969Y-86763077D01*
X114211315Y-86520563D01*
X114026101Y-86365163D01*
X114205463Y-86217963D01*
X114403845Y-85976235D01*
X114551255Y-85700449D01*
X114642030Y-85401204D01*
X114672681Y-85090000D01*
X114642030Y-84778796D01*
X114551255Y-84479551D01*
X114415000Y-84224635D01*
X114415000Y-83211185D01*
X117741186Y-79885000D01*
X118041964Y-79885000D01*
X118110000Y-79891701D01*
X118381507Y-79864960D01*
X118642581Y-79785764D01*
X118883188Y-79657157D01*
X119094081Y-79484081D01*
X119267157Y-79273188D01*
X119395764Y-79032581D01*
X119474960Y-78771507D01*
X119495000Y-78568037D01*
X119501701Y-78500000D01*
X119495000Y-78431963D01*
X119495000Y-77252603D01*
X119499502Y-77244180D01*
X119515117Y-77192702D01*
X119796903Y-77192702D01*
X119868486Y-77436671D01*
X120123996Y-77557571D01*
X120398184Y-77626300D01*
X120680512Y-77640217D01*
X120960130Y-77598787D01*
X121226292Y-77503603D01*
X121351514Y-77436671D01*
X121423097Y-77192702D01*
X120610000Y-76379605D01*
X119796903Y-77192702D01*
X119515117Y-77192702D01*
X119535812Y-77124482D01*
X119548072Y-77000000D01*
X119548072Y-76992785D01*
X119617298Y-77013097D01*
X120430395Y-76200000D01*
X120789605Y-76200000D01*
X121602702Y-77013097D01*
X121846671Y-76941514D01*
X121967571Y-76686004D01*
X122036300Y-76411816D01*
X122050217Y-76129488D01*
X122008787Y-75849870D01*
X121913603Y-75583708D01*
X121846671Y-75458486D01*
X121602702Y-75386903D01*
X120789605Y-76200000D01*
X120430395Y-76200000D01*
X119617298Y-75386903D01*
X119548072Y-75407215D01*
X119548072Y-75400000D01*
X119535812Y-75275518D01*
X119515118Y-75207298D01*
X119796903Y-75207298D01*
X120610000Y-76020395D01*
X121423097Y-75207298D01*
X121351514Y-74963329D01*
X121096004Y-74842429D01*
X120821816Y-74773700D01*
X120539488Y-74759783D01*
X120259870Y-74801213D01*
X119993708Y-74896397D01*
X119868486Y-74963329D01*
X119796903Y-75207298D01*
X119515118Y-75207298D01*
X119499502Y-75155820D01*
X119495000Y-75147397D01*
X119495000Y-68695000D01*
X120303971Y-68695000D01*
X120372000Y-68701700D01*
X120440029Y-68695000D01*
X120440037Y-68695000D01*
X120643507Y-68674960D01*
X120904581Y-68595764D01*
X121145188Y-68467157D01*
X121356081Y-68294081D01*
X121371276Y-68275565D01*
X122404040Y-68275565D01*
X122471020Y-68515656D01*
X122720048Y-68632756D01*
X122987135Y-68699023D01*
X123262017Y-68711910D01*
X123534133Y-68670922D01*
X123793023Y-68577636D01*
X123908980Y-68515656D01*
X123975960Y-68275565D01*
X123190000Y-67489605D01*
X122404040Y-68275565D01*
X121371276Y-68275565D01*
X121399454Y-68241231D01*
X121870791Y-67769895D01*
X121922364Y-67913023D01*
X121984344Y-68028980D01*
X122224435Y-68095960D01*
X123010395Y-67310000D01*
X122996253Y-67295858D01*
X123175858Y-67116253D01*
X123190000Y-67130395D01*
X123204143Y-67116253D01*
X123383748Y-67295858D01*
X123369605Y-67310000D01*
X124155565Y-68095960D01*
X124395656Y-68028980D01*
X124512756Y-67779952D01*
X124579023Y-67512865D01*
X124591910Y-67237983D01*
X124550922Y-66965867D01*
X124480814Y-66771300D01*
X124630615Y-66771300D01*
X126100550Y-68241236D01*
X126143919Y-68294081D01*
X126196764Y-68337450D01*
X126196766Y-68337452D01*
X126305264Y-68426494D01*
X126354812Y-68467157D01*
X126595419Y-68595764D01*
X126856493Y-68674960D01*
X127059963Y-68695000D01*
X127059971Y-68695000D01*
X127128000Y-68701700D01*
X127196029Y-68695000D01*
X128155001Y-68695000D01*
X128155001Y-69653961D01*
X128148300Y-69722000D01*
X128175040Y-69993507D01*
X128254236Y-70254580D01*
X128382844Y-70495188D01*
X128512548Y-70653233D01*
X128512551Y-70653236D01*
X128555920Y-70706081D01*
X128608765Y-70749450D01*
X130695000Y-72835685D01*
X130695001Y-76268037D01*
X130715041Y-76471507D01*
X130794237Y-76732581D01*
X130922844Y-76973188D01*
X131095920Y-77184081D01*
X131306813Y-77357157D01*
X131547420Y-77485764D01*
X131808494Y-77564960D01*
X132080000Y-77591701D01*
X132351507Y-77564960D01*
X132612581Y-77485764D01*
X132853188Y-77357157D01*
X133064081Y-77184081D01*
X133115629Y-77121269D01*
X133838336Y-77121269D01*
X133897797Y-77355037D01*
X134136242Y-77465934D01*
X134391740Y-77528183D01*
X134654473Y-77539390D01*
X134914344Y-77499125D01*
X135161366Y-77408935D01*
X135262203Y-77355037D01*
X135321664Y-77121269D01*
X134580000Y-76379605D01*
X133838336Y-77121269D01*
X133115629Y-77121269D01*
X133237157Y-76973188D01*
X133358331Y-76746488D01*
X133371065Y-76781366D01*
X133424963Y-76882203D01*
X133658731Y-76941664D01*
X134400395Y-76200000D01*
X134759605Y-76200000D01*
X135501269Y-76941664D01*
X135735037Y-76882203D01*
X135845934Y-76643758D01*
X135908183Y-76388260D01*
X135919390Y-76125527D01*
X135879125Y-75865656D01*
X135788935Y-75618634D01*
X135735037Y-75517797D01*
X135501269Y-75458336D01*
X134759605Y-76200000D01*
X134400395Y-76200000D01*
X133658731Y-75458336D01*
X133465000Y-75507613D01*
X133465000Y-75278731D01*
X133838336Y-75278731D01*
X134580000Y-76020395D01*
X135321664Y-75278731D01*
X135262203Y-75044963D01*
X135023758Y-74934066D01*
X134768260Y-74871817D01*
X134505527Y-74860610D01*
X134245656Y-74900875D01*
X133998634Y-74991065D01*
X133897797Y-75044963D01*
X133838336Y-75278731D01*
X133465000Y-75278731D01*
X133465000Y-73605413D01*
X147634192Y-73605413D01*
X147729956Y-73869814D01*
X148019571Y-74010704D01*
X148331108Y-74092384D01*
X148652595Y-74111718D01*
X148971675Y-74067961D01*
X149276088Y-73962795D01*
X149450044Y-73869814D01*
X149545808Y-73605413D01*
X148590000Y-72649605D01*
X147634192Y-73605413D01*
X133465000Y-73605413D01*
X133465000Y-72532595D01*
X146948282Y-72532595D01*
X146992039Y-72851675D01*
X147097205Y-73156088D01*
X147190186Y-73330044D01*
X147454587Y-73425808D01*
X148410395Y-72470000D01*
X148769605Y-72470000D01*
X149725413Y-73425808D01*
X149989814Y-73330044D01*
X150130704Y-73040429D01*
X150212384Y-72728892D01*
X150231718Y-72407405D01*
X150187961Y-72088325D01*
X150082795Y-71783912D01*
X149989814Y-71609956D01*
X149725413Y-71514192D01*
X148769605Y-72470000D01*
X148410395Y-72470000D01*
X147454587Y-71514192D01*
X147190186Y-71609956D01*
X147049296Y-71899571D01*
X146967616Y-72211108D01*
X146948282Y-72532595D01*
X133465000Y-72532595D01*
X133465000Y-72330026D01*
X133471700Y-72261999D01*
X133465000Y-72193972D01*
X133465000Y-72193963D01*
X133444960Y-71990493D01*
X133365764Y-71729419D01*
X133237157Y-71488812D01*
X133110587Y-71334587D01*
X147634192Y-71334587D01*
X148590000Y-72290395D01*
X149545808Y-71334587D01*
X149450044Y-71070186D01*
X149160429Y-70929296D01*
X148848892Y-70847616D01*
X148527405Y-70828282D01*
X148208325Y-70872039D01*
X147903912Y-70977205D01*
X147729956Y-71070186D01*
X147634192Y-71334587D01*
X133110587Y-71334587D01*
X133064080Y-71277919D01*
X133011235Y-71234550D01*
X130925000Y-69148315D01*
X130925000Y-68646603D01*
X130982537Y-68576494D01*
X131041502Y-68466180D01*
X131066842Y-68382642D01*
X133726963Y-68382642D01*
X133812096Y-68638049D01*
X134086709Y-68770145D01*
X134381817Y-68846129D01*
X134686077Y-68863080D01*
X134987798Y-68820347D01*
X135275385Y-68719572D01*
X135427904Y-68638049D01*
X135513037Y-68382642D01*
X134620000Y-67489605D01*
X133726963Y-68382642D01*
X131066842Y-68382642D01*
X131077812Y-68346482D01*
X131090072Y-68222000D01*
X131090072Y-67376077D01*
X133066920Y-67376077D01*
X133109653Y-67677798D01*
X133210428Y-67965385D01*
X133291951Y-68117904D01*
X133547358Y-68203037D01*
X134440395Y-67310000D01*
X134799605Y-67310000D01*
X135692642Y-68203037D01*
X135948049Y-68117904D01*
X136080145Y-67843291D01*
X136156129Y-67548183D01*
X136173080Y-67243923D01*
X136130347Y-66942202D01*
X136029572Y-66654615D01*
X135948049Y-66502096D01*
X135692642Y-66416963D01*
X134799605Y-67310000D01*
X134440395Y-67310000D01*
X133547358Y-66416963D01*
X133291951Y-66502096D01*
X133159855Y-66776709D01*
X133083871Y-67071817D01*
X133066920Y-67376077D01*
X131090072Y-67376077D01*
X131090072Y-66398000D01*
X131077812Y-66273518D01*
X131066843Y-66237358D01*
X133726963Y-66237358D01*
X134620000Y-67130395D01*
X135513037Y-66237358D01*
X135427904Y-65981951D01*
X135153291Y-65849855D01*
X134858183Y-65773871D01*
X134553923Y-65756920D01*
X134252202Y-65799653D01*
X133964615Y-65900428D01*
X133812096Y-65981951D01*
X133726963Y-66237358D01*
X131066843Y-66237358D01*
X131041502Y-66153820D01*
X130982537Y-66043506D01*
X130903185Y-65946815D01*
X130806494Y-65867463D01*
X130696180Y-65808498D01*
X130576482Y-65772188D01*
X130452000Y-65759928D01*
X128628000Y-65759928D01*
X128503518Y-65772188D01*
X128383820Y-65808498D01*
X128273506Y-65867463D01*
X128203397Y-65925000D01*
X127701686Y-65925000D01*
X126231754Y-64455069D01*
X126188381Y-64402219D01*
X126155337Y-64375100D01*
X154175494Y-64375100D01*
X154211566Y-64411172D01*
X153991169Y-64502463D01*
X153707002Y-64692337D01*
X153465337Y-64934002D01*
X153275463Y-65218169D01*
X153144675Y-65533919D01*
X153078000Y-65869117D01*
X153078000Y-66210883D01*
X153144675Y-66546081D01*
X153275463Y-66861831D01*
X153465337Y-67145998D01*
X153707002Y-67387663D01*
X153991169Y-67577537D01*
X154306919Y-67708325D01*
X154642117Y-67775000D01*
X154983883Y-67775000D01*
X155319081Y-67708325D01*
X155634831Y-67577537D01*
X155918998Y-67387663D01*
X156160663Y-67145998D01*
X156350537Y-66861831D01*
X156441828Y-66641434D01*
X156604901Y-66804507D01*
X156604900Y-109725494D01*
X156441828Y-109888566D01*
X156350537Y-109668169D01*
X156160663Y-109384002D01*
X155918998Y-109142337D01*
X155634831Y-108952463D01*
X155319081Y-108821675D01*
X154983883Y-108755000D01*
X154642117Y-108755000D01*
X154306919Y-108821675D01*
X153991169Y-108952463D01*
X153707002Y-109142337D01*
X153465337Y-109384002D01*
X153275463Y-109668169D01*
X153144675Y-109983919D01*
X153078000Y-110319117D01*
X153078000Y-110660883D01*
X153144675Y-110996081D01*
X153275463Y-111311831D01*
X153465337Y-111595998D01*
X153707002Y-111837663D01*
X153991169Y-112027537D01*
X154211566Y-112118828D01*
X154010394Y-112320000D01*
X111419606Y-112320000D01*
X111181237Y-112081631D01*
X111311831Y-112027537D01*
X111595998Y-111837663D01*
X111837663Y-111595998D01*
X112027537Y-111311831D01*
X112158325Y-110996081D01*
X112225000Y-110660883D01*
X112225000Y-110640447D01*
X120679158Y-110640447D01*
X120823135Y-110945770D01*
X121180892Y-111126597D01*
X121567053Y-111234155D01*
X121966777Y-111264310D01*
X122364704Y-111215904D01*
X122745540Y-111090795D01*
X123016865Y-110945770D01*
X123160842Y-110640447D01*
X121920000Y-109399605D01*
X120679158Y-110640447D01*
X112225000Y-110640447D01*
X112225000Y-110319117D01*
X112158325Y-109983919D01*
X112027537Y-109668169D01*
X111837663Y-109384002D01*
X111720438Y-109266777D01*
X119875690Y-109266777D01*
X119924096Y-109664704D01*
X120049205Y-110045540D01*
X120194230Y-110316865D01*
X120499553Y-110460842D01*
X121740395Y-109220000D01*
X122099605Y-109220000D01*
X123340447Y-110460842D01*
X123645770Y-110316865D01*
X123826597Y-109959108D01*
X123934155Y-109572947D01*
X123964310Y-109173223D01*
X123945619Y-109019570D01*
X124965000Y-109019570D01*
X124965000Y-109420430D01*
X125043204Y-109813587D01*
X125196607Y-110183934D01*
X125419313Y-110517237D01*
X125702763Y-110800687D01*
X126036066Y-111023393D01*
X126406413Y-111176796D01*
X126799570Y-111255000D01*
X127200430Y-111255000D01*
X127593587Y-111176796D01*
X127963934Y-111023393D01*
X128297237Y-110800687D01*
X128580687Y-110517237D01*
X128803393Y-110183934D01*
X128956796Y-109813587D01*
X129035000Y-109420430D01*
X129035000Y-109143685D01*
X137733686Y-100445000D01*
X151063397Y-100445000D01*
X151133506Y-100502537D01*
X151243820Y-100561502D01*
X151363518Y-100597812D01*
X151488000Y-100610072D01*
X153077401Y-100610072D01*
X153077400Y-102746128D01*
X152851243Y-102652451D01*
X152552366Y-102593000D01*
X152247634Y-102593000D01*
X151948757Y-102652451D01*
X151701182Y-102755000D01*
X137228029Y-102755000D01*
X137160000Y-102748300D01*
X137091971Y-102755000D01*
X137091963Y-102755000D01*
X136911892Y-102772735D01*
X136888492Y-102775040D01*
X136627419Y-102854236D01*
X136386812Y-102982843D01*
X136277108Y-103072875D01*
X136228766Y-103112548D01*
X136228764Y-103112550D01*
X136175919Y-103155919D01*
X136132550Y-103208764D01*
X132156315Y-107185000D01*
X131879570Y-107185000D01*
X131486413Y-107263204D01*
X131116066Y-107416607D01*
X130782763Y-107639313D01*
X130499313Y-107922763D01*
X130276607Y-108256066D01*
X130123204Y-108626413D01*
X130045000Y-109019570D01*
X130045000Y-109420430D01*
X130123204Y-109813587D01*
X130276607Y-110183934D01*
X130499313Y-110517237D01*
X130782763Y-110800687D01*
X131116066Y-111023393D01*
X131486413Y-111176796D01*
X131879570Y-111255000D01*
X132280430Y-111255000D01*
X132673587Y-111176796D01*
X133043934Y-111023393D01*
X133377237Y-110800687D01*
X133660687Y-110517237D01*
X133883393Y-110183934D01*
X134036796Y-109813587D01*
X134115000Y-109420430D01*
X134115000Y-109143685D01*
X135121928Y-108136757D01*
X135121928Y-110620000D01*
X135134188Y-110744482D01*
X135170498Y-110864180D01*
X135229463Y-110974494D01*
X135308815Y-111071185D01*
X135405506Y-111150537D01*
X135515820Y-111209502D01*
X135635518Y-111245812D01*
X135760000Y-111258072D01*
X138560000Y-111258072D01*
X138684482Y-111245812D01*
X138804180Y-111209502D01*
X138914494Y-111150537D01*
X139011185Y-111071185D01*
X139090537Y-110974494D01*
X139149502Y-110864180D01*
X139185812Y-110744482D01*
X139198072Y-110620000D01*
X139198072Y-110605000D01*
X150186871Y-110605000D01*
X150254900Y-110611700D01*
X150322929Y-110605000D01*
X150322937Y-110605000D01*
X150526407Y-110584960D01*
X150787481Y-110505764D01*
X151028088Y-110377157D01*
X151238981Y-110204081D01*
X151282354Y-110151231D01*
X155393641Y-106039945D01*
X155446480Y-105996581D01*
X155489845Y-105943741D01*
X155489852Y-105943734D01*
X155619557Y-105785688D01*
X155748164Y-105545081D01*
X155827360Y-105284007D01*
X155854101Y-105012500D01*
X155847400Y-104944463D01*
X155847400Y-97710126D01*
X155854100Y-97642099D01*
X155847400Y-97574072D01*
X155847400Y-97574063D01*
X155827360Y-97370593D01*
X155748164Y-97109519D01*
X155619557Y-96868912D01*
X155446481Y-96658019D01*
X155393631Y-96614646D01*
X151827754Y-93048769D01*
X151784381Y-92995919D01*
X151573488Y-92822843D01*
X151332881Y-92694236D01*
X151071807Y-92615040D01*
X150868337Y-92595000D01*
X150868329Y-92595000D01*
X150800300Y-92588300D01*
X150732271Y-92595000D01*
X148705000Y-92595000D01*
X148705000Y-91348026D01*
X148711700Y-91279999D01*
X148705000Y-91211972D01*
X148705000Y-91211963D01*
X148684960Y-91008493D01*
X148605764Y-90747419D01*
X148477157Y-90506812D01*
X148304081Y-90295919D01*
X148251231Y-90252546D01*
X142309685Y-84311000D01*
X147021241Y-79599445D01*
X147074080Y-79556081D01*
X147117445Y-79503241D01*
X147117452Y-79503234D01*
X147247157Y-79345188D01*
X147375764Y-79104581D01*
X147385763Y-79071619D01*
X147465518Y-79095812D01*
X147590000Y-79108072D01*
X149590000Y-79108072D01*
X149714482Y-79095812D01*
X149834180Y-79059502D01*
X149944494Y-79000537D01*
X150041185Y-78921185D01*
X150120537Y-78824494D01*
X150179502Y-78714180D01*
X150215812Y-78594482D01*
X150228072Y-78470000D01*
X150228072Y-76470000D01*
X150215812Y-76345518D01*
X150179502Y-76225820D01*
X150120537Y-76115506D01*
X150041185Y-76018815D01*
X149944494Y-75939463D01*
X149834180Y-75880498D01*
X149714482Y-75844188D01*
X149590000Y-75831928D01*
X147590000Y-75831928D01*
X147465518Y-75844188D01*
X147345820Y-75880498D01*
X147235506Y-75939463D01*
X147138815Y-76018815D01*
X147084499Y-76085000D01*
X146158037Y-76085000D01*
X146090000Y-76078299D01*
X146021964Y-76085000D01*
X146021963Y-76085000D01*
X145818493Y-76105040D01*
X145557419Y-76184236D01*
X145316812Y-76312843D01*
X145105919Y-76485919D01*
X144932843Y-76696812D01*
X144804236Y-76937419D01*
X144725040Y-77198493D01*
X144698299Y-77470000D01*
X144705000Y-77538037D01*
X144705000Y-77998314D01*
X140268315Y-82435000D01*
X139766603Y-82435000D01*
X139696494Y-82377463D01*
X139586180Y-82318498D01*
X139466482Y-82282188D01*
X139342000Y-82269928D01*
X137518000Y-82269928D01*
X137393518Y-82282188D01*
X137273820Y-82318498D01*
X137163506Y-82377463D01*
X137066815Y-82456815D01*
X136987463Y-82553506D01*
X136928498Y-82663820D01*
X136892188Y-82783518D01*
X136879928Y-82908000D01*
X136879928Y-84732000D01*
X136892188Y-84856482D01*
X136928498Y-84976180D01*
X136987463Y-85086494D01*
X137066815Y-85183185D01*
X137163506Y-85262537D01*
X137273820Y-85321502D01*
X137393518Y-85357812D01*
X137518000Y-85370072D01*
X139342000Y-85370072D01*
X139466482Y-85357812D01*
X139555126Y-85330922D01*
X139556236Y-85334580D01*
X139684843Y-85575187D01*
X139857919Y-85786080D01*
X139910765Y-85829450D01*
X145935001Y-91853686D01*
X145935000Y-92769918D01*
X145894662Y-92810256D01*
X145693844Y-93110801D01*
X145555518Y-93444750D01*
X145485000Y-93799268D01*
X145485000Y-94160732D01*
X145555518Y-94515250D01*
X145693844Y-94849199D01*
X145894662Y-95149744D01*
X146150256Y-95405338D01*
X146450801Y-95606156D01*
X146784750Y-95744482D01*
X147139268Y-95815000D01*
X147500732Y-95815000D01*
X147855250Y-95744482D01*
X148189199Y-95606156D01*
X148489744Y-95405338D01*
X148530082Y-95365000D01*
X150226615Y-95365000D01*
X152371543Y-97509928D01*
X151488000Y-97509928D01*
X151363518Y-97522188D01*
X151243820Y-97558498D01*
X151133506Y-97617463D01*
X151063397Y-97675000D01*
X137228029Y-97675000D01*
X137160000Y-97668300D01*
X137091971Y-97675000D01*
X137091963Y-97675000D01*
X136888493Y-97695040D01*
X136627419Y-97774236D01*
X136386812Y-97902843D01*
X136228766Y-98032548D01*
X136228764Y-98032550D01*
X136175919Y-98075919D01*
X136132550Y-98128764D01*
X127076315Y-107185000D01*
X126799570Y-107185000D01*
X126406413Y-107263204D01*
X126036066Y-107416607D01*
X125702763Y-107639313D01*
X125419313Y-107922763D01*
X125196607Y-108256066D01*
X125043204Y-108626413D01*
X124965000Y-109019570D01*
X123945619Y-109019570D01*
X123915904Y-108775296D01*
X123790795Y-108394460D01*
X123645770Y-108123135D01*
X123340447Y-107979158D01*
X122099605Y-109220000D01*
X121740395Y-109220000D01*
X120499553Y-107979158D01*
X120194230Y-108123135D01*
X120013403Y-108480892D01*
X119905845Y-108867053D01*
X119875690Y-109266777D01*
X111720438Y-109266777D01*
X111595998Y-109142337D01*
X111311831Y-108952463D01*
X110996081Y-108821675D01*
X110660883Y-108755000D01*
X110319117Y-108755000D01*
X109983919Y-108821675D01*
X109668169Y-108952463D01*
X109384002Y-109142337D01*
X109142337Y-109384002D01*
X108952463Y-109668169D01*
X108898369Y-109798763D01*
X108660000Y-109560394D01*
X108660000Y-107799553D01*
X120679158Y-107799553D01*
X121920000Y-109040395D01*
X123160842Y-107799553D01*
X123016865Y-107494230D01*
X122659108Y-107313403D01*
X122272947Y-107205845D01*
X121873223Y-107175690D01*
X121475296Y-107224096D01*
X121094460Y-107349205D01*
X120823135Y-107494230D01*
X120679158Y-107799553D01*
X108660000Y-107799553D01*
X108660000Y-89217500D01*
X111391928Y-89217500D01*
X111391928Y-91122500D01*
X111404188Y-91246982D01*
X111440498Y-91366680D01*
X111499463Y-91476994D01*
X111578815Y-91573685D01*
X111675506Y-91653037D01*
X111785820Y-91712002D01*
X111905518Y-91748312D01*
X112030000Y-91760572D01*
X114030000Y-91760572D01*
X114154482Y-91748312D01*
X114274180Y-91712002D01*
X114384494Y-91653037D01*
X114481185Y-91573685D01*
X114496519Y-91555000D01*
X116901315Y-91555000D01*
X117995000Y-92648686D01*
X117995000Y-92769918D01*
X117954662Y-92810256D01*
X117753844Y-93110801D01*
X117615518Y-93444750D01*
X117545000Y-93799268D01*
X117545000Y-94160732D01*
X117615518Y-94515250D01*
X117753844Y-94849199D01*
X117954662Y-95149744D01*
X118210256Y-95405338D01*
X118510801Y-95606156D01*
X118844750Y-95744482D01*
X119199268Y-95815000D01*
X119560732Y-95815000D01*
X119915250Y-95744482D01*
X120249199Y-95606156D01*
X120549744Y-95405338D01*
X120805338Y-95149744D01*
X121006156Y-94849199D01*
X121144482Y-94515250D01*
X121215000Y-94160732D01*
X121215000Y-93799268D01*
X121147515Y-93460000D01*
X125026971Y-93460000D01*
X125095000Y-93466700D01*
X125163029Y-93460000D01*
X125163037Y-93460000D01*
X125366507Y-93439960D01*
X125627581Y-93360764D01*
X125868188Y-93232157D01*
X126079081Y-93059081D01*
X126122454Y-93006231D01*
X133835204Y-85293482D01*
X134082779Y-85190933D01*
X134336155Y-85021633D01*
X134551633Y-84806155D01*
X134720933Y-84552779D01*
X134837549Y-84271243D01*
X134897000Y-83972366D01*
X134897000Y-83667634D01*
X134837549Y-83368757D01*
X134720933Y-83087221D01*
X134551633Y-82833845D01*
X134336155Y-82618367D01*
X134082779Y-82449067D01*
X133801243Y-82332451D01*
X133502366Y-82273000D01*
X133197634Y-82273000D01*
X132898757Y-82332451D01*
X132617221Y-82449067D01*
X132363845Y-82618367D01*
X132148367Y-82833845D01*
X131979067Y-83087221D01*
X131876518Y-83334796D01*
X124521315Y-90690000D01*
X119953686Y-90690000D01*
X118502454Y-89238769D01*
X118459081Y-89185919D01*
X118248188Y-89012843D01*
X118007581Y-88884236D01*
X117746507Y-88805040D01*
X117543037Y-88785000D01*
X117543029Y-88785000D01*
X117475000Y-88778300D01*
X117406971Y-88785000D01*
X114496519Y-88785000D01*
X114481185Y-88766315D01*
X114384494Y-88686963D01*
X114292781Y-88637941D01*
X114405969Y-88496923D01*
X114549571Y-88221094D01*
X114620563Y-88002980D01*
X114500594Y-87757000D01*
X113157000Y-87757000D01*
X113157000Y-87777000D01*
X112903000Y-87777000D01*
X112903000Y-87757000D01*
X111559406Y-87757000D01*
X111439437Y-88002980D01*
X111510429Y-88221094D01*
X111654031Y-88496923D01*
X111767219Y-88637941D01*
X111675506Y-88686963D01*
X111578815Y-88766315D01*
X111499463Y-88863006D01*
X111440498Y-88973320D01*
X111404188Y-89093018D01*
X111391928Y-89217500D01*
X108660000Y-89217500D01*
X108660000Y-66969606D01*
X108898369Y-66731237D01*
X108952463Y-66861831D01*
X109142337Y-67145998D01*
X109384002Y-67387663D01*
X109668169Y-67577537D01*
X109983919Y-67708325D01*
X110319117Y-67775000D01*
X110660883Y-67775000D01*
X110996081Y-67708325D01*
X111311831Y-67577537D01*
X111595998Y-67387663D01*
X111837663Y-67145998D01*
X112027537Y-66861831D01*
X112158325Y-66546081D01*
X112225000Y-66210883D01*
X112225000Y-65869117D01*
X112158325Y-65533919D01*
X112027537Y-65218169D01*
X111837663Y-64934002D01*
X111595998Y-64692337D01*
X111311831Y-64502463D01*
X111181237Y-64448369D01*
X111254506Y-64375100D01*
X121344663Y-64375100D01*
X121311619Y-64402219D01*
%TD*%
M02*
