M48
; DRILL file {KiCad 5.1.5-1.fc31} date wto, 7 kwi 2020, 08:28:07
; FORMAT={-:-/ absolute / metric / decimal}
; #@! TF.CreationDate,2020-04-07T08:28:07+02:00
; #@! TF.GenerationSoftware,Kicad,Pcbnew,5.1.5-1.fc31
; #@! TF.FileFunction,Plated,1,2,PTH
FMAT,2
METRIC
T1C0.700
T2C0.762
T3C0.800
T4C1.000
T5C1.100
T6C1.200
T7C1.400
%
G90
G05
T1
X132.08Y-76.2
X134.58Y-76.2
T2
X118.11Y-67.31
X123.19Y-67.31
T3
X118.11Y-76.2
X120.61Y-76.2
T4
X129.54Y-67.31
X134.62Y-67.31
X148.59Y-72.47
X148.59Y-77.47
X152.4Y-99.06
X152.4Y-104.14
X133.35Y-83.82
X138.43Y-83.82
T5
X113.03Y-85.09
X113.03Y-87.63
X113.03Y-90.17
T6
X119.38Y-93.98
X147.32Y-93.98
T7
X121.92Y-109.22
X127.0Y-109.22
X132.08Y-109.22
X137.16Y-109.22
T0
M30
