%TF.GenerationSoftware,KiCad,Pcbnew,5.1.5-1.fc31*%
%TF.CreationDate,2020-04-07T08:28:03+02:00*%
%TF.ProjectId,zasilacz,7a617369-6c61-4637-9a2e-6b696361645f,1.0*%
%TF.SameCoordinates,Original*%
%TF.FileFunction,Other,Fab,Top*%
%FSLAX46Y46*%
G04 Gerber Fmt 4.6, Leading zero omitted, Abs format (unit mm)*
G04 Created by KiCad (PCBNEW 5.1.5-1.fc31) date 2020-04-07 08:28:03*
%MOMM*%
%LPD*%
G04 APERTURE LIST*
%ADD10C,0.100000*%
%ADD11C,0.120000*%
%ADD12C,0.150000*%
%ADD13C,0.138000*%
G04 APERTURE END LIST*
D10*
%TO.C,C1*%
X153590000Y-74970000D02*
G75*
G03X153590000Y-74970000I-5000000J0D01*
G01*
X146402500Y-79258861D02*
X146402500Y-78258861D01*
X145902500Y-78758861D02*
X146902500Y-78758861D01*
%TO.C,C2*%
X123110000Y-76200000D02*
G75*
G03X123110000Y-76200000I-3750000J0D01*
G01*
X116148767Y-74562500D02*
X116898767Y-74562500D01*
X116523767Y-74187500D02*
X116523767Y-74937500D01*
%TO.C,C3*%
X131030000Y-73450000D02*
X131030000Y-78950000D01*
X131030000Y-78950000D02*
X135630000Y-78950000D01*
X135630000Y-78950000D02*
X135630000Y-73450000D01*
X135630000Y-73450000D02*
X131030000Y-73450000D01*
D11*
%TO.C,D1*%
X136560000Y-111220000D02*
X136560000Y-104020000D01*
D10*
X141160000Y-110220000D02*
X141160000Y-104020000D01*
X140260000Y-111220000D02*
X141160000Y-110220000D01*
X117960000Y-111220000D02*
X140260000Y-111220000D01*
D11*
X117960000Y-104020000D02*
X117960000Y-111220000D01*
D10*
X141160000Y-104020000D02*
X117960000Y-104020000D01*
%TO.C,R1*%
X120850000Y-89480000D02*
X120850000Y-98480000D01*
X120850000Y-98480000D02*
X145850000Y-98480000D01*
X145850000Y-98480000D02*
X145850000Y-89480000D01*
X145850000Y-89480000D02*
X120850000Y-89480000D01*
X119380000Y-93980000D02*
X120850000Y-93980000D01*
X147320000Y-93980000D02*
X145850000Y-93980000D01*
%TO.C,U1*%
X109880000Y-92630000D02*
X114280000Y-92630000D01*
X114280000Y-92630000D02*
X114280000Y-82630000D01*
X114280000Y-82630000D02*
X109880000Y-82630000D01*
X109880000Y-82630000D02*
X109880000Y-92630000D01*
X111150000Y-92630000D02*
X111150000Y-82630000D01*
X109880000Y-89480000D02*
X111150000Y-89480000D01*
X109880000Y-85780000D02*
X111150000Y-85780000D01*
%TD*%
%TO.C,M1*%
D12*
X109980476Y-66492380D02*
X109980476Y-65492380D01*
X110313809Y-66206666D01*
X110647142Y-65492380D01*
X110647142Y-66492380D01*
X111647142Y-66492380D02*
X111075714Y-66492380D01*
X111361428Y-66492380D02*
X111361428Y-65492380D01*
X111266190Y-65635238D01*
X111170952Y-65730476D01*
X111075714Y-65778095D01*
%TO.C,M4*%
X154303476Y-66492380D02*
X154303476Y-65492380D01*
X154636809Y-66206666D01*
X154970142Y-65492380D01*
X154970142Y-66492380D01*
X155874904Y-65825714D02*
X155874904Y-66492380D01*
X155636809Y-65444761D02*
X155398714Y-66159047D01*
X156017761Y-66159047D01*
%TO.C,M3*%
X154303476Y-110942380D02*
X154303476Y-109942380D01*
X154636809Y-110656666D01*
X154970142Y-109942380D01*
X154970142Y-110942380D01*
X155351095Y-109942380D02*
X155970142Y-109942380D01*
X155636809Y-110323333D01*
X155779666Y-110323333D01*
X155874904Y-110370952D01*
X155922523Y-110418571D01*
X155970142Y-110513809D01*
X155970142Y-110751904D01*
X155922523Y-110847142D01*
X155874904Y-110894761D01*
X155779666Y-110942380D01*
X155493952Y-110942380D01*
X155398714Y-110894761D01*
X155351095Y-110847142D01*
%TO.C,M2*%
X109980476Y-110942380D02*
X109980476Y-109942380D01*
X110313809Y-110656666D01*
X110647142Y-109942380D01*
X110647142Y-110942380D01*
X111075714Y-110037619D02*
X111123333Y-109990000D01*
X111218571Y-109942380D01*
X111456666Y-109942380D01*
X111551904Y-109990000D01*
X111599523Y-110037619D01*
X111647142Y-110132857D01*
X111647142Y-110228095D01*
X111599523Y-110370952D01*
X111028095Y-110942380D01*
X111647142Y-110942380D01*
%TO.C,C1*%
X155292380Y-78470000D02*
X155292380Y-79041428D01*
X155292380Y-78755714D02*
X154292380Y-78755714D01*
X154435238Y-78850952D01*
X154530476Y-78946190D01*
X154578095Y-79041428D01*
X154292380Y-77850952D02*
X154292380Y-77755714D01*
X154340000Y-77660476D01*
X154387619Y-77612857D01*
X154482857Y-77565238D01*
X154673333Y-77517619D01*
X154911428Y-77517619D01*
X155101904Y-77565238D01*
X155197142Y-77612857D01*
X155244761Y-77660476D01*
X155292380Y-77755714D01*
X155292380Y-77850952D01*
X155244761Y-77946190D01*
X155197142Y-77993809D01*
X155101904Y-78041428D01*
X154911428Y-78089047D01*
X154673333Y-78089047D01*
X154482857Y-78041428D01*
X154387619Y-77993809D01*
X154340000Y-77946190D01*
X154292380Y-77850952D01*
X154292380Y-76898571D02*
X154292380Y-76803333D01*
X154340000Y-76708095D01*
X154387619Y-76660476D01*
X154482857Y-76612857D01*
X154673333Y-76565238D01*
X154911428Y-76565238D01*
X155101904Y-76612857D01*
X155197142Y-76660476D01*
X155244761Y-76708095D01*
X155292380Y-76803333D01*
X155292380Y-76898571D01*
X155244761Y-76993809D01*
X155197142Y-77041428D01*
X155101904Y-77089047D01*
X154911428Y-77136666D01*
X154673333Y-77136666D01*
X154482857Y-77089047D01*
X154387619Y-77041428D01*
X154340000Y-76993809D01*
X154292380Y-76898571D01*
X154292380Y-75946190D02*
X154292380Y-75850952D01*
X154340000Y-75755714D01*
X154387619Y-75708095D01*
X154482857Y-75660476D01*
X154673333Y-75612857D01*
X154911428Y-75612857D01*
X155101904Y-75660476D01*
X155197142Y-75708095D01*
X155244761Y-75755714D01*
X155292380Y-75850952D01*
X155292380Y-75946190D01*
X155244761Y-76041428D01*
X155197142Y-76089047D01*
X155101904Y-76136666D01*
X154911428Y-76184285D01*
X154673333Y-76184285D01*
X154482857Y-76136666D01*
X154387619Y-76089047D01*
X154340000Y-76041428D01*
X154292380Y-75946190D01*
X154625714Y-74755714D02*
X155292380Y-74755714D01*
X154625714Y-75184285D02*
X155149523Y-75184285D01*
X155244761Y-75136666D01*
X155292380Y-75041428D01*
X155292380Y-74898571D01*
X155244761Y-74803333D01*
X155197142Y-74755714D01*
X154244761Y-73565238D02*
X155530476Y-74422380D01*
X154387619Y-73279523D02*
X154340000Y-73231904D01*
X154292380Y-73136666D01*
X154292380Y-72898571D01*
X154340000Y-72803333D01*
X154387619Y-72755714D01*
X154482857Y-72708095D01*
X154578095Y-72708095D01*
X154720952Y-72755714D01*
X155292380Y-73327142D01*
X155292380Y-72708095D01*
X154292380Y-71803333D02*
X154292380Y-72279523D01*
X154768571Y-72327142D01*
X154720952Y-72279523D01*
X154673333Y-72184285D01*
X154673333Y-71946190D01*
X154720952Y-71850952D01*
X154768571Y-71803333D01*
X154863809Y-71755714D01*
X155101904Y-71755714D01*
X155197142Y-71803333D01*
X155244761Y-71850952D01*
X155292380Y-71946190D01*
X155292380Y-72184285D01*
X155244761Y-72279523D01*
X155197142Y-72327142D01*
X154292380Y-71470000D02*
X155292380Y-71136666D01*
X154292380Y-70803333D01*
X148947142Y-75136666D02*
X148994761Y-75184285D01*
X149042380Y-75327142D01*
X149042380Y-75422380D01*
X148994761Y-75565238D01*
X148899523Y-75660476D01*
X148804285Y-75708095D01*
X148613809Y-75755714D01*
X148470952Y-75755714D01*
X148280476Y-75708095D01*
X148185238Y-75660476D01*
X148090000Y-75565238D01*
X148042380Y-75422380D01*
X148042380Y-75327142D01*
X148090000Y-75184285D01*
X148137619Y-75136666D01*
X149042380Y-74184285D02*
X149042380Y-74755714D01*
X149042380Y-74470000D02*
X148042380Y-74470000D01*
X148185238Y-74565238D01*
X148280476Y-74660476D01*
X148328095Y-74755714D01*
%TO.C,C2*%
X116336190Y-81652380D02*
X115764761Y-81652380D01*
X116050476Y-81652380D02*
X116050476Y-80652380D01*
X115955238Y-80795238D01*
X115860000Y-80890476D01*
X115764761Y-80938095D01*
X116955238Y-80652380D02*
X117050476Y-80652380D01*
X117145714Y-80700000D01*
X117193333Y-80747619D01*
X117240952Y-80842857D01*
X117288571Y-81033333D01*
X117288571Y-81271428D01*
X117240952Y-81461904D01*
X117193333Y-81557142D01*
X117145714Y-81604761D01*
X117050476Y-81652380D01*
X116955238Y-81652380D01*
X116860000Y-81604761D01*
X116812380Y-81557142D01*
X116764761Y-81461904D01*
X116717142Y-81271428D01*
X116717142Y-81033333D01*
X116764761Y-80842857D01*
X116812380Y-80747619D01*
X116860000Y-80700000D01*
X116955238Y-80652380D01*
X117907619Y-80652380D02*
X118002857Y-80652380D01*
X118098095Y-80700000D01*
X118145714Y-80747619D01*
X118193333Y-80842857D01*
X118240952Y-81033333D01*
X118240952Y-81271428D01*
X118193333Y-81461904D01*
X118145714Y-81557142D01*
X118098095Y-81604761D01*
X118002857Y-81652380D01*
X117907619Y-81652380D01*
X117812380Y-81604761D01*
X117764761Y-81557142D01*
X117717142Y-81461904D01*
X117669523Y-81271428D01*
X117669523Y-81033333D01*
X117717142Y-80842857D01*
X117764761Y-80747619D01*
X117812380Y-80700000D01*
X117907619Y-80652380D01*
X119098095Y-80985714D02*
X119098095Y-81652380D01*
X118669523Y-80985714D02*
X118669523Y-81509523D01*
X118717142Y-81604761D01*
X118812380Y-81652380D01*
X118955238Y-81652380D01*
X119050476Y-81604761D01*
X119098095Y-81557142D01*
X120288571Y-80604761D02*
X119431428Y-81890476D01*
X121145714Y-81652380D02*
X120574285Y-81652380D01*
X120860000Y-81652380D02*
X120860000Y-80652380D01*
X120764761Y-80795238D01*
X120669523Y-80890476D01*
X120574285Y-80938095D01*
X122002857Y-80652380D02*
X121812380Y-80652380D01*
X121717142Y-80700000D01*
X121669523Y-80747619D01*
X121574285Y-80890476D01*
X121526666Y-81080952D01*
X121526666Y-81461904D01*
X121574285Y-81557142D01*
X121621904Y-81604761D01*
X121717142Y-81652380D01*
X121907619Y-81652380D01*
X122002857Y-81604761D01*
X122050476Y-81557142D01*
X122098095Y-81461904D01*
X122098095Y-81223809D01*
X122050476Y-81128571D01*
X122002857Y-81080952D01*
X121907619Y-81033333D01*
X121717142Y-81033333D01*
X121621904Y-81080952D01*
X121574285Y-81128571D01*
X121526666Y-81223809D01*
X122383809Y-80652380D02*
X122717142Y-81652380D01*
X123050476Y-80652380D01*
X119193333Y-76557142D02*
X119145714Y-76604761D01*
X119002857Y-76652380D01*
X118907619Y-76652380D01*
X118764761Y-76604761D01*
X118669523Y-76509523D01*
X118621904Y-76414285D01*
X118574285Y-76223809D01*
X118574285Y-76080952D01*
X118621904Y-75890476D01*
X118669523Y-75795238D01*
X118764761Y-75700000D01*
X118907619Y-75652380D01*
X119002857Y-75652380D01*
X119145714Y-75700000D01*
X119193333Y-75747619D01*
X119574285Y-75747619D02*
X119621904Y-75700000D01*
X119717142Y-75652380D01*
X119955238Y-75652380D01*
X120050476Y-75700000D01*
X120098095Y-75747619D01*
X120145714Y-75842857D01*
X120145714Y-75938095D01*
X120098095Y-76080952D01*
X119526666Y-76652380D01*
X120145714Y-76652380D01*
%TO.C,C3*%
X130210952Y-79652380D02*
X130306190Y-79652380D01*
X130401428Y-79700000D01*
X130449047Y-79747619D01*
X130496666Y-79842857D01*
X130544285Y-80033333D01*
X130544285Y-80271428D01*
X130496666Y-80461904D01*
X130449047Y-80557142D01*
X130401428Y-80604761D01*
X130306190Y-80652380D01*
X130210952Y-80652380D01*
X130115714Y-80604761D01*
X130068095Y-80557142D01*
X130020476Y-80461904D01*
X129972857Y-80271428D01*
X129972857Y-80033333D01*
X130020476Y-79842857D01*
X130068095Y-79747619D01*
X130115714Y-79700000D01*
X130210952Y-79652380D01*
X130972857Y-80557142D02*
X131020476Y-80604761D01*
X130972857Y-80652380D01*
X130925238Y-80604761D01*
X130972857Y-80557142D01*
X130972857Y-80652380D01*
X131972857Y-80652380D02*
X131401428Y-80652380D01*
X131687142Y-80652380D02*
X131687142Y-79652380D01*
X131591904Y-79795238D01*
X131496666Y-79890476D01*
X131401428Y-79938095D01*
X132830000Y-79985714D02*
X132830000Y-80652380D01*
X132401428Y-79985714D02*
X132401428Y-80509523D01*
X132449047Y-80604761D01*
X132544285Y-80652380D01*
X132687142Y-80652380D01*
X132782380Y-80604761D01*
X132830000Y-80557142D01*
X134020476Y-79604761D02*
X133163333Y-80890476D01*
X134830000Y-79652380D02*
X134353809Y-79652380D01*
X134306190Y-80128571D01*
X134353809Y-80080952D01*
X134449047Y-80033333D01*
X134687142Y-80033333D01*
X134782380Y-80080952D01*
X134830000Y-80128571D01*
X134877619Y-80223809D01*
X134877619Y-80461904D01*
X134830000Y-80557142D01*
X134782380Y-80604761D01*
X134687142Y-80652380D01*
X134449047Y-80652380D01*
X134353809Y-80604761D01*
X134306190Y-80557142D01*
X135496666Y-79652380D02*
X135591904Y-79652380D01*
X135687142Y-79700000D01*
X135734761Y-79747619D01*
X135782380Y-79842857D01*
X135830000Y-80033333D01*
X135830000Y-80271428D01*
X135782380Y-80461904D01*
X135734761Y-80557142D01*
X135687142Y-80604761D01*
X135591904Y-80652380D01*
X135496666Y-80652380D01*
X135401428Y-80604761D01*
X135353809Y-80557142D01*
X135306190Y-80461904D01*
X135258571Y-80271428D01*
X135258571Y-80033333D01*
X135306190Y-79842857D01*
X135353809Y-79747619D01*
X135401428Y-79700000D01*
X135496666Y-79652380D01*
X136115714Y-79652380D02*
X136449047Y-80652380D01*
X136782380Y-79652380D01*
D13*
X133176666Y-76528571D02*
X133132857Y-76572380D01*
X133001428Y-76616190D01*
X132913809Y-76616190D01*
X132782380Y-76572380D01*
X132694761Y-76484761D01*
X132650952Y-76397142D01*
X132607142Y-76221904D01*
X132607142Y-76090476D01*
X132650952Y-75915238D01*
X132694761Y-75827619D01*
X132782380Y-75740000D01*
X132913809Y-75696190D01*
X133001428Y-75696190D01*
X133132857Y-75740000D01*
X133176666Y-75783809D01*
X133483333Y-75696190D02*
X134052857Y-75696190D01*
X133746190Y-76046666D01*
X133877619Y-76046666D01*
X133965238Y-76090476D01*
X134009047Y-76134285D01*
X134052857Y-76221904D01*
X134052857Y-76440952D01*
X134009047Y-76528571D01*
X133965238Y-76572380D01*
X133877619Y-76616190D01*
X133614761Y-76616190D01*
X133527142Y-76572380D01*
X133483333Y-76528571D01*
%TO.C,D1*%
D12*
X127469523Y-103472380D02*
X127469523Y-102472380D01*
X128040952Y-103472380D02*
X127612380Y-102900952D01*
X128040952Y-102472380D02*
X127469523Y-103043809D01*
X128802857Y-102948571D02*
X128945714Y-102996190D01*
X128993333Y-103043809D01*
X129040952Y-103139047D01*
X129040952Y-103281904D01*
X128993333Y-103377142D01*
X128945714Y-103424761D01*
X128850476Y-103472380D01*
X128469523Y-103472380D01*
X128469523Y-102472380D01*
X128802857Y-102472380D01*
X128898095Y-102520000D01*
X128945714Y-102567619D01*
X128993333Y-102662857D01*
X128993333Y-102758095D01*
X128945714Y-102853333D01*
X128898095Y-102900952D01*
X128802857Y-102948571D01*
X128469523Y-102948571D01*
X129469523Y-102472380D02*
X129469523Y-103281904D01*
X129517142Y-103377142D01*
X129564761Y-103424761D01*
X129660000Y-103472380D01*
X129850476Y-103472380D01*
X129945714Y-103424761D01*
X129993333Y-103377142D01*
X130040952Y-103281904D01*
X130040952Y-102472380D01*
X130945714Y-102805714D02*
X130945714Y-103472380D01*
X130707619Y-102424761D02*
X130469523Y-103139047D01*
X131088571Y-103139047D01*
X131421904Y-103186666D02*
X131898095Y-103186666D01*
X131326666Y-103472380D02*
X131660000Y-102472380D01*
X131993333Y-103472380D01*
X128721904Y-106372380D02*
X128721904Y-105372380D01*
X128960000Y-105372380D01*
X129102857Y-105420000D01*
X129198095Y-105515238D01*
X129245714Y-105610476D01*
X129293333Y-105800952D01*
X129293333Y-105943809D01*
X129245714Y-106134285D01*
X129198095Y-106229523D01*
X129102857Y-106324761D01*
X128960000Y-106372380D01*
X128721904Y-106372380D01*
X130245714Y-106372380D02*
X129674285Y-106372380D01*
X129960000Y-106372380D02*
X129960000Y-105372380D01*
X129864761Y-105515238D01*
X129769523Y-105610476D01*
X129674285Y-105658095D01*
%TO.C,D2*%
X115888095Y-71572380D02*
X115888095Y-70572380D01*
X115983333Y-71191428D02*
X116269047Y-71572380D01*
X116269047Y-70905714D02*
X115888095Y-71286666D01*
X116840476Y-71572380D02*
X116745238Y-71524761D01*
X116697619Y-71477142D01*
X116650000Y-71381904D01*
X116650000Y-71096190D01*
X116697619Y-71000952D01*
X116745238Y-70953333D01*
X116840476Y-70905714D01*
X116983333Y-70905714D01*
X117078571Y-70953333D01*
X117126190Y-71000952D01*
X117173809Y-71096190D01*
X117173809Y-71381904D01*
X117126190Y-71477142D01*
X117078571Y-71524761D01*
X116983333Y-71572380D01*
X116840476Y-71572380D01*
X117602380Y-70905714D02*
X117602380Y-71572380D01*
X117602380Y-71000952D02*
X117650000Y-70953333D01*
X117745238Y-70905714D01*
X117888095Y-70905714D01*
X117983333Y-70953333D01*
X118030952Y-71048571D01*
X118030952Y-71572380D01*
X118364285Y-70905714D02*
X118745238Y-70905714D01*
X118507142Y-70572380D02*
X118507142Y-71429523D01*
X118554761Y-71524761D01*
X118650000Y-71572380D01*
X118745238Y-71572380D01*
X119078571Y-71572380D02*
X119078571Y-70905714D01*
X119078571Y-71096190D02*
X119126190Y-71000952D01*
X119173809Y-70953333D01*
X119269047Y-70905714D01*
X119364285Y-70905714D01*
X119840476Y-71572380D02*
X119745238Y-71524761D01*
X119697619Y-71477142D01*
X119650000Y-71381904D01*
X119650000Y-71096190D01*
X119697619Y-71000952D01*
X119745238Y-70953333D01*
X119840476Y-70905714D01*
X119983333Y-70905714D01*
X120078571Y-70953333D01*
X120126190Y-71000952D01*
X120173809Y-71096190D01*
X120173809Y-71381904D01*
X120126190Y-71477142D01*
X120078571Y-71524761D01*
X119983333Y-71572380D01*
X119840476Y-71572380D01*
X120745238Y-71572380D02*
X120650000Y-71524761D01*
X120602380Y-71429523D01*
X120602380Y-70572380D01*
X121126190Y-71572380D02*
X121126190Y-70572380D01*
X121221428Y-71191428D02*
X121507142Y-71572380D01*
X121507142Y-70905714D02*
X121126190Y-71286666D01*
X122364285Y-71572380D02*
X122364285Y-71048571D01*
X122316666Y-70953333D01*
X122221428Y-70905714D01*
X122030952Y-70905714D01*
X121935714Y-70953333D01*
X122364285Y-71524761D02*
X122269047Y-71572380D01*
X122030952Y-71572380D01*
X121935714Y-71524761D01*
X121888095Y-71429523D01*
X121888095Y-71334285D01*
X121935714Y-71239047D01*
X122030952Y-71191428D01*
X122269047Y-71191428D01*
X122364285Y-71143809D01*
X123745238Y-71572380D02*
X123650000Y-71524761D01*
X123602380Y-71429523D01*
X123602380Y-70572380D01*
X124507142Y-71524761D02*
X124411904Y-71572380D01*
X124221428Y-71572380D01*
X124126190Y-71524761D01*
X124078571Y-71429523D01*
X124078571Y-71048571D01*
X124126190Y-70953333D01*
X124221428Y-70905714D01*
X124411904Y-70905714D01*
X124507142Y-70953333D01*
X124554761Y-71048571D01*
X124554761Y-71143809D01*
X124078571Y-71239047D01*
X125411904Y-71572380D02*
X125411904Y-70572380D01*
X125411904Y-71524761D02*
X125316666Y-71572380D01*
X125126190Y-71572380D01*
X125030952Y-71524761D01*
X124983333Y-71477142D01*
X124935714Y-71381904D01*
X124935714Y-71096190D01*
X124983333Y-71000952D01*
X125030952Y-70953333D01*
X125126190Y-70905714D01*
X125316666Y-70905714D01*
X125411904Y-70953333D01*
%TO.C,J1*%
X148756666Y-102338095D02*
X148756666Y-101861904D01*
X149042380Y-102433333D02*
X148042380Y-102100000D01*
X149042380Y-101766666D01*
X148947142Y-100861904D02*
X148994761Y-100909523D01*
X149042380Y-101052380D01*
X149042380Y-101147619D01*
X148994761Y-101290476D01*
X148899523Y-101385714D01*
X148804285Y-101433333D01*
X148613809Y-101480952D01*
X148470952Y-101480952D01*
X148280476Y-101433333D01*
X148185238Y-101385714D01*
X148090000Y-101290476D01*
X148042380Y-101147619D01*
X148042380Y-101052380D01*
X148090000Y-100909523D01*
X148137619Y-100861904D01*
%TO.C,J2*%
X129437142Y-70905714D02*
X129437142Y-71905714D01*
X129437142Y-70953333D02*
X129532380Y-70905714D01*
X129722857Y-70905714D01*
X129818095Y-70953333D01*
X129865714Y-71000952D01*
X129913333Y-71096190D01*
X129913333Y-71381904D01*
X129865714Y-71477142D01*
X129818095Y-71524761D01*
X129722857Y-71572380D01*
X129532380Y-71572380D01*
X129437142Y-71524761D01*
X130484761Y-71572380D02*
X130389523Y-71524761D01*
X130341904Y-71477142D01*
X130294285Y-71381904D01*
X130294285Y-71096190D01*
X130341904Y-71000952D01*
X130389523Y-70953333D01*
X130484761Y-70905714D01*
X130627619Y-70905714D01*
X130722857Y-70953333D01*
X130770476Y-71000952D01*
X130818095Y-71096190D01*
X130818095Y-71381904D01*
X130770476Y-71477142D01*
X130722857Y-71524761D01*
X130627619Y-71572380D01*
X130484761Y-71572380D01*
X131199047Y-71524761D02*
X131294285Y-71572380D01*
X131484761Y-71572380D01*
X131580000Y-71524761D01*
X131627619Y-71429523D01*
X131627619Y-71381904D01*
X131580000Y-71286666D01*
X131484761Y-71239047D01*
X131341904Y-71239047D01*
X131246666Y-71191428D01*
X131199047Y-71096190D01*
X131199047Y-71048571D01*
X131246666Y-70953333D01*
X131341904Y-70905714D01*
X131484761Y-70905714D01*
X131580000Y-70953333D01*
X132056190Y-71572380D02*
X132056190Y-70905714D01*
X132056190Y-70572380D02*
X132008571Y-70620000D01*
X132056190Y-70667619D01*
X132103809Y-70620000D01*
X132056190Y-70572380D01*
X132056190Y-70667619D01*
X132389523Y-70905714D02*
X132770476Y-70905714D01*
X132532380Y-70572380D02*
X132532380Y-71429523D01*
X132580000Y-71524761D01*
X132675238Y-71572380D01*
X132770476Y-71572380D01*
X133103809Y-71572380D02*
X133103809Y-70905714D01*
X133103809Y-70572380D02*
X133056190Y-70620000D01*
X133103809Y-70667619D01*
X133151428Y-70620000D01*
X133103809Y-70572380D01*
X133103809Y-70667619D01*
X133484761Y-70905714D02*
X133722857Y-71572380D01*
X133960952Y-70905714D01*
X134722857Y-71524761D02*
X134627619Y-71572380D01*
X134437142Y-71572380D01*
X134341904Y-71524761D01*
X134294285Y-71429523D01*
X134294285Y-71048571D01*
X134341904Y-70953333D01*
X134437142Y-70905714D01*
X134627619Y-70905714D01*
X134722857Y-70953333D01*
X134770476Y-71048571D01*
X134770476Y-71143809D01*
X134294285Y-71239047D01*
%TO.C,J3*%
X133890000Y-88034761D02*
X133794761Y-88082380D01*
X133604285Y-88082380D01*
X133509047Y-88034761D01*
X133461428Y-87987142D01*
X133413809Y-87891904D01*
X133413809Y-87606190D01*
X133461428Y-87510952D01*
X133509047Y-87463333D01*
X133604285Y-87415714D01*
X133794761Y-87415714D01*
X133890000Y-87463333D01*
X134747142Y-87415714D02*
X134747142Y-88082380D01*
X134318571Y-87415714D02*
X134318571Y-87939523D01*
X134366190Y-88034761D01*
X134461428Y-88082380D01*
X134604285Y-88082380D01*
X134699523Y-88034761D01*
X134747142Y-87987142D01*
X135223333Y-88082380D02*
X135223333Y-87415714D01*
X135223333Y-87606190D02*
X135270952Y-87510952D01*
X135318571Y-87463333D01*
X135413809Y-87415714D01*
X135509047Y-87415714D01*
X135842380Y-88082380D02*
X135842380Y-87415714D01*
X135842380Y-87606190D02*
X135890000Y-87510952D01*
X135937619Y-87463333D01*
X136032857Y-87415714D01*
X136128095Y-87415714D01*
X136842380Y-88034761D02*
X136747142Y-88082380D01*
X136556666Y-88082380D01*
X136461428Y-88034761D01*
X136413809Y-87939523D01*
X136413809Y-87558571D01*
X136461428Y-87463333D01*
X136556666Y-87415714D01*
X136747142Y-87415714D01*
X136842380Y-87463333D01*
X136890000Y-87558571D01*
X136890000Y-87653809D01*
X136413809Y-87749047D01*
X137318571Y-87415714D02*
X137318571Y-88082380D01*
X137318571Y-87510952D02*
X137366190Y-87463333D01*
X137461428Y-87415714D01*
X137604285Y-87415714D01*
X137699523Y-87463333D01*
X137747142Y-87558571D01*
X137747142Y-88082380D01*
X138080476Y-87415714D02*
X138461428Y-87415714D01*
X138223333Y-87082380D02*
X138223333Y-87939523D01*
X138270952Y-88034761D01*
X138366190Y-88082380D01*
X138461428Y-88082380D01*
%TO.C,R1*%
X131564285Y-100052380D02*
X130992857Y-100052380D01*
X131278571Y-100052380D02*
X131278571Y-99052380D01*
X131183333Y-99195238D01*
X131088095Y-99290476D01*
X130992857Y-99338095D01*
X132564285Y-100052380D02*
X132230952Y-99576190D01*
X131992857Y-100052380D02*
X131992857Y-99052380D01*
X132373809Y-99052380D01*
X132469047Y-99100000D01*
X132516666Y-99147619D01*
X132564285Y-99242857D01*
X132564285Y-99385714D01*
X132516666Y-99480952D01*
X132469047Y-99528571D01*
X132373809Y-99576190D01*
X131992857Y-99576190D01*
X133707142Y-99004761D02*
X132850000Y-100290476D01*
X134516666Y-99052380D02*
X134040476Y-99052380D01*
X133992857Y-99528571D01*
X134040476Y-99480952D01*
X134135714Y-99433333D01*
X134373809Y-99433333D01*
X134469047Y-99480952D01*
X134516666Y-99528571D01*
X134564285Y-99623809D01*
X134564285Y-99861904D01*
X134516666Y-99957142D01*
X134469047Y-100004761D01*
X134373809Y-100052380D01*
X134135714Y-100052380D01*
X134040476Y-100004761D01*
X133992857Y-99957142D01*
X134897619Y-99052380D02*
X135135714Y-100052380D01*
X135326190Y-99338095D01*
X135516666Y-100052380D01*
X135754761Y-99052380D01*
X133183333Y-94432380D02*
X132850000Y-93956190D01*
X132611904Y-94432380D02*
X132611904Y-93432380D01*
X132992857Y-93432380D01*
X133088095Y-93480000D01*
X133135714Y-93527619D01*
X133183333Y-93622857D01*
X133183333Y-93765714D01*
X133135714Y-93860952D01*
X133088095Y-93908571D01*
X132992857Y-93956190D01*
X132611904Y-93956190D01*
X134135714Y-94432380D02*
X133564285Y-94432380D01*
X133850000Y-94432380D02*
X133850000Y-93432380D01*
X133754761Y-93575238D01*
X133659523Y-93670476D01*
X133564285Y-93718095D01*
%TO.C,U1*%
X115982380Y-92510952D02*
X115982380Y-92987142D01*
X114982380Y-92987142D01*
X115982380Y-92177619D02*
X114982380Y-92177619D01*
X115696666Y-91844285D01*
X114982380Y-91510952D01*
X115982380Y-91510952D01*
X114982380Y-91130000D02*
X114982380Y-90463333D01*
X115982380Y-90891904D01*
X115410952Y-89939523D02*
X115363333Y-90034761D01*
X115315714Y-90082380D01*
X115220476Y-90130000D01*
X115172857Y-90130000D01*
X115077619Y-90082380D01*
X115030000Y-90034761D01*
X114982380Y-89939523D01*
X114982380Y-89749047D01*
X115030000Y-89653809D01*
X115077619Y-89606190D01*
X115172857Y-89558571D01*
X115220476Y-89558571D01*
X115315714Y-89606190D01*
X115363333Y-89653809D01*
X115410952Y-89749047D01*
X115410952Y-89939523D01*
X115458571Y-90034761D01*
X115506190Y-90082380D01*
X115601428Y-90130000D01*
X115791904Y-90130000D01*
X115887142Y-90082380D01*
X115934761Y-90034761D01*
X115982380Y-89939523D01*
X115982380Y-89749047D01*
X115934761Y-89653809D01*
X115887142Y-89606190D01*
X115791904Y-89558571D01*
X115601428Y-89558571D01*
X115506190Y-89606190D01*
X115458571Y-89653809D01*
X115410952Y-89749047D01*
X114982380Y-88939523D02*
X114982380Y-88844285D01*
X115030000Y-88749047D01*
X115077619Y-88701428D01*
X115172857Y-88653809D01*
X115363333Y-88606190D01*
X115601428Y-88606190D01*
X115791904Y-88653809D01*
X115887142Y-88701428D01*
X115934761Y-88749047D01*
X115982380Y-88844285D01*
X115982380Y-88939523D01*
X115934761Y-89034761D01*
X115887142Y-89082380D01*
X115791904Y-89130000D01*
X115601428Y-89177619D01*
X115363333Y-89177619D01*
X115172857Y-89130000D01*
X115077619Y-89082380D01*
X115030000Y-89034761D01*
X114982380Y-88939523D01*
X114982380Y-87701428D02*
X114982380Y-88177619D01*
X115458571Y-88225238D01*
X115410952Y-88177619D01*
X115363333Y-88082380D01*
X115363333Y-87844285D01*
X115410952Y-87749047D01*
X115458571Y-87701428D01*
X115553809Y-87653809D01*
X115791904Y-87653809D01*
X115887142Y-87701428D01*
X115934761Y-87749047D01*
X115982380Y-87844285D01*
X115982380Y-88082380D01*
X115934761Y-88177619D01*
X115887142Y-88225238D01*
X116077619Y-87463333D02*
X116077619Y-86701428D01*
X114982380Y-86606190D02*
X114982380Y-86034761D01*
X115982380Y-86320476D02*
X114982380Y-86320476D01*
X114982380Y-85510952D02*
X114982380Y-85320476D01*
X115030000Y-85225238D01*
X115125238Y-85130000D01*
X115315714Y-85082380D01*
X115649047Y-85082380D01*
X115839523Y-85130000D01*
X115934761Y-85225238D01*
X115982380Y-85320476D01*
X115982380Y-85510952D01*
X115934761Y-85606190D01*
X115839523Y-85701428D01*
X115649047Y-85749047D01*
X115315714Y-85749047D01*
X115125238Y-85701428D01*
X115030000Y-85606190D01*
X114982380Y-85510952D01*
X115077619Y-84701428D02*
X115030000Y-84653809D01*
X114982380Y-84558571D01*
X114982380Y-84320476D01*
X115030000Y-84225238D01*
X115077619Y-84177619D01*
X115172857Y-84130000D01*
X115268095Y-84130000D01*
X115410952Y-84177619D01*
X115982380Y-84749047D01*
X115982380Y-84130000D01*
X115077619Y-83749047D02*
X115030000Y-83701428D01*
X114982380Y-83606190D01*
X114982380Y-83368095D01*
X115030000Y-83272857D01*
X115077619Y-83225238D01*
X115172857Y-83177619D01*
X115268095Y-83177619D01*
X115410952Y-83225238D01*
X115982380Y-83796666D01*
X115982380Y-83177619D01*
X114982380Y-82558571D02*
X114982380Y-82463333D01*
X115030000Y-82368095D01*
X115077619Y-82320476D01*
X115172857Y-82272857D01*
X115363333Y-82225238D01*
X115601428Y-82225238D01*
X115791904Y-82272857D01*
X115887142Y-82320476D01*
X115934761Y-82368095D01*
X115982380Y-82463333D01*
X115982380Y-82558571D01*
X115934761Y-82653809D01*
X115887142Y-82701428D01*
X115791904Y-82749047D01*
X115601428Y-82796666D01*
X115363333Y-82796666D01*
X115172857Y-82749047D01*
X115077619Y-82701428D01*
X115030000Y-82653809D01*
X114982380Y-82558571D01*
X108212380Y-88391904D02*
X109021904Y-88391904D01*
X109117142Y-88344285D01*
X109164761Y-88296666D01*
X109212380Y-88201428D01*
X109212380Y-88010952D01*
X109164761Y-87915714D01*
X109117142Y-87868095D01*
X109021904Y-87820476D01*
X108212380Y-87820476D01*
X109212380Y-86820476D02*
X109212380Y-87391904D01*
X109212380Y-87106190D02*
X108212380Y-87106190D01*
X108355238Y-87201428D01*
X108450476Y-87296666D01*
X108498095Y-87391904D01*
%TD*%
M02*
