%TF.GenerationSoftware,KiCad,Pcbnew,5.1.5-1.fc31*%
%TF.CreationDate,2020-04-07T08:34:53+02:00*%
%TF.ProjectId,zasilacz,7a617369-6c61-4637-9a2e-6b696361645f,rev?*%
%TF.SameCoordinates,Original*%
%TF.FileFunction,Copper,L2,Bot*%
%TF.FilePolarity,Positive*%
%FSLAX46Y46*%
G04 Gerber Fmt 4.6, Leading zero omitted, Abs format (unit mm)*
G04 Created by KiCad (PCBNEW 5.1.5-1.fc31) date 2020-04-07 08:34:53*
%MOMM*%
%LPD*%
G04 APERTURE LIST*
%TA.AperFunction,ComponentPad*%
%ADD10R,2.000000X1.905000*%
%TD*%
%TA.AperFunction,ComponentPad*%
%ADD11O,2.000000X1.905000*%
%TD*%
%TA.AperFunction,ComponentPad*%
%ADD12R,2.000000X2.000000*%
%TD*%
%TA.AperFunction,ComponentPad*%
%ADD13C,2.000000*%
%TD*%
%TA.AperFunction,ComponentPad*%
%ADD14R,1.600000X1.600000*%
%TD*%
%TA.AperFunction,ComponentPad*%
%ADD15C,1.600000*%
%TD*%
%TA.AperFunction,ComponentPad*%
%ADD16C,1.400000*%
%TD*%
%TA.AperFunction,ComponentPad*%
%ADD17C,2.800000*%
%TD*%
%TA.AperFunction,ComponentPad*%
%ADD18R,2.800000X2.800000*%
%TD*%
%TA.AperFunction,ComponentPad*%
%ADD19R,1.524000X1.524000*%
%TD*%
%TA.AperFunction,ComponentPad*%
%ADD20C,1.524000*%
%TD*%
%TA.AperFunction,ComponentPad*%
%ADD21C,1.824000*%
%TD*%
%TA.AperFunction,ComponentPad*%
%ADD22R,1.824000X1.824000*%
%TD*%
%TA.AperFunction,ComponentPad*%
%ADD23C,2.400000*%
%TD*%
%TA.AperFunction,ComponentPad*%
%ADD24O,2.400000X2.400000*%
%TD*%
%TA.AperFunction,Conductor*%
%ADD25C,1.500000*%
%TD*%
%TA.AperFunction,Conductor*%
%ADD26C,0.254000*%
%TD*%
G04 APERTURE END LIST*
D10*
%TO.P,U1,1*%
%TO.N,GND*%
X152400000Y-85090000D03*
D11*
%TO.P,U1,2*%
%TO.N,Net-(J3-Pad2)*%
X152400000Y-87630000D03*
%TO.P,U1,3*%
%TO.N,Net-(C2-Pad2)*%
X152400000Y-90170000D03*
%TD*%
D12*
%TO.P,C1,1*%
%TO.N,GND*%
X115570000Y-73660000D03*
D13*
%TO.P,C1,2*%
%TO.N,Net-(C1-Pad2)*%
X115570000Y-78660000D03*
%TD*%
D14*
%TO.P,C2,1*%
%TO.N,GND*%
X146050000Y-77470000D03*
D15*
%TO.P,C2,2*%
%TO.N,Net-(C2-Pad2)*%
X143550000Y-77470000D03*
%TD*%
D16*
%TO.P,C3,1*%
%TO.N,GND*%
X130810000Y-76200000D03*
%TO.P,C3,2*%
%TO.N,Net-(C2-Pad2)*%
X133310000Y-76200000D03*
%TD*%
D17*
%TO.P,D1,4*%
%TO.N,Net-(C1-Pad2)*%
X144780000Y-105410000D03*
%TO.P,D1,3*%
%TO.N,Net-(D1-Pad3)*%
X139700000Y-105410000D03*
%TO.P,D1,2*%
%TO.N,Net-(D1-Pad2)*%
X134620000Y-105410000D03*
D18*
%TO.P,D1,1*%
%TO.N,GND*%
X129540000Y-105410000D03*
%TD*%
D19*
%TO.P,D2,1*%
%TO.N,GND*%
X147320000Y-67310000D03*
D20*
%TO.P,D2,2*%
%TO.N,Net-(C2-Pad2)*%
X142240000Y-67310000D03*
%TD*%
D21*
%TO.P,J1,2*%
%TO.N,Net-(D1-Pad2)*%
X113030000Y-102870000D03*
D22*
%TO.P,J1,1*%
%TO.N,Net-(D1-Pad3)*%
X113030000Y-97790000D03*
%TD*%
%TO.P,J2,1*%
%TO.N,GND*%
X130810000Y-67310000D03*
D21*
%TO.P,J2,2*%
%TO.N,Net-(C2-Pad2)*%
X135890000Y-67310000D03*
%TD*%
D22*
%TO.P,J3,1*%
%TO.N,Net-(C1-Pad2)*%
X134620000Y-83820000D03*
D21*
%TO.P,J3,2*%
%TO.N,Net-(J3-Pad2)*%
X139700000Y-83820000D03*
%TD*%
D23*
%TO.P,R1,1*%
%TO.N,Net-(J3-Pad2)*%
X147320000Y-93980000D03*
D24*
%TO.P,R1,2*%
%TO.N,Net-(C1-Pad2)*%
X119380000Y-93980000D03*
%TD*%
D25*
%TO.N,GND*%
X129540000Y-105410000D02*
X131916600Y-107786600D01*
X131916600Y-107786600D02*
X145727400Y-107786600D01*
X145727400Y-107786600D02*
X156067300Y-97446700D01*
X156067300Y-97446700D02*
X156067300Y-87531000D01*
X156067300Y-87531000D02*
X152400000Y-83863700D01*
X146050000Y-76320000D02*
X152400000Y-82670000D01*
X152400000Y-82670000D02*
X152400000Y-83863700D01*
X146050000Y-76320000D02*
X146050000Y-75170000D01*
X146050000Y-77470000D02*
X146050000Y-76320000D01*
X146189000Y-67310000D02*
X146189000Y-75031000D01*
X146189000Y-75031000D02*
X146050000Y-75170000D01*
X146189000Y-67310000D02*
X145058000Y-67310000D01*
X147320000Y-67310000D02*
X146189000Y-67310000D01*
X130810000Y-67310000D02*
X133222000Y-67310000D01*
X133222000Y-67310000D02*
X135088100Y-65443900D01*
X135088100Y-65443900D02*
X143191900Y-65443900D01*
X143191900Y-65443900D02*
X145058000Y-67310000D01*
X130810000Y-73660000D02*
X130810000Y-67310000D01*
X152400000Y-85090000D02*
X152400000Y-83863700D01*
X130810000Y-73660000D02*
X130810000Y-76200000D01*
X130810000Y-73660000D02*
X118070000Y-73660000D01*
X115570000Y-73660000D02*
X118070000Y-73660000D01*
%TO.N,Net-(C1-Pad2)*%
X132724800Y-87623800D02*
X144780000Y-99679000D01*
X144780000Y-99679000D02*
X144780000Y-105410000D01*
X134620000Y-85026000D02*
X132724800Y-86921200D01*
X132724800Y-86921200D02*
X132724800Y-87623800D01*
X132724800Y-87623800D02*
X123036200Y-87623800D01*
X123036200Y-87623800D02*
X119380000Y-91280000D01*
X134620000Y-83820000D02*
X134620000Y-85026000D01*
X119380000Y-93980000D02*
X119380000Y-91280000D01*
X119380000Y-91280000D02*
X115570000Y-87470000D01*
X115570000Y-87470000D02*
X115570000Y-78660000D01*
%TO.N,Net-(C2-Pad2)*%
X135890000Y-73620000D02*
X133310000Y-76200000D01*
X135890000Y-67310000D02*
X135890000Y-73620000D01*
X135890000Y-73620000D02*
X139700000Y-73620000D01*
X139700000Y-73620000D02*
X143550000Y-77470000D01*
X135890000Y-67310000D02*
X142240000Y-67310000D01*
X152400000Y-90170000D02*
X149900000Y-90170000D01*
X149900000Y-90170000D02*
X143550000Y-83820000D01*
X143550000Y-83820000D02*
X143550000Y-77470000D01*
%TO.N,Net-(D1-Pad3)*%
X113030000Y-97790000D02*
X132080000Y-97790000D01*
X132080000Y-97790000D02*
X139700000Y-105410000D01*
%TO.N,Net-(D1-Pad2)*%
X113030000Y-102870000D02*
X132080000Y-102870000D01*
X132080000Y-102870000D02*
X134620000Y-105410000D01*
%TO.N,Net-(J3-Pad2)*%
X147320000Y-92075000D02*
X147320000Y-93980000D01*
X139700000Y-83820000D02*
X147320000Y-91440000D01*
X147320000Y-91440000D02*
X147320000Y-92075000D01*
X147320000Y-92075000D02*
X153260200Y-92075000D01*
X153260200Y-92075000D02*
X154367000Y-90968200D01*
X154367000Y-90968200D02*
X154367000Y-89329800D01*
X154367000Y-89329800D02*
X152667200Y-87630000D01*
X152667200Y-87630000D02*
X152400000Y-87630000D01*
%TD*%
D26*
%TO.N,GND*%
G36*
X154211566Y-64411172D02*
G01*
X153991169Y-64502463D01*
X153707002Y-64692337D01*
X153465337Y-64934002D01*
X153275463Y-65218169D01*
X153144675Y-65533919D01*
X153078000Y-65869117D01*
X153078000Y-66210883D01*
X153144675Y-66546081D01*
X153275463Y-66861831D01*
X153465337Y-67145998D01*
X153707002Y-67387663D01*
X153991169Y-67577537D01*
X154306919Y-67708325D01*
X154642117Y-67775000D01*
X154983883Y-67775000D01*
X155319081Y-67708325D01*
X155634831Y-67577537D01*
X155918998Y-67387663D01*
X156160663Y-67145998D01*
X156350537Y-66861831D01*
X156441828Y-66641434D01*
X156604901Y-66804507D01*
X156604900Y-109725494D01*
X156441828Y-109888566D01*
X156350537Y-109668169D01*
X156160663Y-109384002D01*
X155918998Y-109142337D01*
X155634831Y-108952463D01*
X155319081Y-108821675D01*
X154983883Y-108755000D01*
X154642117Y-108755000D01*
X154306919Y-108821675D01*
X153991169Y-108952463D01*
X153707002Y-109142337D01*
X153465337Y-109384002D01*
X153275463Y-109668169D01*
X153144675Y-109983919D01*
X153078000Y-110319117D01*
X153078000Y-110660883D01*
X153144675Y-110996081D01*
X153275463Y-111311831D01*
X153465337Y-111595998D01*
X153707002Y-111837663D01*
X153991169Y-112027537D01*
X154211566Y-112118828D01*
X154010394Y-112320000D01*
X111419606Y-112320000D01*
X111181237Y-112081631D01*
X111311831Y-112027537D01*
X111595998Y-111837663D01*
X111837663Y-111595998D01*
X112027537Y-111311831D01*
X112158325Y-110996081D01*
X112225000Y-110660883D01*
X112225000Y-110319117D01*
X112158325Y-109983919D01*
X112027537Y-109668169D01*
X111837663Y-109384002D01*
X111595998Y-109142337D01*
X111311831Y-108952463D01*
X110996081Y-108821675D01*
X110660883Y-108755000D01*
X110319117Y-108755000D01*
X109983919Y-108821675D01*
X109668169Y-108952463D01*
X109384002Y-109142337D01*
X109142337Y-109384002D01*
X108952463Y-109668169D01*
X108898369Y-109798763D01*
X108660000Y-109560394D01*
X108660000Y-106810000D01*
X127501928Y-106810000D01*
X127514188Y-106934482D01*
X127550498Y-107054180D01*
X127609463Y-107164494D01*
X127688815Y-107261185D01*
X127785506Y-107340537D01*
X127895820Y-107399502D01*
X128015518Y-107435812D01*
X128140000Y-107448072D01*
X129254250Y-107445000D01*
X129413000Y-107286250D01*
X129413000Y-105537000D01*
X129667000Y-105537000D01*
X129667000Y-107286250D01*
X129825750Y-107445000D01*
X130940000Y-107448072D01*
X131064482Y-107435812D01*
X131184180Y-107399502D01*
X131294494Y-107340537D01*
X131391185Y-107261185D01*
X131470537Y-107164494D01*
X131529502Y-107054180D01*
X131565812Y-106934482D01*
X131578072Y-106810000D01*
X131575000Y-105695750D01*
X131416250Y-105537000D01*
X129667000Y-105537000D01*
X129413000Y-105537000D01*
X127663750Y-105537000D01*
X127505000Y-105695750D01*
X127501928Y-106810000D01*
X108660000Y-106810000D01*
X108660000Y-102717634D01*
X111483000Y-102717634D01*
X111483000Y-103022366D01*
X111542451Y-103321243D01*
X111659067Y-103602779D01*
X111828367Y-103856155D01*
X112043845Y-104071633D01*
X112297221Y-104240933D01*
X112578757Y-104357549D01*
X112877634Y-104417000D01*
X113182366Y-104417000D01*
X113481243Y-104357549D01*
X113728818Y-104255000D01*
X127502603Y-104255000D01*
X127505000Y-105124250D01*
X127663750Y-105283000D01*
X129413000Y-105283000D01*
X129413000Y-105263000D01*
X129667000Y-105263000D01*
X129667000Y-105283000D01*
X131416250Y-105283000D01*
X131575000Y-105124250D01*
X131577201Y-104325886D01*
X132585000Y-105333685D01*
X132585000Y-105610430D01*
X132663204Y-106003587D01*
X132816607Y-106373934D01*
X133039313Y-106707237D01*
X133322763Y-106990687D01*
X133656066Y-107213393D01*
X134026413Y-107366796D01*
X134419570Y-107445000D01*
X134820430Y-107445000D01*
X135213587Y-107366796D01*
X135583934Y-107213393D01*
X135917237Y-106990687D01*
X136200687Y-106707237D01*
X136423393Y-106373934D01*
X136576796Y-106003587D01*
X136655000Y-105610430D01*
X136655000Y-105209570D01*
X136576796Y-104816413D01*
X136423393Y-104446066D01*
X136200687Y-104112763D01*
X135917237Y-103829313D01*
X135583934Y-103606607D01*
X135213587Y-103453204D01*
X134820430Y-103375000D01*
X134543685Y-103375000D01*
X133107454Y-101938769D01*
X133064081Y-101885919D01*
X132853188Y-101712843D01*
X132612581Y-101584236D01*
X132351507Y-101505040D01*
X132148037Y-101485000D01*
X132148029Y-101485000D01*
X132080000Y-101478300D01*
X132011971Y-101485000D01*
X113728818Y-101485000D01*
X113481243Y-101382451D01*
X113182366Y-101323000D01*
X112877634Y-101323000D01*
X112578757Y-101382451D01*
X112297221Y-101499067D01*
X112043845Y-101668367D01*
X111828367Y-101883845D01*
X111659067Y-102137221D01*
X111542451Y-102418757D01*
X111483000Y-102717634D01*
X108660000Y-102717634D01*
X108660000Y-96878000D01*
X111479928Y-96878000D01*
X111479928Y-98702000D01*
X111492188Y-98826482D01*
X111528498Y-98946180D01*
X111587463Y-99056494D01*
X111666815Y-99153185D01*
X111763506Y-99232537D01*
X111873820Y-99291502D01*
X111993518Y-99327812D01*
X112118000Y-99340072D01*
X113942000Y-99340072D01*
X114066482Y-99327812D01*
X114186180Y-99291502D01*
X114296494Y-99232537D01*
X114366603Y-99175000D01*
X131506315Y-99175000D01*
X137665000Y-105333686D01*
X137665000Y-105610430D01*
X137743204Y-106003587D01*
X137896607Y-106373934D01*
X138119313Y-106707237D01*
X138402763Y-106990687D01*
X138736066Y-107213393D01*
X139106413Y-107366796D01*
X139499570Y-107445000D01*
X139900430Y-107445000D01*
X140293587Y-107366796D01*
X140663934Y-107213393D01*
X140997237Y-106990687D01*
X141280687Y-106707237D01*
X141503393Y-106373934D01*
X141656796Y-106003587D01*
X141735000Y-105610430D01*
X141735000Y-105209570D01*
X141656796Y-104816413D01*
X141503393Y-104446066D01*
X141280687Y-104112763D01*
X140997237Y-103829313D01*
X140663934Y-103606607D01*
X140293587Y-103453204D01*
X139900430Y-103375000D01*
X139623686Y-103375000D01*
X133107454Y-96858769D01*
X133064081Y-96805919D01*
X132853188Y-96632843D01*
X132612581Y-96504236D01*
X132351507Y-96425040D01*
X132148037Y-96405000D01*
X132148029Y-96405000D01*
X132080000Y-96398300D01*
X132011971Y-96405000D01*
X114366603Y-96405000D01*
X114296494Y-96347463D01*
X114186180Y-96288498D01*
X114066482Y-96252188D01*
X113942000Y-96239928D01*
X112118000Y-96239928D01*
X111993518Y-96252188D01*
X111873820Y-96288498D01*
X111763506Y-96347463D01*
X111666815Y-96426815D01*
X111587463Y-96523506D01*
X111528498Y-96633820D01*
X111492188Y-96753518D01*
X111479928Y-96878000D01*
X108660000Y-96878000D01*
X108660000Y-78498967D01*
X113935000Y-78498967D01*
X113935000Y-78821033D01*
X113997832Y-79136912D01*
X114121082Y-79434463D01*
X114185001Y-79530124D01*
X114185000Y-87401971D01*
X114178300Y-87470000D01*
X114185000Y-87538029D01*
X114185000Y-87538036D01*
X114205040Y-87741506D01*
X114284236Y-88002580D01*
X114393482Y-88206964D01*
X114412844Y-88243188D01*
X114540360Y-88398566D01*
X114585919Y-88454080D01*
X114638765Y-88497450D01*
X117995001Y-91853687D01*
X117995000Y-92769918D01*
X117954662Y-92810256D01*
X117753844Y-93110801D01*
X117615518Y-93444750D01*
X117545000Y-93799268D01*
X117545000Y-94160732D01*
X117615518Y-94515250D01*
X117753844Y-94849199D01*
X117954662Y-95149744D01*
X118210256Y-95405338D01*
X118510801Y-95606156D01*
X118844750Y-95744482D01*
X119199268Y-95815000D01*
X119560732Y-95815000D01*
X119915250Y-95744482D01*
X120249199Y-95606156D01*
X120549744Y-95405338D01*
X120805338Y-95149744D01*
X121006156Y-94849199D01*
X121144482Y-94515250D01*
X121215000Y-94160732D01*
X121215000Y-93799268D01*
X121144482Y-93444750D01*
X121006156Y-93110801D01*
X120805338Y-92810256D01*
X120765000Y-92769918D01*
X120765000Y-91853685D01*
X123609886Y-89008800D01*
X132151115Y-89008800D01*
X143395000Y-100252686D01*
X143395001Y-103917075D01*
X143199313Y-104112763D01*
X142976607Y-104446066D01*
X142823204Y-104816413D01*
X142745000Y-105209570D01*
X142745000Y-105610430D01*
X142823204Y-106003587D01*
X142976607Y-106373934D01*
X143199313Y-106707237D01*
X143482763Y-106990687D01*
X143816066Y-107213393D01*
X144186413Y-107366796D01*
X144579570Y-107445000D01*
X144980430Y-107445000D01*
X145373587Y-107366796D01*
X145743934Y-107213393D01*
X146077237Y-106990687D01*
X146360687Y-106707237D01*
X146583393Y-106373934D01*
X146736796Y-106003587D01*
X146815000Y-105610430D01*
X146815000Y-105209570D01*
X146736796Y-104816413D01*
X146583393Y-104446066D01*
X146360687Y-104112763D01*
X146165000Y-103917076D01*
X146165000Y-99747026D01*
X146171700Y-99678999D01*
X146165000Y-99610972D01*
X146165000Y-99610963D01*
X146144960Y-99407493D01*
X146065764Y-99146419D01*
X145937157Y-98905812D01*
X145872052Y-98826482D01*
X145807452Y-98747766D01*
X145807445Y-98747759D01*
X145764080Y-98694919D01*
X145711241Y-98651555D01*
X134332185Y-87272500D01*
X135551236Y-86053450D01*
X135604081Y-86010081D01*
X135777157Y-85799188D01*
X135905764Y-85558581D01*
X135984960Y-85297507D01*
X135997997Y-85165136D01*
X136062537Y-85086494D01*
X136121502Y-84976180D01*
X136157812Y-84856482D01*
X136170072Y-84732000D01*
X136170072Y-82908000D01*
X136157812Y-82783518D01*
X136121502Y-82663820D01*
X136062537Y-82553506D01*
X135983185Y-82456815D01*
X135886494Y-82377463D01*
X135776180Y-82318498D01*
X135656482Y-82282188D01*
X135532000Y-82269928D01*
X133708000Y-82269928D01*
X133583518Y-82282188D01*
X133463820Y-82318498D01*
X133353506Y-82377463D01*
X133256815Y-82456815D01*
X133177463Y-82553506D01*
X133118498Y-82663820D01*
X133082188Y-82783518D01*
X133069928Y-82908000D01*
X133069928Y-84617386D01*
X131793565Y-85893750D01*
X131740719Y-85937120D01*
X131697350Y-85989965D01*
X131697348Y-85989967D01*
X131624855Y-86078300D01*
X131567643Y-86148013D01*
X131519116Y-86238800D01*
X123104229Y-86238800D01*
X123036200Y-86232100D01*
X122968171Y-86238800D01*
X122968163Y-86238800D01*
X122764693Y-86258840D01*
X122503619Y-86338036D01*
X122263012Y-86466643D01*
X122104966Y-86596348D01*
X122104964Y-86596350D01*
X122052119Y-86639719D01*
X122008750Y-86692564D01*
X119380000Y-89321314D01*
X116955000Y-86896315D01*
X116955000Y-79530123D01*
X117018918Y-79434463D01*
X117142168Y-79136912D01*
X117205000Y-78821033D01*
X117205000Y-78498967D01*
X117142168Y-78183088D01*
X117018918Y-77885537D01*
X116839987Y-77617748D01*
X116612252Y-77390013D01*
X116344463Y-77211082D01*
X116127636Y-77121269D01*
X130068336Y-77121269D01*
X130127797Y-77355037D01*
X130366242Y-77465934D01*
X130621740Y-77528183D01*
X130884473Y-77539390D01*
X131144344Y-77499125D01*
X131391366Y-77408935D01*
X131492203Y-77355037D01*
X131551664Y-77121269D01*
X130810000Y-76379605D01*
X130068336Y-77121269D01*
X116127636Y-77121269D01*
X116046912Y-77087832D01*
X115731033Y-77025000D01*
X115408967Y-77025000D01*
X115093088Y-77087832D01*
X114795537Y-77211082D01*
X114527748Y-77390013D01*
X114300013Y-77617748D01*
X114121082Y-77885537D01*
X113997832Y-78183088D01*
X113935000Y-78498967D01*
X108660000Y-78498967D01*
X108660000Y-76274473D01*
X129470610Y-76274473D01*
X129510875Y-76534344D01*
X129601065Y-76781366D01*
X129654963Y-76882203D01*
X129888731Y-76941664D01*
X130630395Y-76200000D01*
X130989605Y-76200000D01*
X131731269Y-76941664D01*
X131965037Y-76882203D01*
X132029791Y-76742972D01*
X132152844Y-76973188D01*
X132325919Y-77184081D01*
X132536812Y-77357156D01*
X132777420Y-77485764D01*
X133038493Y-77564960D01*
X133310000Y-77591700D01*
X133581507Y-77564960D01*
X133842580Y-77485764D01*
X134083188Y-77357156D01*
X134241233Y-77227452D01*
X136463686Y-75005000D01*
X139126315Y-75005000D01*
X142165001Y-78043687D01*
X142165000Y-83751971D01*
X142158300Y-83820000D01*
X142165000Y-83888029D01*
X142165000Y-83888036D01*
X142185040Y-84091506D01*
X142264236Y-84352580D01*
X142348027Y-84509341D01*
X141173482Y-83334797D01*
X141070933Y-83087221D01*
X140901633Y-82833845D01*
X140686155Y-82618367D01*
X140432779Y-82449067D01*
X140151243Y-82332451D01*
X139852366Y-82273000D01*
X139547634Y-82273000D01*
X139248757Y-82332451D01*
X138967221Y-82449067D01*
X138713845Y-82618367D01*
X138498367Y-82833845D01*
X138329067Y-83087221D01*
X138212451Y-83368757D01*
X138153000Y-83667634D01*
X138153000Y-83972366D01*
X138212451Y-84271243D01*
X138329067Y-84552779D01*
X138498367Y-84806155D01*
X138713845Y-85021633D01*
X138967221Y-85190933D01*
X139214797Y-85293482D01*
X145934397Y-92013083D01*
X145928299Y-92075000D01*
X145935000Y-92143036D01*
X145935000Y-92769918D01*
X145894662Y-92810256D01*
X145693844Y-93110801D01*
X145555518Y-93444750D01*
X145485000Y-93799268D01*
X145485000Y-94160732D01*
X145555518Y-94515250D01*
X145693844Y-94849199D01*
X145894662Y-95149744D01*
X146150256Y-95405338D01*
X146450801Y-95606156D01*
X146784750Y-95744482D01*
X147139268Y-95815000D01*
X147500732Y-95815000D01*
X147855250Y-95744482D01*
X148189199Y-95606156D01*
X148489744Y-95405338D01*
X148745338Y-95149744D01*
X148946156Y-94849199D01*
X149084482Y-94515250D01*
X149155000Y-94160732D01*
X149155000Y-93799268D01*
X149087515Y-93460000D01*
X153192171Y-93460000D01*
X153260200Y-93466700D01*
X153328229Y-93460000D01*
X153328237Y-93460000D01*
X153531707Y-93439960D01*
X153792781Y-93360764D01*
X154033388Y-93232157D01*
X154244281Y-93059081D01*
X154287654Y-93006231D01*
X155298241Y-91995645D01*
X155351080Y-91952281D01*
X155394445Y-91899441D01*
X155394452Y-91899434D01*
X155524157Y-91741388D01*
X155652764Y-91500781D01*
X155731960Y-91239707D01*
X155758701Y-90968200D01*
X155752000Y-90900163D01*
X155752000Y-89397826D01*
X155758700Y-89329799D01*
X155752000Y-89261772D01*
X155752000Y-89261763D01*
X155731960Y-89058293D01*
X155652764Y-88797219D01*
X155524157Y-88556612D01*
X155398245Y-88403188D01*
X155394452Y-88398566D01*
X155394450Y-88398564D01*
X155351081Y-88345719D01*
X155298236Y-88302350D01*
X153813110Y-86817225D01*
X153773845Y-86743765D01*
X153670554Y-86617905D01*
X153754494Y-86573037D01*
X153851185Y-86493685D01*
X153930537Y-86396994D01*
X153989502Y-86286680D01*
X154025812Y-86166982D01*
X154038072Y-86042500D01*
X154035000Y-85375750D01*
X153876250Y-85217000D01*
X152527000Y-85217000D01*
X152527000Y-85237000D01*
X152273000Y-85237000D01*
X152273000Y-85217000D01*
X150923750Y-85217000D01*
X150765000Y-85375750D01*
X150761928Y-86042500D01*
X150774188Y-86166982D01*
X150810498Y-86286680D01*
X150869463Y-86396994D01*
X150948815Y-86493685D01*
X151045506Y-86573037D01*
X151129446Y-86617905D01*
X151026155Y-86743765D01*
X150878745Y-87019551D01*
X150787970Y-87318796D01*
X150757319Y-87630000D01*
X150787970Y-87941204D01*
X150878745Y-88240449D01*
X151026155Y-88516235D01*
X151224537Y-88757963D01*
X151257482Y-88785000D01*
X150473686Y-88785000D01*
X145826186Y-84137500D01*
X150761928Y-84137500D01*
X150765000Y-84804250D01*
X150923750Y-84963000D01*
X152273000Y-84963000D01*
X152273000Y-83661250D01*
X152527000Y-83661250D01*
X152527000Y-84963000D01*
X153876250Y-84963000D01*
X154035000Y-84804250D01*
X154038072Y-84137500D01*
X154025812Y-84013018D01*
X153989502Y-83893320D01*
X153930537Y-83783006D01*
X153851185Y-83686315D01*
X153754494Y-83606963D01*
X153644180Y-83547998D01*
X153524482Y-83511688D01*
X153400000Y-83499428D01*
X152685750Y-83502500D01*
X152527000Y-83661250D01*
X152273000Y-83661250D01*
X152114250Y-83502500D01*
X151400000Y-83499428D01*
X151275518Y-83511688D01*
X151155820Y-83547998D01*
X151045506Y-83606963D01*
X150948815Y-83686315D01*
X150869463Y-83783006D01*
X150810498Y-83893320D01*
X150774188Y-84013018D01*
X150761928Y-84137500D01*
X145826186Y-84137500D01*
X144935000Y-83246315D01*
X144935000Y-78821647D01*
X145005820Y-78859502D01*
X145125518Y-78895812D01*
X145250000Y-78908072D01*
X145764250Y-78905000D01*
X145923000Y-78746250D01*
X145923000Y-77597000D01*
X146177000Y-77597000D01*
X146177000Y-78746250D01*
X146335750Y-78905000D01*
X146850000Y-78908072D01*
X146974482Y-78895812D01*
X147094180Y-78859502D01*
X147204494Y-78800537D01*
X147301185Y-78721185D01*
X147380537Y-78624494D01*
X147439502Y-78514180D01*
X147475812Y-78394482D01*
X147488072Y-78270000D01*
X147485000Y-77755750D01*
X147326250Y-77597000D01*
X146177000Y-77597000D01*
X145923000Y-77597000D01*
X145903000Y-77597000D01*
X145903000Y-77343000D01*
X145923000Y-77343000D01*
X145923000Y-76193750D01*
X146177000Y-76193750D01*
X146177000Y-77343000D01*
X147326250Y-77343000D01*
X147485000Y-77184250D01*
X147488072Y-76670000D01*
X147475812Y-76545518D01*
X147439502Y-76425820D01*
X147380537Y-76315506D01*
X147301185Y-76218815D01*
X147204494Y-76139463D01*
X147094180Y-76080498D01*
X146974482Y-76044188D01*
X146850000Y-76031928D01*
X146335750Y-76035000D01*
X146177000Y-76193750D01*
X145923000Y-76193750D01*
X145764250Y-76035000D01*
X145250000Y-76031928D01*
X145125518Y-76044188D01*
X145005820Y-76080498D01*
X144895506Y-76139463D01*
X144798815Y-76218815D01*
X144719463Y-76315506D01*
X144660498Y-76425820D01*
X144631339Y-76521943D01*
X144464759Y-76355363D01*
X144251663Y-76212977D01*
X140727454Y-72688769D01*
X140684081Y-72635919D01*
X140473188Y-72462843D01*
X140232581Y-72334236D01*
X139971507Y-72255040D01*
X139768037Y-72235000D01*
X139768029Y-72235000D01*
X139700000Y-72228300D01*
X139631971Y-72235000D01*
X137275000Y-72235000D01*
X137275000Y-68695000D01*
X142042080Y-68695000D01*
X142102408Y-68707000D01*
X142377592Y-68707000D01*
X142647490Y-68653314D01*
X142901727Y-68548005D01*
X143130535Y-68395120D01*
X143325120Y-68200535D01*
X143411004Y-68072000D01*
X145919928Y-68072000D01*
X145932188Y-68196482D01*
X145968498Y-68316180D01*
X146027463Y-68426494D01*
X146106815Y-68523185D01*
X146203506Y-68602537D01*
X146313820Y-68661502D01*
X146433518Y-68697812D01*
X146558000Y-68710072D01*
X147034250Y-68707000D01*
X147193000Y-68548250D01*
X147193000Y-67437000D01*
X147447000Y-67437000D01*
X147447000Y-68548250D01*
X147605750Y-68707000D01*
X148082000Y-68710072D01*
X148206482Y-68697812D01*
X148326180Y-68661502D01*
X148436494Y-68602537D01*
X148533185Y-68523185D01*
X148612537Y-68426494D01*
X148671502Y-68316180D01*
X148707812Y-68196482D01*
X148720072Y-68072000D01*
X148717000Y-67595750D01*
X148558250Y-67437000D01*
X147447000Y-67437000D01*
X147193000Y-67437000D01*
X146081750Y-67437000D01*
X145923000Y-67595750D01*
X145919928Y-68072000D01*
X143411004Y-68072000D01*
X143478005Y-67971727D01*
X143583314Y-67717490D01*
X143637000Y-67447592D01*
X143637000Y-67172408D01*
X143583314Y-66902510D01*
X143478005Y-66648273D01*
X143411005Y-66548000D01*
X145919928Y-66548000D01*
X145923000Y-67024250D01*
X146081750Y-67183000D01*
X147193000Y-67183000D01*
X147193000Y-66071750D01*
X147447000Y-66071750D01*
X147447000Y-67183000D01*
X148558250Y-67183000D01*
X148717000Y-67024250D01*
X148720072Y-66548000D01*
X148707812Y-66423518D01*
X148671502Y-66303820D01*
X148612537Y-66193506D01*
X148533185Y-66096815D01*
X148436494Y-66017463D01*
X148326180Y-65958498D01*
X148206482Y-65922188D01*
X148082000Y-65909928D01*
X147605750Y-65913000D01*
X147447000Y-66071750D01*
X147193000Y-66071750D01*
X147034250Y-65913000D01*
X146558000Y-65909928D01*
X146433518Y-65922188D01*
X146313820Y-65958498D01*
X146203506Y-66017463D01*
X146106815Y-66096815D01*
X146027463Y-66193506D01*
X145968498Y-66303820D01*
X145932188Y-66423518D01*
X145919928Y-66548000D01*
X143411005Y-66548000D01*
X143325120Y-66419465D01*
X143130535Y-66224880D01*
X142901727Y-66071995D01*
X142647490Y-65966686D01*
X142377592Y-65913000D01*
X142102408Y-65913000D01*
X142042080Y-65925000D01*
X136588818Y-65925000D01*
X136341243Y-65822451D01*
X136042366Y-65763000D01*
X135737634Y-65763000D01*
X135438757Y-65822451D01*
X135157221Y-65939067D01*
X134903845Y-66108367D01*
X134688367Y-66323845D01*
X134519067Y-66577221D01*
X134402451Y-66858757D01*
X134343000Y-67157634D01*
X134343000Y-67462366D01*
X134402451Y-67761243D01*
X134505000Y-68008819D01*
X134505001Y-73046313D01*
X132282548Y-75268767D01*
X132152844Y-75426812D01*
X132031670Y-75653513D01*
X132018935Y-75618634D01*
X131965037Y-75517797D01*
X131731269Y-75458336D01*
X130989605Y-76200000D01*
X130630395Y-76200000D01*
X129888731Y-75458336D01*
X129654963Y-75517797D01*
X129544066Y-75756242D01*
X129481817Y-76011740D01*
X129470610Y-76274473D01*
X108660000Y-76274473D01*
X108660000Y-74660000D01*
X113931928Y-74660000D01*
X113944188Y-74784482D01*
X113980498Y-74904180D01*
X114039463Y-75014494D01*
X114118815Y-75111185D01*
X114215506Y-75190537D01*
X114325820Y-75249502D01*
X114445518Y-75285812D01*
X114570000Y-75298072D01*
X115284250Y-75295000D01*
X115443000Y-75136250D01*
X115443000Y-73787000D01*
X115697000Y-73787000D01*
X115697000Y-75136250D01*
X115855750Y-75295000D01*
X116570000Y-75298072D01*
X116694482Y-75285812D01*
X116717824Y-75278731D01*
X130068336Y-75278731D01*
X130810000Y-76020395D01*
X131551664Y-75278731D01*
X131492203Y-75044963D01*
X131253758Y-74934066D01*
X130998260Y-74871817D01*
X130735527Y-74860610D01*
X130475656Y-74900875D01*
X130228634Y-74991065D01*
X130127797Y-75044963D01*
X130068336Y-75278731D01*
X116717824Y-75278731D01*
X116814180Y-75249502D01*
X116924494Y-75190537D01*
X117021185Y-75111185D01*
X117100537Y-75014494D01*
X117159502Y-74904180D01*
X117195812Y-74784482D01*
X117208072Y-74660000D01*
X117205000Y-73945750D01*
X117046250Y-73787000D01*
X115697000Y-73787000D01*
X115443000Y-73787000D01*
X114093750Y-73787000D01*
X113935000Y-73945750D01*
X113931928Y-74660000D01*
X108660000Y-74660000D01*
X108660000Y-72660000D01*
X113931928Y-72660000D01*
X113935000Y-73374250D01*
X114093750Y-73533000D01*
X115443000Y-73533000D01*
X115443000Y-72183750D01*
X115697000Y-72183750D01*
X115697000Y-73533000D01*
X117046250Y-73533000D01*
X117205000Y-73374250D01*
X117208072Y-72660000D01*
X117195812Y-72535518D01*
X117159502Y-72415820D01*
X117100537Y-72305506D01*
X117021185Y-72208815D01*
X116924494Y-72129463D01*
X116814180Y-72070498D01*
X116694482Y-72034188D01*
X116570000Y-72021928D01*
X115855750Y-72025000D01*
X115697000Y-72183750D01*
X115443000Y-72183750D01*
X115284250Y-72025000D01*
X114570000Y-72021928D01*
X114445518Y-72034188D01*
X114325820Y-72070498D01*
X114215506Y-72129463D01*
X114118815Y-72208815D01*
X114039463Y-72305506D01*
X113980498Y-72415820D01*
X113944188Y-72535518D01*
X113931928Y-72660000D01*
X108660000Y-72660000D01*
X108660000Y-68222000D01*
X129259928Y-68222000D01*
X129272188Y-68346482D01*
X129308498Y-68466180D01*
X129367463Y-68576494D01*
X129446815Y-68673185D01*
X129543506Y-68752537D01*
X129653820Y-68811502D01*
X129773518Y-68847812D01*
X129898000Y-68860072D01*
X130524250Y-68857000D01*
X130683000Y-68698250D01*
X130683000Y-67437000D01*
X130937000Y-67437000D01*
X130937000Y-68698250D01*
X131095750Y-68857000D01*
X131722000Y-68860072D01*
X131846482Y-68847812D01*
X131966180Y-68811502D01*
X132076494Y-68752537D01*
X132173185Y-68673185D01*
X132252537Y-68576494D01*
X132311502Y-68466180D01*
X132347812Y-68346482D01*
X132360072Y-68222000D01*
X132357000Y-67595750D01*
X132198250Y-67437000D01*
X130937000Y-67437000D01*
X130683000Y-67437000D01*
X129421750Y-67437000D01*
X129263000Y-67595750D01*
X129259928Y-68222000D01*
X108660000Y-68222000D01*
X108660000Y-66969606D01*
X108898369Y-66731237D01*
X108952463Y-66861831D01*
X109142337Y-67145998D01*
X109384002Y-67387663D01*
X109668169Y-67577537D01*
X109983919Y-67708325D01*
X110319117Y-67775000D01*
X110660883Y-67775000D01*
X110996081Y-67708325D01*
X111311831Y-67577537D01*
X111595998Y-67387663D01*
X111837663Y-67145998D01*
X112027537Y-66861831D01*
X112158325Y-66546081D01*
X112187780Y-66398000D01*
X129259928Y-66398000D01*
X129263000Y-67024250D01*
X129421750Y-67183000D01*
X130683000Y-67183000D01*
X130683000Y-65921750D01*
X130937000Y-65921750D01*
X130937000Y-67183000D01*
X132198250Y-67183000D01*
X132357000Y-67024250D01*
X132360072Y-66398000D01*
X132347812Y-66273518D01*
X132311502Y-66153820D01*
X132252537Y-66043506D01*
X132173185Y-65946815D01*
X132076494Y-65867463D01*
X131966180Y-65808498D01*
X131846482Y-65772188D01*
X131722000Y-65759928D01*
X131095750Y-65763000D01*
X130937000Y-65921750D01*
X130683000Y-65921750D01*
X130524250Y-65763000D01*
X129898000Y-65759928D01*
X129773518Y-65772188D01*
X129653820Y-65808498D01*
X129543506Y-65867463D01*
X129446815Y-65946815D01*
X129367463Y-66043506D01*
X129308498Y-66153820D01*
X129272188Y-66273518D01*
X129259928Y-66398000D01*
X112187780Y-66398000D01*
X112225000Y-66210883D01*
X112225000Y-65869117D01*
X112158325Y-65533919D01*
X112027537Y-65218169D01*
X111837663Y-64934002D01*
X111595998Y-64692337D01*
X111311831Y-64502463D01*
X111181237Y-64448369D01*
X111254506Y-64375100D01*
X154175494Y-64375100D01*
X154211566Y-64411172D01*
G37*
X154211566Y-64411172D02*
X153991169Y-64502463D01*
X153707002Y-64692337D01*
X153465337Y-64934002D01*
X153275463Y-65218169D01*
X153144675Y-65533919D01*
X153078000Y-65869117D01*
X153078000Y-66210883D01*
X153144675Y-66546081D01*
X153275463Y-66861831D01*
X153465337Y-67145998D01*
X153707002Y-67387663D01*
X153991169Y-67577537D01*
X154306919Y-67708325D01*
X154642117Y-67775000D01*
X154983883Y-67775000D01*
X155319081Y-67708325D01*
X155634831Y-67577537D01*
X155918998Y-67387663D01*
X156160663Y-67145998D01*
X156350537Y-66861831D01*
X156441828Y-66641434D01*
X156604901Y-66804507D01*
X156604900Y-109725494D01*
X156441828Y-109888566D01*
X156350537Y-109668169D01*
X156160663Y-109384002D01*
X155918998Y-109142337D01*
X155634831Y-108952463D01*
X155319081Y-108821675D01*
X154983883Y-108755000D01*
X154642117Y-108755000D01*
X154306919Y-108821675D01*
X153991169Y-108952463D01*
X153707002Y-109142337D01*
X153465337Y-109384002D01*
X153275463Y-109668169D01*
X153144675Y-109983919D01*
X153078000Y-110319117D01*
X153078000Y-110660883D01*
X153144675Y-110996081D01*
X153275463Y-111311831D01*
X153465337Y-111595998D01*
X153707002Y-111837663D01*
X153991169Y-112027537D01*
X154211566Y-112118828D01*
X154010394Y-112320000D01*
X111419606Y-112320000D01*
X111181237Y-112081631D01*
X111311831Y-112027537D01*
X111595998Y-111837663D01*
X111837663Y-111595998D01*
X112027537Y-111311831D01*
X112158325Y-110996081D01*
X112225000Y-110660883D01*
X112225000Y-110319117D01*
X112158325Y-109983919D01*
X112027537Y-109668169D01*
X111837663Y-109384002D01*
X111595998Y-109142337D01*
X111311831Y-108952463D01*
X110996081Y-108821675D01*
X110660883Y-108755000D01*
X110319117Y-108755000D01*
X109983919Y-108821675D01*
X109668169Y-108952463D01*
X109384002Y-109142337D01*
X109142337Y-109384002D01*
X108952463Y-109668169D01*
X108898369Y-109798763D01*
X108660000Y-109560394D01*
X108660000Y-106810000D01*
X127501928Y-106810000D01*
X127514188Y-106934482D01*
X127550498Y-107054180D01*
X127609463Y-107164494D01*
X127688815Y-107261185D01*
X127785506Y-107340537D01*
X127895820Y-107399502D01*
X128015518Y-107435812D01*
X128140000Y-107448072D01*
X129254250Y-107445000D01*
X129413000Y-107286250D01*
X129413000Y-105537000D01*
X129667000Y-105537000D01*
X129667000Y-107286250D01*
X129825750Y-107445000D01*
X130940000Y-107448072D01*
X131064482Y-107435812D01*
X131184180Y-107399502D01*
X131294494Y-107340537D01*
X131391185Y-107261185D01*
X131470537Y-107164494D01*
X131529502Y-107054180D01*
X131565812Y-106934482D01*
X131578072Y-106810000D01*
X131575000Y-105695750D01*
X131416250Y-105537000D01*
X129667000Y-105537000D01*
X129413000Y-105537000D01*
X127663750Y-105537000D01*
X127505000Y-105695750D01*
X127501928Y-106810000D01*
X108660000Y-106810000D01*
X108660000Y-102717634D01*
X111483000Y-102717634D01*
X111483000Y-103022366D01*
X111542451Y-103321243D01*
X111659067Y-103602779D01*
X111828367Y-103856155D01*
X112043845Y-104071633D01*
X112297221Y-104240933D01*
X112578757Y-104357549D01*
X112877634Y-104417000D01*
X113182366Y-104417000D01*
X113481243Y-104357549D01*
X113728818Y-104255000D01*
X127502603Y-104255000D01*
X127505000Y-105124250D01*
X127663750Y-105283000D01*
X129413000Y-105283000D01*
X129413000Y-105263000D01*
X129667000Y-105263000D01*
X129667000Y-105283000D01*
X131416250Y-105283000D01*
X131575000Y-105124250D01*
X131577201Y-104325886D01*
X132585000Y-105333685D01*
X132585000Y-105610430D01*
X132663204Y-106003587D01*
X132816607Y-106373934D01*
X133039313Y-106707237D01*
X133322763Y-106990687D01*
X133656066Y-107213393D01*
X134026413Y-107366796D01*
X134419570Y-107445000D01*
X134820430Y-107445000D01*
X135213587Y-107366796D01*
X135583934Y-107213393D01*
X135917237Y-106990687D01*
X136200687Y-106707237D01*
X136423393Y-106373934D01*
X136576796Y-106003587D01*
X136655000Y-105610430D01*
X136655000Y-105209570D01*
X136576796Y-104816413D01*
X136423393Y-104446066D01*
X136200687Y-104112763D01*
X135917237Y-103829313D01*
X135583934Y-103606607D01*
X135213587Y-103453204D01*
X134820430Y-103375000D01*
X134543685Y-103375000D01*
X133107454Y-101938769D01*
X133064081Y-101885919D01*
X132853188Y-101712843D01*
X132612581Y-101584236D01*
X132351507Y-101505040D01*
X132148037Y-101485000D01*
X132148029Y-101485000D01*
X132080000Y-101478300D01*
X132011971Y-101485000D01*
X113728818Y-101485000D01*
X113481243Y-101382451D01*
X113182366Y-101323000D01*
X112877634Y-101323000D01*
X112578757Y-101382451D01*
X112297221Y-101499067D01*
X112043845Y-101668367D01*
X111828367Y-101883845D01*
X111659067Y-102137221D01*
X111542451Y-102418757D01*
X111483000Y-102717634D01*
X108660000Y-102717634D01*
X108660000Y-96878000D01*
X111479928Y-96878000D01*
X111479928Y-98702000D01*
X111492188Y-98826482D01*
X111528498Y-98946180D01*
X111587463Y-99056494D01*
X111666815Y-99153185D01*
X111763506Y-99232537D01*
X111873820Y-99291502D01*
X111993518Y-99327812D01*
X112118000Y-99340072D01*
X113942000Y-99340072D01*
X114066482Y-99327812D01*
X114186180Y-99291502D01*
X114296494Y-99232537D01*
X114366603Y-99175000D01*
X131506315Y-99175000D01*
X137665000Y-105333686D01*
X137665000Y-105610430D01*
X137743204Y-106003587D01*
X137896607Y-106373934D01*
X138119313Y-106707237D01*
X138402763Y-106990687D01*
X138736066Y-107213393D01*
X139106413Y-107366796D01*
X139499570Y-107445000D01*
X139900430Y-107445000D01*
X140293587Y-107366796D01*
X140663934Y-107213393D01*
X140997237Y-106990687D01*
X141280687Y-106707237D01*
X141503393Y-106373934D01*
X141656796Y-106003587D01*
X141735000Y-105610430D01*
X141735000Y-105209570D01*
X141656796Y-104816413D01*
X141503393Y-104446066D01*
X141280687Y-104112763D01*
X140997237Y-103829313D01*
X140663934Y-103606607D01*
X140293587Y-103453204D01*
X139900430Y-103375000D01*
X139623686Y-103375000D01*
X133107454Y-96858769D01*
X133064081Y-96805919D01*
X132853188Y-96632843D01*
X132612581Y-96504236D01*
X132351507Y-96425040D01*
X132148037Y-96405000D01*
X132148029Y-96405000D01*
X132080000Y-96398300D01*
X132011971Y-96405000D01*
X114366603Y-96405000D01*
X114296494Y-96347463D01*
X114186180Y-96288498D01*
X114066482Y-96252188D01*
X113942000Y-96239928D01*
X112118000Y-96239928D01*
X111993518Y-96252188D01*
X111873820Y-96288498D01*
X111763506Y-96347463D01*
X111666815Y-96426815D01*
X111587463Y-96523506D01*
X111528498Y-96633820D01*
X111492188Y-96753518D01*
X111479928Y-96878000D01*
X108660000Y-96878000D01*
X108660000Y-78498967D01*
X113935000Y-78498967D01*
X113935000Y-78821033D01*
X113997832Y-79136912D01*
X114121082Y-79434463D01*
X114185001Y-79530124D01*
X114185000Y-87401971D01*
X114178300Y-87470000D01*
X114185000Y-87538029D01*
X114185000Y-87538036D01*
X114205040Y-87741506D01*
X114284236Y-88002580D01*
X114393482Y-88206964D01*
X114412844Y-88243188D01*
X114540360Y-88398566D01*
X114585919Y-88454080D01*
X114638765Y-88497450D01*
X117995001Y-91853687D01*
X117995000Y-92769918D01*
X117954662Y-92810256D01*
X117753844Y-93110801D01*
X117615518Y-93444750D01*
X117545000Y-93799268D01*
X117545000Y-94160732D01*
X117615518Y-94515250D01*
X117753844Y-94849199D01*
X117954662Y-95149744D01*
X118210256Y-95405338D01*
X118510801Y-95606156D01*
X118844750Y-95744482D01*
X119199268Y-95815000D01*
X119560732Y-95815000D01*
X119915250Y-95744482D01*
X120249199Y-95606156D01*
X120549744Y-95405338D01*
X120805338Y-95149744D01*
X121006156Y-94849199D01*
X121144482Y-94515250D01*
X121215000Y-94160732D01*
X121215000Y-93799268D01*
X121144482Y-93444750D01*
X121006156Y-93110801D01*
X120805338Y-92810256D01*
X120765000Y-92769918D01*
X120765000Y-91853685D01*
X123609886Y-89008800D01*
X132151115Y-89008800D01*
X143395000Y-100252686D01*
X143395001Y-103917075D01*
X143199313Y-104112763D01*
X142976607Y-104446066D01*
X142823204Y-104816413D01*
X142745000Y-105209570D01*
X142745000Y-105610430D01*
X142823204Y-106003587D01*
X142976607Y-106373934D01*
X143199313Y-106707237D01*
X143482763Y-106990687D01*
X143816066Y-107213393D01*
X144186413Y-107366796D01*
X144579570Y-107445000D01*
X144980430Y-107445000D01*
X145373587Y-107366796D01*
X145743934Y-107213393D01*
X146077237Y-106990687D01*
X146360687Y-106707237D01*
X146583393Y-106373934D01*
X146736796Y-106003587D01*
X146815000Y-105610430D01*
X146815000Y-105209570D01*
X146736796Y-104816413D01*
X146583393Y-104446066D01*
X146360687Y-104112763D01*
X146165000Y-103917076D01*
X146165000Y-99747026D01*
X146171700Y-99678999D01*
X146165000Y-99610972D01*
X146165000Y-99610963D01*
X146144960Y-99407493D01*
X146065764Y-99146419D01*
X145937157Y-98905812D01*
X145872052Y-98826482D01*
X145807452Y-98747766D01*
X145807445Y-98747759D01*
X145764080Y-98694919D01*
X145711241Y-98651555D01*
X134332185Y-87272500D01*
X135551236Y-86053450D01*
X135604081Y-86010081D01*
X135777157Y-85799188D01*
X135905764Y-85558581D01*
X135984960Y-85297507D01*
X135997997Y-85165136D01*
X136062537Y-85086494D01*
X136121502Y-84976180D01*
X136157812Y-84856482D01*
X136170072Y-84732000D01*
X136170072Y-82908000D01*
X136157812Y-82783518D01*
X136121502Y-82663820D01*
X136062537Y-82553506D01*
X135983185Y-82456815D01*
X135886494Y-82377463D01*
X135776180Y-82318498D01*
X135656482Y-82282188D01*
X135532000Y-82269928D01*
X133708000Y-82269928D01*
X133583518Y-82282188D01*
X133463820Y-82318498D01*
X133353506Y-82377463D01*
X133256815Y-82456815D01*
X133177463Y-82553506D01*
X133118498Y-82663820D01*
X133082188Y-82783518D01*
X133069928Y-82908000D01*
X133069928Y-84617386D01*
X131793565Y-85893750D01*
X131740719Y-85937120D01*
X131697350Y-85989965D01*
X131697348Y-85989967D01*
X131624855Y-86078300D01*
X131567643Y-86148013D01*
X131519116Y-86238800D01*
X123104229Y-86238800D01*
X123036200Y-86232100D01*
X122968171Y-86238800D01*
X122968163Y-86238800D01*
X122764693Y-86258840D01*
X122503619Y-86338036D01*
X122263012Y-86466643D01*
X122104966Y-86596348D01*
X122104964Y-86596350D01*
X122052119Y-86639719D01*
X122008750Y-86692564D01*
X119380000Y-89321314D01*
X116955000Y-86896315D01*
X116955000Y-79530123D01*
X117018918Y-79434463D01*
X117142168Y-79136912D01*
X117205000Y-78821033D01*
X117205000Y-78498967D01*
X117142168Y-78183088D01*
X117018918Y-77885537D01*
X116839987Y-77617748D01*
X116612252Y-77390013D01*
X116344463Y-77211082D01*
X116127636Y-77121269D01*
X130068336Y-77121269D01*
X130127797Y-77355037D01*
X130366242Y-77465934D01*
X130621740Y-77528183D01*
X130884473Y-77539390D01*
X131144344Y-77499125D01*
X131391366Y-77408935D01*
X131492203Y-77355037D01*
X131551664Y-77121269D01*
X130810000Y-76379605D01*
X130068336Y-77121269D01*
X116127636Y-77121269D01*
X116046912Y-77087832D01*
X115731033Y-77025000D01*
X115408967Y-77025000D01*
X115093088Y-77087832D01*
X114795537Y-77211082D01*
X114527748Y-77390013D01*
X114300013Y-77617748D01*
X114121082Y-77885537D01*
X113997832Y-78183088D01*
X113935000Y-78498967D01*
X108660000Y-78498967D01*
X108660000Y-76274473D01*
X129470610Y-76274473D01*
X129510875Y-76534344D01*
X129601065Y-76781366D01*
X129654963Y-76882203D01*
X129888731Y-76941664D01*
X130630395Y-76200000D01*
X130989605Y-76200000D01*
X131731269Y-76941664D01*
X131965037Y-76882203D01*
X132029791Y-76742972D01*
X132152844Y-76973188D01*
X132325919Y-77184081D01*
X132536812Y-77357156D01*
X132777420Y-77485764D01*
X133038493Y-77564960D01*
X133310000Y-77591700D01*
X133581507Y-77564960D01*
X133842580Y-77485764D01*
X134083188Y-77357156D01*
X134241233Y-77227452D01*
X136463686Y-75005000D01*
X139126315Y-75005000D01*
X142165001Y-78043687D01*
X142165000Y-83751971D01*
X142158300Y-83820000D01*
X142165000Y-83888029D01*
X142165000Y-83888036D01*
X142185040Y-84091506D01*
X142264236Y-84352580D01*
X142348027Y-84509341D01*
X141173482Y-83334797D01*
X141070933Y-83087221D01*
X140901633Y-82833845D01*
X140686155Y-82618367D01*
X140432779Y-82449067D01*
X140151243Y-82332451D01*
X139852366Y-82273000D01*
X139547634Y-82273000D01*
X139248757Y-82332451D01*
X138967221Y-82449067D01*
X138713845Y-82618367D01*
X138498367Y-82833845D01*
X138329067Y-83087221D01*
X138212451Y-83368757D01*
X138153000Y-83667634D01*
X138153000Y-83972366D01*
X138212451Y-84271243D01*
X138329067Y-84552779D01*
X138498367Y-84806155D01*
X138713845Y-85021633D01*
X138967221Y-85190933D01*
X139214797Y-85293482D01*
X145934397Y-92013083D01*
X145928299Y-92075000D01*
X145935000Y-92143036D01*
X145935000Y-92769918D01*
X145894662Y-92810256D01*
X145693844Y-93110801D01*
X145555518Y-93444750D01*
X145485000Y-93799268D01*
X145485000Y-94160732D01*
X145555518Y-94515250D01*
X145693844Y-94849199D01*
X145894662Y-95149744D01*
X146150256Y-95405338D01*
X146450801Y-95606156D01*
X146784750Y-95744482D01*
X147139268Y-95815000D01*
X147500732Y-95815000D01*
X147855250Y-95744482D01*
X148189199Y-95606156D01*
X148489744Y-95405338D01*
X148745338Y-95149744D01*
X148946156Y-94849199D01*
X149084482Y-94515250D01*
X149155000Y-94160732D01*
X149155000Y-93799268D01*
X149087515Y-93460000D01*
X153192171Y-93460000D01*
X153260200Y-93466700D01*
X153328229Y-93460000D01*
X153328237Y-93460000D01*
X153531707Y-93439960D01*
X153792781Y-93360764D01*
X154033388Y-93232157D01*
X154244281Y-93059081D01*
X154287654Y-93006231D01*
X155298241Y-91995645D01*
X155351080Y-91952281D01*
X155394445Y-91899441D01*
X155394452Y-91899434D01*
X155524157Y-91741388D01*
X155652764Y-91500781D01*
X155731960Y-91239707D01*
X155758701Y-90968200D01*
X155752000Y-90900163D01*
X155752000Y-89397826D01*
X155758700Y-89329799D01*
X155752000Y-89261772D01*
X155752000Y-89261763D01*
X155731960Y-89058293D01*
X155652764Y-88797219D01*
X155524157Y-88556612D01*
X155398245Y-88403188D01*
X155394452Y-88398566D01*
X155394450Y-88398564D01*
X155351081Y-88345719D01*
X155298236Y-88302350D01*
X153813110Y-86817225D01*
X153773845Y-86743765D01*
X153670554Y-86617905D01*
X153754494Y-86573037D01*
X153851185Y-86493685D01*
X153930537Y-86396994D01*
X153989502Y-86286680D01*
X154025812Y-86166982D01*
X154038072Y-86042500D01*
X154035000Y-85375750D01*
X153876250Y-85217000D01*
X152527000Y-85217000D01*
X152527000Y-85237000D01*
X152273000Y-85237000D01*
X152273000Y-85217000D01*
X150923750Y-85217000D01*
X150765000Y-85375750D01*
X150761928Y-86042500D01*
X150774188Y-86166982D01*
X150810498Y-86286680D01*
X150869463Y-86396994D01*
X150948815Y-86493685D01*
X151045506Y-86573037D01*
X151129446Y-86617905D01*
X151026155Y-86743765D01*
X150878745Y-87019551D01*
X150787970Y-87318796D01*
X150757319Y-87630000D01*
X150787970Y-87941204D01*
X150878745Y-88240449D01*
X151026155Y-88516235D01*
X151224537Y-88757963D01*
X151257482Y-88785000D01*
X150473686Y-88785000D01*
X145826186Y-84137500D01*
X150761928Y-84137500D01*
X150765000Y-84804250D01*
X150923750Y-84963000D01*
X152273000Y-84963000D01*
X152273000Y-83661250D01*
X152527000Y-83661250D01*
X152527000Y-84963000D01*
X153876250Y-84963000D01*
X154035000Y-84804250D01*
X154038072Y-84137500D01*
X154025812Y-84013018D01*
X153989502Y-83893320D01*
X153930537Y-83783006D01*
X153851185Y-83686315D01*
X153754494Y-83606963D01*
X153644180Y-83547998D01*
X153524482Y-83511688D01*
X153400000Y-83499428D01*
X152685750Y-83502500D01*
X152527000Y-83661250D01*
X152273000Y-83661250D01*
X152114250Y-83502500D01*
X151400000Y-83499428D01*
X151275518Y-83511688D01*
X151155820Y-83547998D01*
X151045506Y-83606963D01*
X150948815Y-83686315D01*
X150869463Y-83783006D01*
X150810498Y-83893320D01*
X150774188Y-84013018D01*
X150761928Y-84137500D01*
X145826186Y-84137500D01*
X144935000Y-83246315D01*
X144935000Y-78821647D01*
X145005820Y-78859502D01*
X145125518Y-78895812D01*
X145250000Y-78908072D01*
X145764250Y-78905000D01*
X145923000Y-78746250D01*
X145923000Y-77597000D01*
X146177000Y-77597000D01*
X146177000Y-78746250D01*
X146335750Y-78905000D01*
X146850000Y-78908072D01*
X146974482Y-78895812D01*
X147094180Y-78859502D01*
X147204494Y-78800537D01*
X147301185Y-78721185D01*
X147380537Y-78624494D01*
X147439502Y-78514180D01*
X147475812Y-78394482D01*
X147488072Y-78270000D01*
X147485000Y-77755750D01*
X147326250Y-77597000D01*
X146177000Y-77597000D01*
X145923000Y-77597000D01*
X145903000Y-77597000D01*
X145903000Y-77343000D01*
X145923000Y-77343000D01*
X145923000Y-76193750D01*
X146177000Y-76193750D01*
X146177000Y-77343000D01*
X147326250Y-77343000D01*
X147485000Y-77184250D01*
X147488072Y-76670000D01*
X147475812Y-76545518D01*
X147439502Y-76425820D01*
X147380537Y-76315506D01*
X147301185Y-76218815D01*
X147204494Y-76139463D01*
X147094180Y-76080498D01*
X146974482Y-76044188D01*
X146850000Y-76031928D01*
X146335750Y-76035000D01*
X146177000Y-76193750D01*
X145923000Y-76193750D01*
X145764250Y-76035000D01*
X145250000Y-76031928D01*
X145125518Y-76044188D01*
X145005820Y-76080498D01*
X144895506Y-76139463D01*
X144798815Y-76218815D01*
X144719463Y-76315506D01*
X144660498Y-76425820D01*
X144631339Y-76521943D01*
X144464759Y-76355363D01*
X144251663Y-76212977D01*
X140727454Y-72688769D01*
X140684081Y-72635919D01*
X140473188Y-72462843D01*
X140232581Y-72334236D01*
X139971507Y-72255040D01*
X139768037Y-72235000D01*
X139768029Y-72235000D01*
X139700000Y-72228300D01*
X139631971Y-72235000D01*
X137275000Y-72235000D01*
X137275000Y-68695000D01*
X142042080Y-68695000D01*
X142102408Y-68707000D01*
X142377592Y-68707000D01*
X142647490Y-68653314D01*
X142901727Y-68548005D01*
X143130535Y-68395120D01*
X143325120Y-68200535D01*
X143411004Y-68072000D01*
X145919928Y-68072000D01*
X145932188Y-68196482D01*
X145968498Y-68316180D01*
X146027463Y-68426494D01*
X146106815Y-68523185D01*
X146203506Y-68602537D01*
X146313820Y-68661502D01*
X146433518Y-68697812D01*
X146558000Y-68710072D01*
X147034250Y-68707000D01*
X147193000Y-68548250D01*
X147193000Y-67437000D01*
X147447000Y-67437000D01*
X147447000Y-68548250D01*
X147605750Y-68707000D01*
X148082000Y-68710072D01*
X148206482Y-68697812D01*
X148326180Y-68661502D01*
X148436494Y-68602537D01*
X148533185Y-68523185D01*
X148612537Y-68426494D01*
X148671502Y-68316180D01*
X148707812Y-68196482D01*
X148720072Y-68072000D01*
X148717000Y-67595750D01*
X148558250Y-67437000D01*
X147447000Y-67437000D01*
X147193000Y-67437000D01*
X146081750Y-67437000D01*
X145923000Y-67595750D01*
X145919928Y-68072000D01*
X143411004Y-68072000D01*
X143478005Y-67971727D01*
X143583314Y-67717490D01*
X143637000Y-67447592D01*
X143637000Y-67172408D01*
X143583314Y-66902510D01*
X143478005Y-66648273D01*
X143411005Y-66548000D01*
X145919928Y-66548000D01*
X145923000Y-67024250D01*
X146081750Y-67183000D01*
X147193000Y-67183000D01*
X147193000Y-66071750D01*
X147447000Y-66071750D01*
X147447000Y-67183000D01*
X148558250Y-67183000D01*
X148717000Y-67024250D01*
X148720072Y-66548000D01*
X148707812Y-66423518D01*
X148671502Y-66303820D01*
X148612537Y-66193506D01*
X148533185Y-66096815D01*
X148436494Y-66017463D01*
X148326180Y-65958498D01*
X148206482Y-65922188D01*
X148082000Y-65909928D01*
X147605750Y-65913000D01*
X147447000Y-66071750D01*
X147193000Y-66071750D01*
X147034250Y-65913000D01*
X146558000Y-65909928D01*
X146433518Y-65922188D01*
X146313820Y-65958498D01*
X146203506Y-66017463D01*
X146106815Y-66096815D01*
X146027463Y-66193506D01*
X145968498Y-66303820D01*
X145932188Y-66423518D01*
X145919928Y-66548000D01*
X143411005Y-66548000D01*
X143325120Y-66419465D01*
X143130535Y-66224880D01*
X142901727Y-66071995D01*
X142647490Y-65966686D01*
X142377592Y-65913000D01*
X142102408Y-65913000D01*
X142042080Y-65925000D01*
X136588818Y-65925000D01*
X136341243Y-65822451D01*
X136042366Y-65763000D01*
X135737634Y-65763000D01*
X135438757Y-65822451D01*
X135157221Y-65939067D01*
X134903845Y-66108367D01*
X134688367Y-66323845D01*
X134519067Y-66577221D01*
X134402451Y-66858757D01*
X134343000Y-67157634D01*
X134343000Y-67462366D01*
X134402451Y-67761243D01*
X134505000Y-68008819D01*
X134505001Y-73046313D01*
X132282548Y-75268767D01*
X132152844Y-75426812D01*
X132031670Y-75653513D01*
X132018935Y-75618634D01*
X131965037Y-75517797D01*
X131731269Y-75458336D01*
X130989605Y-76200000D01*
X130630395Y-76200000D01*
X129888731Y-75458336D01*
X129654963Y-75517797D01*
X129544066Y-75756242D01*
X129481817Y-76011740D01*
X129470610Y-76274473D01*
X108660000Y-76274473D01*
X108660000Y-74660000D01*
X113931928Y-74660000D01*
X113944188Y-74784482D01*
X113980498Y-74904180D01*
X114039463Y-75014494D01*
X114118815Y-75111185D01*
X114215506Y-75190537D01*
X114325820Y-75249502D01*
X114445518Y-75285812D01*
X114570000Y-75298072D01*
X115284250Y-75295000D01*
X115443000Y-75136250D01*
X115443000Y-73787000D01*
X115697000Y-73787000D01*
X115697000Y-75136250D01*
X115855750Y-75295000D01*
X116570000Y-75298072D01*
X116694482Y-75285812D01*
X116717824Y-75278731D01*
X130068336Y-75278731D01*
X130810000Y-76020395D01*
X131551664Y-75278731D01*
X131492203Y-75044963D01*
X131253758Y-74934066D01*
X130998260Y-74871817D01*
X130735527Y-74860610D01*
X130475656Y-74900875D01*
X130228634Y-74991065D01*
X130127797Y-75044963D01*
X130068336Y-75278731D01*
X116717824Y-75278731D01*
X116814180Y-75249502D01*
X116924494Y-75190537D01*
X117021185Y-75111185D01*
X117100537Y-75014494D01*
X117159502Y-74904180D01*
X117195812Y-74784482D01*
X117208072Y-74660000D01*
X117205000Y-73945750D01*
X117046250Y-73787000D01*
X115697000Y-73787000D01*
X115443000Y-73787000D01*
X114093750Y-73787000D01*
X113935000Y-73945750D01*
X113931928Y-74660000D01*
X108660000Y-74660000D01*
X108660000Y-72660000D01*
X113931928Y-72660000D01*
X113935000Y-73374250D01*
X114093750Y-73533000D01*
X115443000Y-73533000D01*
X115443000Y-72183750D01*
X115697000Y-72183750D01*
X115697000Y-73533000D01*
X117046250Y-73533000D01*
X117205000Y-73374250D01*
X117208072Y-72660000D01*
X117195812Y-72535518D01*
X117159502Y-72415820D01*
X117100537Y-72305506D01*
X117021185Y-72208815D01*
X116924494Y-72129463D01*
X116814180Y-72070498D01*
X116694482Y-72034188D01*
X116570000Y-72021928D01*
X115855750Y-72025000D01*
X115697000Y-72183750D01*
X115443000Y-72183750D01*
X115284250Y-72025000D01*
X114570000Y-72021928D01*
X114445518Y-72034188D01*
X114325820Y-72070498D01*
X114215506Y-72129463D01*
X114118815Y-72208815D01*
X114039463Y-72305506D01*
X113980498Y-72415820D01*
X113944188Y-72535518D01*
X113931928Y-72660000D01*
X108660000Y-72660000D01*
X108660000Y-68222000D01*
X129259928Y-68222000D01*
X129272188Y-68346482D01*
X129308498Y-68466180D01*
X129367463Y-68576494D01*
X129446815Y-68673185D01*
X129543506Y-68752537D01*
X129653820Y-68811502D01*
X129773518Y-68847812D01*
X129898000Y-68860072D01*
X130524250Y-68857000D01*
X130683000Y-68698250D01*
X130683000Y-67437000D01*
X130937000Y-67437000D01*
X130937000Y-68698250D01*
X131095750Y-68857000D01*
X131722000Y-68860072D01*
X131846482Y-68847812D01*
X131966180Y-68811502D01*
X132076494Y-68752537D01*
X132173185Y-68673185D01*
X132252537Y-68576494D01*
X132311502Y-68466180D01*
X132347812Y-68346482D01*
X132360072Y-68222000D01*
X132357000Y-67595750D01*
X132198250Y-67437000D01*
X130937000Y-67437000D01*
X130683000Y-67437000D01*
X129421750Y-67437000D01*
X129263000Y-67595750D01*
X129259928Y-68222000D01*
X108660000Y-68222000D01*
X108660000Y-66969606D01*
X108898369Y-66731237D01*
X108952463Y-66861831D01*
X109142337Y-67145998D01*
X109384002Y-67387663D01*
X109668169Y-67577537D01*
X109983919Y-67708325D01*
X110319117Y-67775000D01*
X110660883Y-67775000D01*
X110996081Y-67708325D01*
X111311831Y-67577537D01*
X111595998Y-67387663D01*
X111837663Y-67145998D01*
X112027537Y-66861831D01*
X112158325Y-66546081D01*
X112187780Y-66398000D01*
X129259928Y-66398000D01*
X129263000Y-67024250D01*
X129421750Y-67183000D01*
X130683000Y-67183000D01*
X130683000Y-65921750D01*
X130937000Y-65921750D01*
X130937000Y-67183000D01*
X132198250Y-67183000D01*
X132357000Y-67024250D01*
X132360072Y-66398000D01*
X132347812Y-66273518D01*
X132311502Y-66153820D01*
X132252537Y-66043506D01*
X132173185Y-65946815D01*
X132076494Y-65867463D01*
X131966180Y-65808498D01*
X131846482Y-65772188D01*
X131722000Y-65759928D01*
X131095750Y-65763000D01*
X130937000Y-65921750D01*
X130683000Y-65921750D01*
X130524250Y-65763000D01*
X129898000Y-65759928D01*
X129773518Y-65772188D01*
X129653820Y-65808498D01*
X129543506Y-65867463D01*
X129446815Y-65946815D01*
X129367463Y-66043506D01*
X129308498Y-66153820D01*
X129272188Y-66273518D01*
X129259928Y-66398000D01*
X112187780Y-66398000D01*
X112225000Y-66210883D01*
X112225000Y-65869117D01*
X112158325Y-65533919D01*
X112027537Y-65218169D01*
X111837663Y-64934002D01*
X111595998Y-64692337D01*
X111311831Y-64502463D01*
X111181237Y-64448369D01*
X111254506Y-64375100D01*
X154175494Y-64375100D01*
X154211566Y-64411172D01*
%TD*%
M02*
