M48
; DRILL file {KiCad 5.1.5-1.fc31} date wto, 7 kwi 2020, 08:34:58
; FORMAT={-:-/ absolute / metric / decimal}
; #@! TF.CreationDate,2020-04-07T08:34:58+02:00
; #@! TF.GenerationSoftware,Kicad,Pcbnew,5.1.5-1.fc31
; #@! TF.FileFunction,Plated,1,2,PTH
FMAT,2
METRIC
T1C0.700
T2C0.762
T3C0.800
T4C1.000
T5C1.100
T6C1.200
T7C1.400
%
G90
G05
T1
X130.81Y-76.2
X133.31Y-76.2
T2
X142.24Y-67.31
X147.32Y-67.31
T3
X143.55Y-77.47
X146.05Y-77.47
T4
X113.03Y-97.79
X113.03Y-102.87
X130.81Y-67.31
X135.89Y-67.31
X134.62Y-83.82
X139.7Y-83.82
X115.57Y-73.66
X115.57Y-78.66
T5
X152.4Y-85.09
X152.4Y-87.63
X152.4Y-90.17
T6
X119.38Y-93.98
X147.32Y-93.98
T7
X129.54Y-105.41
X134.62Y-105.41
X139.7Y-105.41
X144.78Y-105.41
T0
M30
