%TF.GenerationSoftware,KiCad,Pcbnew,5.1.5-1.fc31*%
%TF.CreationDate,2020-04-07T08:34:53+02:00*%
%TF.ProjectId,zasilacz,7a617369-6c61-4637-9a2e-6b696361645f,rev?*%
%TF.SameCoordinates,Original*%
%TF.FileFunction,Other,User*%
%FSLAX46Y46*%
G04 Gerber Fmt 4.6, Leading zero omitted, Abs format (unit mm)*
G04 Created by KiCad (PCBNEW 5.1.5-1.fc31) date 2020-04-07 08:34:53*
%MOMM*%
%LPD*%
G04 APERTURE LIST*
%ADD10C,0.050000*%
%ADD11C,0.120000*%
G04 APERTURE END LIST*
D10*
%TO.C,U1*%
X155800000Y-82380000D02*
X150890000Y-82380000D01*
X150890000Y-82380000D02*
X150890000Y-92880000D01*
X150890000Y-92880000D02*
X155800000Y-92880000D01*
X155800000Y-92880000D02*
X155800000Y-82380000D01*
%TO.C,M1*%
X112940000Y-66040000D02*
G75*
G03X112940000Y-66040000I-2450000J0D01*
G01*
%TO.C,M4*%
X157263000Y-66040000D02*
G75*
G03X157263000Y-66040000I-2450000J0D01*
G01*
%TO.C,M3*%
X157263000Y-110490000D02*
G75*
G03X157263000Y-110490000I-2450000J0D01*
G01*
%TO.C,M2*%
X112940000Y-110490000D02*
G75*
G03X112940000Y-110490000I-2450000J0D01*
G01*
%TO.C,C1*%
X120820000Y-76160000D02*
G75*
G03X120820000Y-76160000I-5250000J0D01*
G01*
%TO.C,C2*%
X148800000Y-77470000D02*
G75*
G03X148800000Y-77470000I-4000000J0D01*
G01*
%TO.C,C3*%
X129510000Y-73200000D02*
X129510000Y-79200000D01*
X129510000Y-79200000D02*
X134610000Y-79200000D01*
X134610000Y-79200000D02*
X134610000Y-73200000D01*
X134610000Y-73200000D02*
X129510000Y-73200000D01*
%TO.C,D1*%
X125290000Y-103160000D02*
X148990000Y-103160000D01*
X125290000Y-103160000D02*
X125290000Y-110860000D01*
X148990000Y-110860000D02*
X148990000Y-103160000D01*
X148990000Y-110860000D02*
X125290000Y-110860000D01*
D11*
%TO.C,D2*%
X149860000Y-64770000D02*
X149860000Y-69850000D01*
X149860000Y-69850000D02*
X139700000Y-69850000D01*
X139700000Y-69850000D02*
X139700000Y-64770000D01*
X139700000Y-64770000D02*
X149860000Y-64770000D01*
%TO.C,J1*%
X110490000Y-95250000D02*
X115570000Y-95250000D01*
X110490000Y-105410000D02*
X110490000Y-95250000D01*
X115570000Y-105410000D02*
X110490000Y-105410000D01*
X115570000Y-95250000D02*
X115570000Y-105410000D01*
%TO.C,J2*%
X128270000Y-64770000D02*
X138430000Y-64770000D01*
X138430000Y-64770000D02*
X138430000Y-69850000D01*
X138430000Y-69850000D02*
X128270000Y-69850000D01*
X128270000Y-69850000D02*
X128270000Y-64770000D01*
%TO.C,J3*%
X132080000Y-81280000D02*
X142240000Y-81280000D01*
X142240000Y-81280000D02*
X142240000Y-86360000D01*
X142240000Y-86360000D02*
X132080000Y-86360000D01*
X132080000Y-86360000D02*
X132080000Y-81280000D01*
D10*
%TO.C,R1*%
X148770000Y-98730000D02*
X148770000Y-89230000D01*
X148770000Y-89230000D02*
X117930000Y-89230000D01*
X117930000Y-89230000D02*
X117930000Y-98730000D01*
X117930000Y-98730000D02*
X148770000Y-98730000D01*
%TD*%
M02*
