%TF.GenerationSoftware,KiCad,Pcbnew,5.1.5-1.fc31*%
%TF.CreationDate,2020-04-07T08:34:53+02:00*%
%TF.ProjectId,zasilacz,7a617369-6c61-4637-9a2e-6b696361645f,rev?*%
%TF.SameCoordinates,Original*%
%TF.FileFunction,Legend,Top*%
%TF.FilePolarity,Positive*%
%FSLAX46Y46*%
G04 Gerber Fmt 4.6, Leading zero omitted, Abs format (unit mm)*
G04 Created by KiCad (PCBNEW 5.1.5-1.fc31) date 2020-04-07 08:34:53*
%MOMM*%
%LPD*%
G04 APERTURE LIST*
%ADD10C,0.150000*%
%ADD11C,0.400000*%
%ADD12C,0.300000*%
%ADD13C,0.010000*%
%ADD14C,0.120000*%
%ADD15R,2.102000X2.007000*%
%ADD16O,2.102000X2.007000*%
%ADD17C,2.302000*%
%ADD18R,2.102000X2.102000*%
%ADD19C,2.102000*%
%ADD20R,1.702000X1.702000*%
%ADD21C,1.702000*%
%ADD22C,1.502000*%
%ADD23C,2.902000*%
%ADD24R,2.902000X2.902000*%
%ADD25R,1.626000X1.626000*%
%ADD26C,1.626000*%
%ADD27C,1.926000*%
%ADD28R,1.926000X1.926000*%
%ADD29C,2.502000*%
%ADD30O,2.502000X2.502000*%
G04 APERTURE END LIST*
D10*
X120001309Y-65557380D02*
X120001309Y-66271666D01*
X119953690Y-66414523D01*
X119858452Y-66509761D01*
X119715595Y-66557380D01*
X119620357Y-66557380D01*
X121001309Y-66557380D02*
X120429880Y-66557380D01*
X120715595Y-66557380D02*
X120715595Y-65557380D01*
X120620357Y-65700238D01*
X120525119Y-65795476D01*
X120429880Y-65843095D01*
X122144166Y-66271666D02*
X122620357Y-66271666D01*
X122048928Y-66557380D02*
X122382261Y-65557380D01*
X122715595Y-66557380D01*
X123620357Y-66462142D02*
X123572738Y-66509761D01*
X123429880Y-66557380D01*
X123334642Y-66557380D01*
X123191785Y-66509761D01*
X123096547Y-66414523D01*
X123048928Y-66319285D01*
X123001309Y-66128809D01*
X123001309Y-65985952D01*
X123048928Y-65795476D01*
X123096547Y-65700238D01*
X123191785Y-65605000D01*
X123334642Y-65557380D01*
X123429880Y-65557380D01*
X123572738Y-65605000D01*
X123620357Y-65652619D01*
X120001309Y-67207380D02*
X120001309Y-67921666D01*
X119953690Y-68064523D01*
X119858452Y-68159761D01*
X119715595Y-68207380D01*
X119620357Y-68207380D01*
X120429880Y-67302619D02*
X120477500Y-67255000D01*
X120572738Y-67207380D01*
X120810833Y-67207380D01*
X120906071Y-67255000D01*
X120953690Y-67302619D01*
X121001309Y-67397857D01*
X121001309Y-67493095D01*
X120953690Y-67635952D01*
X120382261Y-68207380D01*
X121001309Y-68207380D01*
X122191785Y-68207380D02*
X122191785Y-67207380D01*
X122429880Y-67207380D01*
X122572738Y-67255000D01*
X122667976Y-67350238D01*
X122715595Y-67445476D01*
X122763214Y-67635952D01*
X122763214Y-67778809D01*
X122715595Y-67969285D01*
X122667976Y-68064523D01*
X122572738Y-68159761D01*
X122429880Y-68207380D01*
X122191785Y-68207380D01*
X123763214Y-68112142D02*
X123715595Y-68159761D01*
X123572738Y-68207380D01*
X123477500Y-68207380D01*
X123334642Y-68159761D01*
X123239404Y-68064523D01*
X123191785Y-67969285D01*
X123144166Y-67778809D01*
X123144166Y-67635952D01*
X123191785Y-67445476D01*
X123239404Y-67350238D01*
X123334642Y-67255000D01*
X123477500Y-67207380D01*
X123572738Y-67207380D01*
X123715595Y-67255000D01*
X123763214Y-67302619D01*
X120001309Y-68857380D02*
X120001309Y-69571666D01*
X119953690Y-69714523D01*
X119858452Y-69809761D01*
X119715595Y-69857380D01*
X119620357Y-69857380D01*
X120382261Y-68857380D02*
X121001309Y-68857380D01*
X120667976Y-69238333D01*
X120810833Y-69238333D01*
X120906071Y-69285952D01*
X120953690Y-69333571D01*
X121001309Y-69428809D01*
X121001309Y-69666904D01*
X120953690Y-69762142D01*
X120906071Y-69809761D01*
X120810833Y-69857380D01*
X120525119Y-69857380D01*
X120429880Y-69809761D01*
X120382261Y-69762142D01*
X122620357Y-69809761D02*
X122525119Y-69857380D01*
X122334642Y-69857380D01*
X122239404Y-69809761D01*
X122191785Y-69762142D01*
X122144166Y-69666904D01*
X122144166Y-69381190D01*
X122191785Y-69285952D01*
X122239404Y-69238333D01*
X122334642Y-69190714D01*
X122525119Y-69190714D01*
X122620357Y-69238333D01*
X123477500Y-69190714D02*
X123477500Y-69857380D01*
X123048928Y-69190714D02*
X123048928Y-69714523D01*
X123096547Y-69809761D01*
X123191785Y-69857380D01*
X123334642Y-69857380D01*
X123429880Y-69809761D01*
X123477500Y-69762142D01*
X123953690Y-69857380D02*
X123953690Y-69190714D01*
X123953690Y-69381190D02*
X124001309Y-69285952D01*
X124048928Y-69238333D01*
X124144166Y-69190714D01*
X124239404Y-69190714D01*
X124572738Y-69857380D02*
X124572738Y-69190714D01*
X124572738Y-69381190D02*
X124620357Y-69285952D01*
X124667976Y-69238333D01*
X124763214Y-69190714D01*
X124858452Y-69190714D01*
X125572738Y-69809761D02*
X125477500Y-69857380D01*
X125287023Y-69857380D01*
X125191785Y-69809761D01*
X125144166Y-69714523D01*
X125144166Y-69333571D01*
X125191785Y-69238333D01*
X125287023Y-69190714D01*
X125477500Y-69190714D01*
X125572738Y-69238333D01*
X125620357Y-69333571D01*
X125620357Y-69428809D01*
X125144166Y-69524047D01*
X126048928Y-69190714D02*
X126048928Y-69857380D01*
X126048928Y-69285952D02*
X126096547Y-69238333D01*
X126191785Y-69190714D01*
X126334642Y-69190714D01*
X126429880Y-69238333D01*
X126477500Y-69333571D01*
X126477500Y-69857380D01*
X126810833Y-69190714D02*
X127191785Y-69190714D01*
X126953690Y-68857380D02*
X126953690Y-69714523D01*
X127001309Y-69809761D01*
X127096547Y-69857380D01*
X127191785Y-69857380D01*
X119715595Y-71507380D02*
X119715595Y-70507380D01*
X119953690Y-70507380D01*
X120096547Y-70555000D01*
X120191785Y-70650238D01*
X120239404Y-70745476D01*
X120287023Y-70935952D01*
X120287023Y-71078809D01*
X120239404Y-71269285D01*
X120191785Y-71364523D01*
X120096547Y-71459761D01*
X119953690Y-71507380D01*
X119715595Y-71507380D01*
X120667976Y-70602619D02*
X120715595Y-70555000D01*
X120810833Y-70507380D01*
X121048928Y-70507380D01*
X121144166Y-70555000D01*
X121191785Y-70602619D01*
X121239404Y-70697857D01*
X121239404Y-70793095D01*
X121191785Y-70935952D01*
X120620357Y-71507380D01*
X121239404Y-71507380D01*
X122906071Y-71507380D02*
X122429880Y-71507380D01*
X122429880Y-70507380D01*
X123239404Y-70983571D02*
X123572738Y-70983571D01*
X123715595Y-71507380D02*
X123239404Y-71507380D01*
X123239404Y-70507380D01*
X123715595Y-70507380D01*
X124144166Y-71507380D02*
X124144166Y-70507380D01*
X124382261Y-70507380D01*
X124525119Y-70555000D01*
X124620357Y-70650238D01*
X124667976Y-70745476D01*
X124715595Y-70935952D01*
X124715595Y-71078809D01*
X124667976Y-71269285D01*
X124620357Y-71364523D01*
X124525119Y-71459761D01*
X124382261Y-71507380D01*
X124144166Y-71507380D01*
D11*
X109474285Y-91400000D02*
X109331428Y-91257142D01*
X109045714Y-90828571D01*
X108902857Y-90542857D01*
X108760000Y-90114285D01*
X108617142Y-89400000D01*
X108617142Y-88828571D01*
X108760000Y-88114285D01*
X108902857Y-87685714D01*
X109045714Y-87400000D01*
X109331428Y-86971428D01*
X109474285Y-86828571D01*
X110617142Y-89114285D02*
X112902857Y-89114285D01*
X114045714Y-91400000D02*
X114188571Y-91257142D01*
X114474285Y-90828571D01*
X114617142Y-90542857D01*
X114760000Y-90114285D01*
X114902857Y-89400000D01*
X114902857Y-88828571D01*
X114760000Y-88114285D01*
X114617142Y-87685714D01*
X114474285Y-87400000D01*
X114188571Y-86971428D01*
X114045714Y-86828571D01*
D10*
X150147976Y-76192619D02*
X150195595Y-76145000D01*
X150290833Y-76097380D01*
X150528928Y-76097380D01*
X150624166Y-76145000D01*
X150671785Y-76192619D01*
X150719404Y-76287857D01*
X150719404Y-76383095D01*
X150671785Y-76525952D01*
X150100357Y-77097380D01*
X150719404Y-77097380D01*
X153195595Y-76145000D02*
X153100357Y-76097380D01*
X152957500Y-76097380D01*
X152814642Y-76145000D01*
X152719404Y-76240238D01*
X152671785Y-76335476D01*
X152624166Y-76525952D01*
X152624166Y-76668809D01*
X152671785Y-76859285D01*
X152719404Y-76954523D01*
X152814642Y-77049761D01*
X152957500Y-77097380D01*
X153052738Y-77097380D01*
X153195595Y-77049761D01*
X153243214Y-77002142D01*
X153243214Y-76668809D01*
X153052738Y-76668809D01*
X153671785Y-77097380D02*
X153671785Y-76097380D01*
X154243214Y-77097380D01*
X154243214Y-76097380D01*
X154719404Y-77097380D02*
X154719404Y-76097380D01*
X154957500Y-76097380D01*
X155100357Y-76145000D01*
X155195595Y-76240238D01*
X155243214Y-76335476D01*
X155290833Y-76525952D01*
X155290833Y-76668809D01*
X155243214Y-76859285D01*
X155195595Y-76954523D01*
X155100357Y-77049761D01*
X154957500Y-77097380D01*
X154719404Y-77097380D01*
X150719404Y-78747380D02*
X150147976Y-78747380D01*
X150433690Y-78747380D02*
X150433690Y-77747380D01*
X150338452Y-77890238D01*
X150243214Y-77985476D01*
X150147976Y-78033095D01*
X152957500Y-79128333D02*
X152909880Y-79080714D01*
X152814642Y-78937857D01*
X152767023Y-78842619D01*
X152719404Y-78699761D01*
X152671785Y-78461666D01*
X152671785Y-78271190D01*
X152719404Y-78033095D01*
X152767023Y-77890238D01*
X152814642Y-77795000D01*
X152909880Y-77652142D01*
X152957500Y-77604523D01*
X153338452Y-78366428D02*
X154100357Y-78366428D01*
X154481309Y-79128333D02*
X154528928Y-79080714D01*
X154624166Y-78937857D01*
X154671785Y-78842619D01*
X154719404Y-78699761D01*
X154767023Y-78461666D01*
X154767023Y-78271190D01*
X154719404Y-78033095D01*
X154671785Y-77890238D01*
X154624166Y-77795000D01*
X154528928Y-77652142D01*
X154481309Y-77604523D01*
D12*
X139985714Y-87308571D02*
X139985714Y-88308571D01*
X139628571Y-86737142D02*
X139271428Y-87808571D01*
X140200000Y-87808571D01*
X134120000Y-86808571D02*
X135048571Y-86808571D01*
X134548571Y-87380000D01*
X134762857Y-87380000D01*
X134905714Y-87451428D01*
X134977142Y-87522857D01*
X135048571Y-87665714D01*
X135048571Y-88022857D01*
X134977142Y-88165714D01*
X134905714Y-88237142D01*
X134762857Y-88308571D01*
X134334285Y-88308571D01*
X134191428Y-88237142D01*
X134120000Y-88165714D01*
X147748571Y-71798571D02*
X146891428Y-71798571D01*
X147320000Y-71798571D02*
X147320000Y-70298571D01*
X147177142Y-70512857D01*
X147034285Y-70655714D01*
X146891428Y-70727142D01*
X141811428Y-70441428D02*
X141882857Y-70370000D01*
X142025714Y-70298571D01*
X142382857Y-70298571D01*
X142525714Y-70370000D01*
X142597142Y-70441428D01*
X142668571Y-70584285D01*
X142668571Y-70727142D01*
X142597142Y-70941428D01*
X141740000Y-71798571D01*
X142668571Y-71798571D01*
X135461428Y-70441428D02*
X135532857Y-70370000D01*
X135675714Y-70298571D01*
X136032857Y-70298571D01*
X136175714Y-70370000D01*
X136247142Y-70441428D01*
X136318571Y-70584285D01*
X136318571Y-70727142D01*
X136247142Y-70941428D01*
X135390000Y-71798571D01*
X136318571Y-71798571D01*
X131238571Y-71798571D02*
X130381428Y-71798571D01*
X130810000Y-71798571D02*
X130810000Y-70298571D01*
X130667142Y-70512857D01*
X130524285Y-70655714D01*
X130381428Y-70727142D01*
D13*
%TO.C,G\002A\002A\002A*%
G36*
X129873375Y-83693000D02*
G01*
X129032000Y-83693000D01*
X129032000Y-84058125D01*
X129825750Y-84058125D01*
X129825750Y-84423250D01*
X129032000Y-84423250D01*
X129032000Y-84867750D01*
X129905125Y-84867750D01*
X129905125Y-85248750D01*
X128523754Y-85248750D01*
X128527845Y-84284343D01*
X128531937Y-83319937D01*
X129873375Y-83311655D01*
X129873375Y-83693000D01*
G37*
X129873375Y-83693000D02*
X129032000Y-83693000D01*
X129032000Y-84058125D01*
X129825750Y-84058125D01*
X129825750Y-84423250D01*
X129032000Y-84423250D01*
X129032000Y-84867750D01*
X129905125Y-84867750D01*
X129905125Y-85248750D01*
X128523754Y-85248750D01*
X128527845Y-84284343D01*
X128531937Y-83319937D01*
X129873375Y-83311655D01*
X129873375Y-83693000D01*
G36*
X125809375Y-83693000D02*
G01*
X124968000Y-83693000D01*
X124968000Y-84058125D01*
X125761750Y-84058125D01*
X125761750Y-84422695D01*
X125368843Y-84426941D01*
X124975937Y-84431187D01*
X124971520Y-84649468D01*
X124967104Y-84867750D01*
X125841125Y-84867750D01*
X125841125Y-85248750D01*
X124475875Y-85248750D01*
X124475875Y-83312000D01*
X125809375Y-83312000D01*
X125809375Y-83693000D01*
G37*
X125809375Y-83693000D02*
X124968000Y-83693000D01*
X124968000Y-84058125D01*
X125761750Y-84058125D01*
X125761750Y-84422695D01*
X125368843Y-84426941D01*
X124975937Y-84431187D01*
X124971520Y-84649468D01*
X124967104Y-84867750D01*
X125841125Y-84867750D01*
X125841125Y-85248750D01*
X124475875Y-85248750D01*
X124475875Y-83312000D01*
X125809375Y-83312000D01*
X125809375Y-83693000D01*
G36*
X124015500Y-83608967D02*
G01*
X123643404Y-84424890D01*
X123271309Y-85240812D01*
X123032217Y-85245194D01*
X122949183Y-85246049D01*
X122878675Y-85245504D01*
X122826167Y-85243701D01*
X122797131Y-85240786D01*
X122793125Y-85238916D01*
X122799506Y-85222828D01*
X122817835Y-85180576D01*
X122846890Y-85114887D01*
X122885450Y-85028488D01*
X122932292Y-84924104D01*
X122986196Y-84804463D01*
X123045939Y-84672290D01*
X123110300Y-84530313D01*
X123136002Y-84473724D01*
X123202073Y-84328267D01*
X123264262Y-84191240D01*
X123321311Y-84065420D01*
X123371964Y-83953584D01*
X123414963Y-83858511D01*
X123449053Y-83782979D01*
X123472975Y-83729764D01*
X123485473Y-83701645D01*
X123486950Y-83698158D01*
X123484239Y-83691941D01*
X123468830Y-83687025D01*
X123437770Y-83683273D01*
X123388103Y-83680548D01*
X123316877Y-83678714D01*
X123221138Y-83677633D01*
X123097930Y-83677169D01*
X123032948Y-83677125D01*
X122570875Y-83677125D01*
X122570875Y-83312000D01*
X124015500Y-83312000D01*
X124015500Y-83608967D01*
G37*
X124015500Y-83608967D02*
X123643404Y-84424890D01*
X123271309Y-85240812D01*
X123032217Y-85245194D01*
X122949183Y-85246049D01*
X122878675Y-85245504D01*
X122826167Y-85243701D01*
X122797131Y-85240786D01*
X122793125Y-85238916D01*
X122799506Y-85222828D01*
X122817835Y-85180576D01*
X122846890Y-85114887D01*
X122885450Y-85028488D01*
X122932292Y-84924104D01*
X122986196Y-84804463D01*
X123045939Y-84672290D01*
X123110300Y-84530313D01*
X123136002Y-84473724D01*
X123202073Y-84328267D01*
X123264262Y-84191240D01*
X123321311Y-84065420D01*
X123371964Y-83953584D01*
X123414963Y-83858511D01*
X123449053Y-83782979D01*
X123472975Y-83729764D01*
X123485473Y-83701645D01*
X123486950Y-83698158D01*
X123484239Y-83691941D01*
X123468830Y-83687025D01*
X123437770Y-83683273D01*
X123388103Y-83680548D01*
X123316877Y-83678714D01*
X123221138Y-83677633D01*
X123097930Y-83677169D01*
X123032948Y-83677125D01*
X122570875Y-83677125D01*
X122570875Y-83312000D01*
X124015500Y-83312000D01*
X124015500Y-83608967D01*
G36*
X117959397Y-84282191D02*
G01*
X117981424Y-84286728D01*
X117983000Y-84288536D01*
X117974597Y-84303677D01*
X117951214Y-84340937D01*
X117915582Y-84396086D01*
X117870436Y-84464895D01*
X117818509Y-84543135D01*
X117816312Y-84546428D01*
X117649625Y-84796157D01*
X117649625Y-85248750D01*
X117522625Y-85248750D01*
X117522625Y-84787354D01*
X117355937Y-84543419D01*
X117303359Y-84465938D01*
X117257594Y-84397472D01*
X117221450Y-84342305D01*
X117197733Y-84304721D01*
X117189250Y-84289016D01*
X117203331Y-84283654D01*
X117238761Y-84282510D01*
X117256718Y-84283430D01*
X117283178Y-84286021D01*
X117304671Y-84292101D01*
X117325217Y-84305706D01*
X117348837Y-84330870D01*
X117379550Y-84371628D01*
X117421377Y-84432015D01*
X117456780Y-84484224D01*
X117589372Y-84680136D01*
X117722869Y-84480255D01*
X117856366Y-84280375D01*
X117919683Y-84280375D01*
X117959397Y-84282191D01*
G37*
X117959397Y-84282191D02*
X117981424Y-84286728D01*
X117983000Y-84288536D01*
X117974597Y-84303677D01*
X117951214Y-84340937D01*
X117915582Y-84396086D01*
X117870436Y-84464895D01*
X117818509Y-84543135D01*
X117816312Y-84546428D01*
X117649625Y-84796157D01*
X117649625Y-85248750D01*
X117522625Y-85248750D01*
X117522625Y-84787354D01*
X117355937Y-84543419D01*
X117303359Y-84465938D01*
X117257594Y-84397472D01*
X117221450Y-84342305D01*
X117197733Y-84304721D01*
X117189250Y-84289016D01*
X117203331Y-84283654D01*
X117238761Y-84282510D01*
X117256718Y-84283430D01*
X117283178Y-84286021D01*
X117304671Y-84292101D01*
X117325217Y-84305706D01*
X117348837Y-84330870D01*
X117379550Y-84371628D01*
X117421377Y-84432015D01*
X117456780Y-84484224D01*
X117589372Y-84680136D01*
X117722869Y-84480255D01*
X117856366Y-84280375D01*
X117919683Y-84280375D01*
X117959397Y-84282191D01*
G36*
X116709031Y-84283285D02*
G01*
X116816795Y-84287432D01*
X116898282Y-84294197D01*
X116958942Y-84305089D01*
X117004227Y-84321615D01*
X117039591Y-84345284D01*
X117070484Y-84377603D01*
X117076306Y-84384855D01*
X117110549Y-84449835D01*
X117122100Y-84522265D01*
X117112047Y-84593639D01*
X117081478Y-84655453D01*
X117036441Y-84696406D01*
X116980680Y-84729305D01*
X117039656Y-84762809D01*
X117103593Y-84814252D01*
X117141520Y-84882125D01*
X117154397Y-84968417D01*
X117153471Y-84998932D01*
X117139325Y-85081735D01*
X117106243Y-85143613D01*
X117049526Y-85192015D01*
X117021662Y-85207973D01*
X116992691Y-85221076D01*
X116959589Y-85230547D01*
X116916303Y-85237144D01*
X116856778Y-85241628D01*
X116774957Y-85244757D01*
X116716968Y-85246206D01*
X116474875Y-85251599D01*
X116474875Y-84788375D01*
X116601875Y-84788375D01*
X116601875Y-85140515D01*
X116768237Y-85135101D01*
X116843762Y-85132089D01*
X116894762Y-85127840D01*
X116928463Y-85120722D01*
X116952088Y-85109106D01*
X116972860Y-85091365D01*
X116976013Y-85088238D01*
X117008898Y-85035784D01*
X117020275Y-84972838D01*
X117011745Y-84908399D01*
X116984906Y-84851467D01*
X116941355Y-84811038D01*
X116925448Y-84803541D01*
X116891680Y-84796642D01*
X116836204Y-84791385D01*
X116769049Y-84788607D01*
X116743716Y-84788375D01*
X116601875Y-84788375D01*
X116474875Y-84788375D01*
X116474875Y-84391500D01*
X116601875Y-84391500D01*
X116601875Y-84680225D01*
X116758996Y-84674768D01*
X116836324Y-84670940D01*
X116888788Y-84664991D01*
X116923264Y-84655631D01*
X116946626Y-84641572D01*
X116949496Y-84639070D01*
X116973018Y-84599820D01*
X116983631Y-84544251D01*
X116979535Y-84485788D01*
X116973013Y-84463648D01*
X116944402Y-84428970D01*
X116888894Y-84405743D01*
X116805323Y-84393609D01*
X116737600Y-84391500D01*
X116601875Y-84391500D01*
X116474875Y-84391500D01*
X116474875Y-84276914D01*
X116709031Y-84283285D01*
G37*
X116709031Y-84283285D02*
X116816795Y-84287432D01*
X116898282Y-84294197D01*
X116958942Y-84305089D01*
X117004227Y-84321615D01*
X117039591Y-84345284D01*
X117070484Y-84377603D01*
X117076306Y-84384855D01*
X117110549Y-84449835D01*
X117122100Y-84522265D01*
X117112047Y-84593639D01*
X117081478Y-84655453D01*
X117036441Y-84696406D01*
X116980680Y-84729305D01*
X117039656Y-84762809D01*
X117103593Y-84814252D01*
X117141520Y-84882125D01*
X117154397Y-84968417D01*
X117153471Y-84998932D01*
X117139325Y-85081735D01*
X117106243Y-85143613D01*
X117049526Y-85192015D01*
X117021662Y-85207973D01*
X116992691Y-85221076D01*
X116959589Y-85230547D01*
X116916303Y-85237144D01*
X116856778Y-85241628D01*
X116774957Y-85244757D01*
X116716968Y-85246206D01*
X116474875Y-85251599D01*
X116474875Y-84788375D01*
X116601875Y-84788375D01*
X116601875Y-85140515D01*
X116768237Y-85135101D01*
X116843762Y-85132089D01*
X116894762Y-85127840D01*
X116928463Y-85120722D01*
X116952088Y-85109106D01*
X116972860Y-85091365D01*
X116976013Y-85088238D01*
X117008898Y-85035784D01*
X117020275Y-84972838D01*
X117011745Y-84908399D01*
X116984906Y-84851467D01*
X116941355Y-84811038D01*
X116925448Y-84803541D01*
X116891680Y-84796642D01*
X116836204Y-84791385D01*
X116769049Y-84788607D01*
X116743716Y-84788375D01*
X116601875Y-84788375D01*
X116474875Y-84788375D01*
X116474875Y-84391500D01*
X116601875Y-84391500D01*
X116601875Y-84680225D01*
X116758996Y-84674768D01*
X116836324Y-84670940D01*
X116888788Y-84664991D01*
X116923264Y-84655631D01*
X116946626Y-84641572D01*
X116949496Y-84639070D01*
X116973018Y-84599820D01*
X116983631Y-84544251D01*
X116979535Y-84485788D01*
X116973013Y-84463648D01*
X116944402Y-84428970D01*
X116888894Y-84405743D01*
X116805323Y-84393609D01*
X116737600Y-84391500D01*
X116601875Y-84391500D01*
X116474875Y-84391500D01*
X116474875Y-84276914D01*
X116709031Y-84283285D01*
G36*
X119333232Y-83295080D02*
G01*
X119492632Y-83312727D01*
X119654002Y-83340146D01*
X119717343Y-83353696D01*
X119824500Y-83378044D01*
X119824500Y-83786032D01*
X119699449Y-83740394D01*
X119562551Y-83697497D01*
X119424893Y-83667360D01*
X119292196Y-83650428D01*
X119170180Y-83647149D01*
X119064567Y-83657971D01*
X118981077Y-83683339D01*
X118979403Y-83684125D01*
X118922448Y-83725787D01*
X118888099Y-83781336D01*
X118877141Y-83843416D01*
X118890360Y-83904672D01*
X118928542Y-83957748D01*
X118948512Y-83973410D01*
X118990312Y-83994186D01*
X119050918Y-84015657D01*
X119117797Y-84033433D01*
X119123137Y-84034584D01*
X119290502Y-84071638D01*
X119429525Y-84106415D01*
X119543426Y-84140071D01*
X119635427Y-84173762D01*
X119708747Y-84208646D01*
X119766609Y-84245879D01*
X119805375Y-84279567D01*
X119875489Y-84371756D01*
X119921618Y-84482656D01*
X119942955Y-84609278D01*
X119938689Y-84748631D01*
X119936599Y-84764782D01*
X119905215Y-84901245D01*
X119851622Y-85015592D01*
X119774980Y-85108692D01*
X119674449Y-85181415D01*
X119549189Y-85234629D01*
X119460476Y-85257840D01*
X119404341Y-85265867D01*
X119325642Y-85272087D01*
X119233527Y-85276296D01*
X119137140Y-85278289D01*
X119045628Y-85277863D01*
X118968138Y-85274813D01*
X118919625Y-85269925D01*
X118841498Y-85255574D01*
X118747261Y-85235287D01*
X118651050Y-85212333D01*
X118566998Y-85189978D01*
X118542593Y-85182755D01*
X118443375Y-85152224D01*
X118443375Y-84944788D01*
X118444076Y-84856711D01*
X118446427Y-84796655D01*
X118450795Y-84760917D01*
X118457548Y-84745793D01*
X118463218Y-84745193D01*
X118485925Y-84754451D01*
X118530268Y-84772743D01*
X118588574Y-84796896D01*
X118621180Y-84810437D01*
X118769531Y-84865237D01*
X118905795Y-84899933D01*
X119040397Y-84916809D01*
X119118062Y-84919326D01*
X119238707Y-84912597D01*
X119331999Y-84891081D01*
X119399019Y-84854113D01*
X119440852Y-84801029D01*
X119458580Y-84731164D01*
X119459375Y-84709852D01*
X119452456Y-84647057D01*
X119429887Y-84604068D01*
X119427164Y-84601037D01*
X119405872Y-84579894D01*
X119382489Y-84561901D01*
X119352930Y-84545635D01*
X119313112Y-84529672D01*
X119258948Y-84512589D01*
X119186356Y-84492963D01*
X119091250Y-84469368D01*
X118969546Y-84440383D01*
X118959312Y-84437971D01*
X118803491Y-84392035D01*
X118676321Y-84333747D01*
X118576716Y-84261873D01*
X118503589Y-84175181D01*
X118455852Y-84072438D01*
X118432417Y-83952412D01*
X118430656Y-83838562D01*
X118449049Y-83702890D01*
X118490406Y-83587903D01*
X118556097Y-83491826D01*
X118647494Y-83412888D01*
X118765967Y-83349314D01*
X118827094Y-83325728D01*
X118922733Y-83302529D01*
X119042694Y-83289806D01*
X119181390Y-83287381D01*
X119333232Y-83295080D01*
G37*
X119333232Y-83295080D02*
X119492632Y-83312727D01*
X119654002Y-83340146D01*
X119717343Y-83353696D01*
X119824500Y-83378044D01*
X119824500Y-83786032D01*
X119699449Y-83740394D01*
X119562551Y-83697497D01*
X119424893Y-83667360D01*
X119292196Y-83650428D01*
X119170180Y-83647149D01*
X119064567Y-83657971D01*
X118981077Y-83683339D01*
X118979403Y-83684125D01*
X118922448Y-83725787D01*
X118888099Y-83781336D01*
X118877141Y-83843416D01*
X118890360Y-83904672D01*
X118928542Y-83957748D01*
X118948512Y-83973410D01*
X118990312Y-83994186D01*
X119050918Y-84015657D01*
X119117797Y-84033433D01*
X119123137Y-84034584D01*
X119290502Y-84071638D01*
X119429525Y-84106415D01*
X119543426Y-84140071D01*
X119635427Y-84173762D01*
X119708747Y-84208646D01*
X119766609Y-84245879D01*
X119805375Y-84279567D01*
X119875489Y-84371756D01*
X119921618Y-84482656D01*
X119942955Y-84609278D01*
X119938689Y-84748631D01*
X119936599Y-84764782D01*
X119905215Y-84901245D01*
X119851622Y-85015592D01*
X119774980Y-85108692D01*
X119674449Y-85181415D01*
X119549189Y-85234629D01*
X119460476Y-85257840D01*
X119404341Y-85265867D01*
X119325642Y-85272087D01*
X119233527Y-85276296D01*
X119137140Y-85278289D01*
X119045628Y-85277863D01*
X118968138Y-85274813D01*
X118919625Y-85269925D01*
X118841498Y-85255574D01*
X118747261Y-85235287D01*
X118651050Y-85212333D01*
X118566998Y-85189978D01*
X118542593Y-85182755D01*
X118443375Y-85152224D01*
X118443375Y-84944788D01*
X118444076Y-84856711D01*
X118446427Y-84796655D01*
X118450795Y-84760917D01*
X118457548Y-84745793D01*
X118463218Y-84745193D01*
X118485925Y-84754451D01*
X118530268Y-84772743D01*
X118588574Y-84796896D01*
X118621180Y-84810437D01*
X118769531Y-84865237D01*
X118905795Y-84899933D01*
X119040397Y-84916809D01*
X119118062Y-84919326D01*
X119238707Y-84912597D01*
X119331999Y-84891081D01*
X119399019Y-84854113D01*
X119440852Y-84801029D01*
X119458580Y-84731164D01*
X119459375Y-84709852D01*
X119452456Y-84647057D01*
X119429887Y-84604068D01*
X119427164Y-84601037D01*
X119405872Y-84579894D01*
X119382489Y-84561901D01*
X119352930Y-84545635D01*
X119313112Y-84529672D01*
X119258948Y-84512589D01*
X119186356Y-84492963D01*
X119091250Y-84469368D01*
X118969546Y-84440383D01*
X118959312Y-84437971D01*
X118803491Y-84392035D01*
X118676321Y-84333747D01*
X118576716Y-84261873D01*
X118503589Y-84175181D01*
X118455852Y-84072438D01*
X118432417Y-83952412D01*
X118430656Y-83838562D01*
X118449049Y-83702890D01*
X118490406Y-83587903D01*
X118556097Y-83491826D01*
X118647494Y-83412888D01*
X118765967Y-83349314D01*
X118827094Y-83325728D01*
X118922733Y-83302529D01*
X119042694Y-83289806D01*
X119181390Y-83287381D01*
X119333232Y-83295080D01*
G36*
X127277612Y-83292156D02*
G01*
X127383582Y-83301285D01*
X127469532Y-83316520D01*
X127476250Y-83318274D01*
X127641306Y-83377107D01*
X127783578Y-83458042D01*
X127903030Y-83561034D01*
X127999628Y-83686037D01*
X128073335Y-83833007D01*
X128124118Y-84001897D01*
X128151941Y-84192664D01*
X128151973Y-84193062D01*
X128153268Y-84378881D01*
X128127256Y-84554666D01*
X128075111Y-84717876D01*
X127998004Y-84865967D01*
X127897110Y-84996397D01*
X127773599Y-85106624D01*
X127711234Y-85148784D01*
X127617854Y-85206422D01*
X127671065Y-85263304D01*
X127702428Y-85297239D01*
X127748864Y-85347989D01*
X127804192Y-85408782D01*
X127862235Y-85472843D01*
X127864156Y-85474968D01*
X128004034Y-85629750D01*
X127526267Y-85629750D01*
X127372172Y-85457332D01*
X127218078Y-85284915D01*
X127073320Y-85275628D01*
X126888860Y-85250817D01*
X126723275Y-85201678D01*
X126577517Y-85128895D01*
X126452542Y-85033150D01*
X126349303Y-84915127D01*
X126268754Y-84775509D01*
X126228058Y-84670543D01*
X126198383Y-84547524D01*
X126180710Y-84406124D01*
X126178832Y-84351552D01*
X126687536Y-84351552D01*
X126702708Y-84481149D01*
X126733322Y-84601929D01*
X126779299Y-84708072D01*
X126840559Y-84793759D01*
X126860206Y-84813083D01*
X126951660Y-84875162D01*
X127057457Y-84912508D01*
X127170891Y-84924158D01*
X127285255Y-84909147D01*
X127357187Y-84884518D01*
X127427430Y-84840143D01*
X127495416Y-84772788D01*
X127553816Y-84690816D01*
X127588682Y-84620398D01*
X127603496Y-84579953D01*
X127613849Y-84541069D01*
X127620537Y-84496757D01*
X127624357Y-84440024D01*
X127626107Y-84363878D01*
X127626544Y-84288312D01*
X127626283Y-84193011D01*
X127624482Y-84122254D01*
X127620326Y-84068843D01*
X127613003Y-84025580D01*
X127601700Y-83985267D01*
X127587999Y-83947000D01*
X127531100Y-83835535D01*
X127455067Y-83748836D01*
X127361679Y-83688056D01*
X127252713Y-83654351D01*
X127129948Y-83648874D01*
X127128845Y-83648952D01*
X127015130Y-83669196D01*
X126919674Y-83713460D01*
X126846078Y-83774952D01*
X126782852Y-83861358D01*
X126735464Y-83968040D01*
X126703835Y-84089178D01*
X126687885Y-84218955D01*
X126687536Y-84351552D01*
X126178832Y-84351552D01*
X126175596Y-84257576D01*
X126183597Y-84113112D01*
X126196160Y-84026375D01*
X126242575Y-83859304D01*
X126314735Y-83710183D01*
X126411206Y-83580552D01*
X126530552Y-83471950D01*
X126671338Y-83385918D01*
X126832129Y-83323996D01*
X126857125Y-83317083D01*
X126941378Y-83301595D01*
X127046330Y-83292291D01*
X127161802Y-83289151D01*
X127277612Y-83292156D01*
G37*
X127277612Y-83292156D02*
X127383582Y-83301285D01*
X127469532Y-83316520D01*
X127476250Y-83318274D01*
X127641306Y-83377107D01*
X127783578Y-83458042D01*
X127903030Y-83561034D01*
X127999628Y-83686037D01*
X128073335Y-83833007D01*
X128124118Y-84001897D01*
X128151941Y-84192664D01*
X128151973Y-84193062D01*
X128153268Y-84378881D01*
X128127256Y-84554666D01*
X128075111Y-84717876D01*
X127998004Y-84865967D01*
X127897110Y-84996397D01*
X127773599Y-85106624D01*
X127711234Y-85148784D01*
X127617854Y-85206422D01*
X127671065Y-85263304D01*
X127702428Y-85297239D01*
X127748864Y-85347989D01*
X127804192Y-85408782D01*
X127862235Y-85472843D01*
X127864156Y-85474968D01*
X128004034Y-85629750D01*
X127526267Y-85629750D01*
X127372172Y-85457332D01*
X127218078Y-85284915D01*
X127073320Y-85275628D01*
X126888860Y-85250817D01*
X126723275Y-85201678D01*
X126577517Y-85128895D01*
X126452542Y-85033150D01*
X126349303Y-84915127D01*
X126268754Y-84775509D01*
X126228058Y-84670543D01*
X126198383Y-84547524D01*
X126180710Y-84406124D01*
X126178832Y-84351552D01*
X126687536Y-84351552D01*
X126702708Y-84481149D01*
X126733322Y-84601929D01*
X126779299Y-84708072D01*
X126840559Y-84793759D01*
X126860206Y-84813083D01*
X126951660Y-84875162D01*
X127057457Y-84912508D01*
X127170891Y-84924158D01*
X127285255Y-84909147D01*
X127357187Y-84884518D01*
X127427430Y-84840143D01*
X127495416Y-84772788D01*
X127553816Y-84690816D01*
X127588682Y-84620398D01*
X127603496Y-84579953D01*
X127613849Y-84541069D01*
X127620537Y-84496757D01*
X127624357Y-84440024D01*
X127626107Y-84363878D01*
X127626544Y-84288312D01*
X127626283Y-84193011D01*
X127624482Y-84122254D01*
X127620326Y-84068843D01*
X127613003Y-84025580D01*
X127601700Y-83985267D01*
X127587999Y-83947000D01*
X127531100Y-83835535D01*
X127455067Y-83748836D01*
X127361679Y-83688056D01*
X127252713Y-83654351D01*
X127129948Y-83648874D01*
X127128845Y-83648952D01*
X127015130Y-83669196D01*
X126919674Y-83713460D01*
X126846078Y-83774952D01*
X126782852Y-83861358D01*
X126735464Y-83968040D01*
X126703835Y-84089178D01*
X126687885Y-84218955D01*
X126687536Y-84351552D01*
X126178832Y-84351552D01*
X126175596Y-84257576D01*
X126183597Y-84113112D01*
X126196160Y-84026375D01*
X126242575Y-83859304D01*
X126314735Y-83710183D01*
X126411206Y-83580552D01*
X126530552Y-83471950D01*
X126671338Y-83385918D01*
X126832129Y-83323996D01*
X126857125Y-83317083D01*
X126941378Y-83301595D01*
X127046330Y-83292291D01*
X127161802Y-83289151D01*
X127277612Y-83292156D01*
G36*
X121434999Y-83297735D02*
G01*
X121585822Y-83322149D01*
X121718596Y-83365048D01*
X121838264Y-83428125D01*
X121949768Y-83513074D01*
X121972864Y-83534089D01*
X122078388Y-83654067D01*
X122158852Y-83793200D01*
X122214307Y-83951635D01*
X122244801Y-84129519D01*
X122250387Y-84327001D01*
X122249789Y-84342946D01*
X122244123Y-84438328D01*
X122234902Y-84514109D01*
X122220055Y-84582406D01*
X122197507Y-84655335D01*
X122195190Y-84662076D01*
X122127741Y-84816466D01*
X122039930Y-84950997D01*
X121934097Y-85062756D01*
X121812583Y-85148828D01*
X121797953Y-85156818D01*
X121758218Y-85180169D01*
X121733520Y-85199055D01*
X121729500Y-85205281D01*
X121739595Y-85220788D01*
X121767353Y-85255194D01*
X121808981Y-85303996D01*
X121860683Y-85362689D01*
X121883285Y-85387870D01*
X121941089Y-85451986D01*
X121993668Y-85510402D01*
X122036180Y-85557730D01*
X122063780Y-85588582D01*
X122068615Y-85594031D01*
X122100159Y-85629750D01*
X121863235Y-85629718D01*
X121626312Y-85629687D01*
X121472533Y-85457554D01*
X121318755Y-85285420D01*
X121170908Y-85275187D01*
X120998718Y-85253535D01*
X120848791Y-85212919D01*
X120716639Y-85151471D01*
X120597771Y-85067326D01*
X120537616Y-85011883D01*
X120443244Y-84901598D01*
X120371287Y-84780149D01*
X120319970Y-84643127D01*
X120287518Y-84486126D01*
X120274932Y-84359750D01*
X120275324Y-84280375D01*
X120801294Y-84280375D01*
X120802806Y-84402071D01*
X120808777Y-84498396D01*
X120820559Y-84575576D01*
X120839505Y-84639838D01*
X120866966Y-84697408D01*
X120904225Y-84754417D01*
X120978393Y-84830980D01*
X121070578Y-84885107D01*
X121175225Y-84915626D01*
X121286775Y-84921368D01*
X121399671Y-84901163D01*
X121470802Y-84873723D01*
X121526067Y-84841871D01*
X121575953Y-84803987D01*
X121596371Y-84783595D01*
X121657954Y-84689006D01*
X121702710Y-84574926D01*
X121730725Y-84447508D01*
X121742090Y-84312907D01*
X121736893Y-84177277D01*
X121715223Y-84046773D01*
X121677169Y-83927548D01*
X121622820Y-83825758D01*
X121581796Y-83774952D01*
X121498663Y-83707480D01*
X121401468Y-83665901D01*
X121299029Y-83648952D01*
X121176553Y-83654573D01*
X121066582Y-83688745D01*
X120971610Y-83749890D01*
X120894131Y-83836428D01*
X120839287Y-83940000D01*
X120824665Y-83979724D01*
X120814368Y-84017749D01*
X120807638Y-84060863D01*
X120803719Y-84115853D01*
X120801852Y-84189507D01*
X120801294Y-84280375D01*
X120275324Y-84280375D01*
X120275855Y-84173298D01*
X120302219Y-83998613D01*
X120352851Y-83838112D01*
X120426582Y-83694213D01*
X120522241Y-83569334D01*
X120638656Y-83465893D01*
X120737360Y-83404633D01*
X120835867Y-83357799D01*
X120929441Y-83324942D01*
X121027284Y-83304050D01*
X121138598Y-83293112D01*
X121261187Y-83290111D01*
X121434999Y-83297735D01*
G37*
X121434999Y-83297735D02*
X121585822Y-83322149D01*
X121718596Y-83365048D01*
X121838264Y-83428125D01*
X121949768Y-83513074D01*
X121972864Y-83534089D01*
X122078388Y-83654067D01*
X122158852Y-83793200D01*
X122214307Y-83951635D01*
X122244801Y-84129519D01*
X122250387Y-84327001D01*
X122249789Y-84342946D01*
X122244123Y-84438328D01*
X122234902Y-84514109D01*
X122220055Y-84582406D01*
X122197507Y-84655335D01*
X122195190Y-84662076D01*
X122127741Y-84816466D01*
X122039930Y-84950997D01*
X121934097Y-85062756D01*
X121812583Y-85148828D01*
X121797953Y-85156818D01*
X121758218Y-85180169D01*
X121733520Y-85199055D01*
X121729500Y-85205281D01*
X121739595Y-85220788D01*
X121767353Y-85255194D01*
X121808981Y-85303996D01*
X121860683Y-85362689D01*
X121883285Y-85387870D01*
X121941089Y-85451986D01*
X121993668Y-85510402D01*
X122036180Y-85557730D01*
X122063780Y-85588582D01*
X122068615Y-85594031D01*
X122100159Y-85629750D01*
X121863235Y-85629718D01*
X121626312Y-85629687D01*
X121472533Y-85457554D01*
X121318755Y-85285420D01*
X121170908Y-85275187D01*
X120998718Y-85253535D01*
X120848791Y-85212919D01*
X120716639Y-85151471D01*
X120597771Y-85067326D01*
X120537616Y-85011883D01*
X120443244Y-84901598D01*
X120371287Y-84780149D01*
X120319970Y-84643127D01*
X120287518Y-84486126D01*
X120274932Y-84359750D01*
X120275324Y-84280375D01*
X120801294Y-84280375D01*
X120802806Y-84402071D01*
X120808777Y-84498396D01*
X120820559Y-84575576D01*
X120839505Y-84639838D01*
X120866966Y-84697408D01*
X120904225Y-84754417D01*
X120978393Y-84830980D01*
X121070578Y-84885107D01*
X121175225Y-84915626D01*
X121286775Y-84921368D01*
X121399671Y-84901163D01*
X121470802Y-84873723D01*
X121526067Y-84841871D01*
X121575953Y-84803987D01*
X121596371Y-84783595D01*
X121657954Y-84689006D01*
X121702710Y-84574926D01*
X121730725Y-84447508D01*
X121742090Y-84312907D01*
X121736893Y-84177277D01*
X121715223Y-84046773D01*
X121677169Y-83927548D01*
X121622820Y-83825758D01*
X121581796Y-83774952D01*
X121498663Y-83707480D01*
X121401468Y-83665901D01*
X121299029Y-83648952D01*
X121176553Y-83654573D01*
X121066582Y-83688745D01*
X120971610Y-83749890D01*
X120894131Y-83836428D01*
X120839287Y-83940000D01*
X120824665Y-83979724D01*
X120814368Y-84017749D01*
X120807638Y-84060863D01*
X120803719Y-84115853D01*
X120801852Y-84189507D01*
X120801294Y-84280375D01*
X120275324Y-84280375D01*
X120275855Y-84173298D01*
X120302219Y-83998613D01*
X120352851Y-83838112D01*
X120426582Y-83694213D01*
X120522241Y-83569334D01*
X120638656Y-83465893D01*
X120737360Y-83404633D01*
X120835867Y-83357799D01*
X120929441Y-83324942D01*
X121027284Y-83304050D01*
X121138598Y-83293112D01*
X121261187Y-83290111D01*
X121434999Y-83297735D01*
G36*
X121388187Y-86479062D02*
G01*
X121393162Y-86530656D01*
X121398136Y-86582250D01*
X121046875Y-86582250D01*
X121046875Y-86470050D01*
X121388187Y-86479062D01*
G37*
X121388187Y-86479062D02*
X121393162Y-86530656D01*
X121398136Y-86582250D01*
X121046875Y-86582250D01*
X121046875Y-86470050D01*
X121388187Y-86479062D01*
G36*
X118872000Y-86582250D02*
G01*
X118520738Y-86582250D01*
X118525712Y-86530656D01*
X118530687Y-86479062D01*
X118701343Y-86474556D01*
X118872000Y-86470050D01*
X118872000Y-86582250D01*
G37*
X118872000Y-86582250D02*
X118520738Y-86582250D01*
X118525712Y-86530656D01*
X118530687Y-86479062D01*
X118701343Y-86474556D01*
X118872000Y-86470050D01*
X118872000Y-86582250D01*
G36*
X128604518Y-85930332D02*
G01*
X128681743Y-85958822D01*
X128695684Y-85967232D01*
X128758258Y-86026395D01*
X128796721Y-86101670D01*
X128809643Y-86186952D01*
X128795596Y-86276137D01*
X128778219Y-86319858D01*
X128756808Y-86352981D01*
X128717515Y-86403402D01*
X128664772Y-86465830D01*
X128603009Y-86534976D01*
X128554628Y-86586808D01*
X128362567Y-86788625D01*
X128809750Y-86788625D01*
X128809750Y-86899750D01*
X128206500Y-86899750D01*
X128206500Y-86841789D01*
X128208193Y-86819512D01*
X128215265Y-86797218D01*
X128230707Y-86771003D01*
X128257508Y-86736966D01*
X128298658Y-86691206D01*
X128357146Y-86629820D01*
X128412692Y-86572714D01*
X128504782Y-86476252D01*
X128574938Y-86397152D01*
X128625308Y-86332087D01*
X128658044Y-86277729D01*
X128675294Y-86230753D01*
X128679209Y-86187831D01*
X128676428Y-86164593D01*
X128650282Y-86100519D01*
X128601693Y-86055715D01*
X128534122Y-86031093D01*
X128451031Y-86027566D01*
X128355882Y-86046045D01*
X128300558Y-86065556D01*
X128204748Y-86104487D01*
X128209592Y-86038340D01*
X128213444Y-86001963D01*
X128223199Y-85979602D01*
X128246207Y-85964231D01*
X128289815Y-85948821D01*
X128309687Y-85942620D01*
X128409299Y-85921645D01*
X128510640Y-85917745D01*
X128604518Y-85930332D01*
G37*
X128604518Y-85930332D02*
X128681743Y-85958822D01*
X128695684Y-85967232D01*
X128758258Y-86026395D01*
X128796721Y-86101670D01*
X128809643Y-86186952D01*
X128795596Y-86276137D01*
X128778219Y-86319858D01*
X128756808Y-86352981D01*
X128717515Y-86403402D01*
X128664772Y-86465830D01*
X128603009Y-86534976D01*
X128554628Y-86586808D01*
X128362567Y-86788625D01*
X128809750Y-86788625D01*
X128809750Y-86899750D01*
X128206500Y-86899750D01*
X128206500Y-86841789D01*
X128208193Y-86819512D01*
X128215265Y-86797218D01*
X128230707Y-86771003D01*
X128257508Y-86736966D01*
X128298658Y-86691206D01*
X128357146Y-86629820D01*
X128412692Y-86572714D01*
X128504782Y-86476252D01*
X128574938Y-86397152D01*
X128625308Y-86332087D01*
X128658044Y-86277729D01*
X128675294Y-86230753D01*
X128679209Y-86187831D01*
X128676428Y-86164593D01*
X128650282Y-86100519D01*
X128601693Y-86055715D01*
X128534122Y-86031093D01*
X128451031Y-86027566D01*
X128355882Y-86046045D01*
X128300558Y-86065556D01*
X128204748Y-86104487D01*
X128209592Y-86038340D01*
X128213444Y-86001963D01*
X128223199Y-85979602D01*
X128246207Y-85964231D01*
X128289815Y-85948821D01*
X128309687Y-85942620D01*
X128409299Y-85921645D01*
X128510640Y-85917745D01*
X128604518Y-85930332D01*
G36*
X126537706Y-85935727D02*
G01*
X126616630Y-85973406D01*
X126676880Y-86028552D01*
X126715132Y-86099439D01*
X126728062Y-86184345D01*
X126727027Y-86206638D01*
X126720481Y-86251287D01*
X126706779Y-86294440D01*
X126683196Y-86340103D01*
X126647008Y-86392283D01*
X126595491Y-86454985D01*
X126525919Y-86532214D01*
X126452691Y-86610031D01*
X126282637Y-86788625D01*
X126730125Y-86788625D01*
X126730125Y-86899750D01*
X126126875Y-86899750D01*
X126126875Y-86842386D01*
X126128666Y-86820158D01*
X126136021Y-86797618D01*
X126151911Y-86770856D01*
X126179309Y-86735961D01*
X126221186Y-86689023D01*
X126280514Y-86626133D01*
X126331566Y-86573063D01*
X126406753Y-86493127D01*
X126472473Y-86419216D01*
X126524947Y-86355814D01*
X126560393Y-86307405D01*
X126571360Y-86288592D01*
X126596556Y-86211009D01*
X126591808Y-86143537D01*
X126557000Y-86085405D01*
X126537867Y-86067269D01*
X126477194Y-86035957D01*
X126398406Y-86025738D01*
X126307148Y-86036647D01*
X126217313Y-86065259D01*
X126125189Y-86103140D01*
X126130000Y-86037579D01*
X126134194Y-86000208D01*
X126144975Y-85977729D01*
X126170081Y-85962345D01*
X126217252Y-85946253D01*
X126222125Y-85944729D01*
X126337129Y-85919664D01*
X126443431Y-85917238D01*
X126537706Y-85935727D01*
G37*
X126537706Y-85935727D02*
X126616630Y-85973406D01*
X126676880Y-86028552D01*
X126715132Y-86099439D01*
X126728062Y-86184345D01*
X126727027Y-86206638D01*
X126720481Y-86251287D01*
X126706779Y-86294440D01*
X126683196Y-86340103D01*
X126647008Y-86392283D01*
X126595491Y-86454985D01*
X126525919Y-86532214D01*
X126452691Y-86610031D01*
X126282637Y-86788625D01*
X126730125Y-86788625D01*
X126730125Y-86899750D01*
X126126875Y-86899750D01*
X126126875Y-86842386D01*
X126128666Y-86820158D01*
X126136021Y-86797618D01*
X126151911Y-86770856D01*
X126179309Y-86735961D01*
X126221186Y-86689023D01*
X126280514Y-86626133D01*
X126331566Y-86573063D01*
X126406753Y-86493127D01*
X126472473Y-86419216D01*
X126524947Y-86355814D01*
X126560393Y-86307405D01*
X126571360Y-86288592D01*
X126596556Y-86211009D01*
X126591808Y-86143537D01*
X126557000Y-86085405D01*
X126537867Y-86067269D01*
X126477194Y-86035957D01*
X126398406Y-86025738D01*
X126307148Y-86036647D01*
X126217313Y-86065259D01*
X126125189Y-86103140D01*
X126130000Y-86037579D01*
X126134194Y-86000208D01*
X126144975Y-85977729D01*
X126170081Y-85962345D01*
X126217252Y-85946253D01*
X126222125Y-85944729D01*
X126337129Y-85919664D01*
X126443431Y-85917238D01*
X126537706Y-85935727D01*
G36*
X123424330Y-86403284D02*
G01*
X123467953Y-86518996D01*
X123507716Y-86625189D01*
X123542277Y-86718225D01*
X123570296Y-86794465D01*
X123590430Y-86850270D01*
X123601340Y-86882001D01*
X123602924Y-86887843D01*
X123588730Y-86895359D01*
X123553563Y-86899481D01*
X123540390Y-86899750D01*
X123504843Y-86898212D01*
X123482716Y-86888823D01*
X123466176Y-86864422D01*
X123447388Y-86817844D01*
X123445605Y-86813084D01*
X123425743Y-86757716D01*
X123409504Y-86708451D01*
X123403056Y-86686084D01*
X123392933Y-86645750D01*
X122954500Y-86645750D01*
X122926802Y-86721156D01*
X122899101Y-86796355D01*
X122879070Y-86846825D01*
X122863021Y-86877483D01*
X122847264Y-86893249D01*
X122828112Y-86899042D01*
X122801874Y-86899779D01*
X122792865Y-86899750D01*
X122751732Y-86897697D01*
X122735337Y-86889281D01*
X122736524Y-86871968D01*
X122744287Y-86850597D01*
X122761913Y-86803463D01*
X122787929Y-86734460D01*
X122820862Y-86647482D01*
X122859240Y-86546424D01*
X122867680Y-86524254D01*
X122999500Y-86524254D01*
X123014300Y-86528439D01*
X123054410Y-86531816D01*
X123113392Y-86533998D01*
X123172479Y-86534625D01*
X123345458Y-86534625D01*
X123265361Y-86316343D01*
X123236277Y-86238194D01*
X123210388Y-86170687D01*
X123189910Y-86119455D01*
X123177064Y-86090129D01*
X123174501Y-86085725D01*
X123166528Y-86096291D01*
X123150012Y-86130541D01*
X123127390Y-86182369D01*
X123101100Y-86245669D01*
X123073577Y-86314333D01*
X123047259Y-86382254D01*
X123024584Y-86443327D01*
X123007987Y-86491445D01*
X122999905Y-86520501D01*
X122999500Y-86524254D01*
X122867680Y-86524254D01*
X122901590Y-86435180D01*
X122918150Y-86391750D01*
X123090736Y-85939312D01*
X123168149Y-85934972D01*
X123245562Y-85930631D01*
X123424330Y-86403284D01*
G37*
X123424330Y-86403284D02*
X123467953Y-86518996D01*
X123507716Y-86625189D01*
X123542277Y-86718225D01*
X123570296Y-86794465D01*
X123590430Y-86850270D01*
X123601340Y-86882001D01*
X123602924Y-86887843D01*
X123588730Y-86895359D01*
X123553563Y-86899481D01*
X123540390Y-86899750D01*
X123504843Y-86898212D01*
X123482716Y-86888823D01*
X123466176Y-86864422D01*
X123447388Y-86817844D01*
X123445605Y-86813084D01*
X123425743Y-86757716D01*
X123409504Y-86708451D01*
X123403056Y-86686084D01*
X123392933Y-86645750D01*
X122954500Y-86645750D01*
X122926802Y-86721156D01*
X122899101Y-86796355D01*
X122879070Y-86846825D01*
X122863021Y-86877483D01*
X122847264Y-86893249D01*
X122828112Y-86899042D01*
X122801874Y-86899779D01*
X122792865Y-86899750D01*
X122751732Y-86897697D01*
X122735337Y-86889281D01*
X122736524Y-86871968D01*
X122744287Y-86850597D01*
X122761913Y-86803463D01*
X122787929Y-86734460D01*
X122820862Y-86647482D01*
X122859240Y-86546424D01*
X122867680Y-86524254D01*
X122999500Y-86524254D01*
X123014300Y-86528439D01*
X123054410Y-86531816D01*
X123113392Y-86533998D01*
X123172479Y-86534625D01*
X123345458Y-86534625D01*
X123265361Y-86316343D01*
X123236277Y-86238194D01*
X123210388Y-86170687D01*
X123189910Y-86119455D01*
X123177064Y-86090129D01*
X123174501Y-86085725D01*
X123166528Y-86096291D01*
X123150012Y-86130541D01*
X123127390Y-86182369D01*
X123101100Y-86245669D01*
X123073577Y-86314333D01*
X123047259Y-86382254D01*
X123024584Y-86443327D01*
X123007987Y-86491445D01*
X122999905Y-86520501D01*
X122999500Y-86524254D01*
X122867680Y-86524254D01*
X122901590Y-86435180D01*
X122918150Y-86391750D01*
X123090736Y-85939312D01*
X123168149Y-85934972D01*
X123245562Y-85930631D01*
X123424330Y-86403284D01*
G36*
X120396000Y-86121875D02*
G01*
X120442092Y-86189519D01*
X120482423Y-86246545D01*
X120513566Y-86288270D01*
X120532095Y-86310016D01*
X120535219Y-86312071D01*
X120547618Y-86299406D01*
X120573823Y-86264801D01*
X120610431Y-86212996D01*
X120654037Y-86148731D01*
X120672035Y-86121571D01*
X120797259Y-85931375D01*
X120936258Y-85931375D01*
X120773285Y-86173468D01*
X120610312Y-86415562D01*
X120602375Y-86653687D01*
X120594437Y-86891812D01*
X120538307Y-86896536D01*
X120497853Y-86896770D01*
X120472425Y-86891140D01*
X120470838Y-86889922D01*
X120466799Y-86870780D01*
X120463394Y-86825861D01*
X120460906Y-86761135D01*
X120459617Y-86682574D01*
X120459500Y-86649589D01*
X120459500Y-86420595D01*
X120292070Y-86175985D01*
X120124641Y-85931375D01*
X120268373Y-85931375D01*
X120396000Y-86121875D01*
G37*
X120396000Y-86121875D02*
X120442092Y-86189519D01*
X120482423Y-86246545D01*
X120513566Y-86288270D01*
X120532095Y-86310016D01*
X120535219Y-86312071D01*
X120547618Y-86299406D01*
X120573823Y-86264801D01*
X120610431Y-86212996D01*
X120654037Y-86148731D01*
X120672035Y-86121571D01*
X120797259Y-85931375D01*
X120936258Y-85931375D01*
X120773285Y-86173468D01*
X120610312Y-86415562D01*
X120602375Y-86653687D01*
X120594437Y-86891812D01*
X120538307Y-86896536D01*
X120497853Y-86896770D01*
X120472425Y-86891140D01*
X120470838Y-86889922D01*
X120466799Y-86870780D01*
X120463394Y-86825861D01*
X120460906Y-86761135D01*
X120459617Y-86682574D01*
X120459500Y-86649589D01*
X120459500Y-86420595D01*
X120292070Y-86175985D01*
X120124641Y-85931375D01*
X120268373Y-85931375D01*
X120396000Y-86121875D01*
G36*
X119463343Y-85933918D02*
G01*
X119573853Y-85937631D01*
X119657626Y-85944378D01*
X119719651Y-85955962D01*
X119764919Y-85974185D01*
X119798417Y-86000850D01*
X119825136Y-86037760D01*
X119842623Y-86070957D01*
X119864947Y-86147490D01*
X119861052Y-86223015D01*
X119832994Y-86290260D01*
X119782830Y-86341953D01*
X119762577Y-86353955D01*
X119741972Y-86366116D01*
X119741747Y-86377005D01*
X119764808Y-86393596D01*
X119783808Y-86404928D01*
X119847802Y-86455081D01*
X119885832Y-86517201D01*
X119900490Y-86596566D01*
X119900033Y-86641505D01*
X119894245Y-86701799D01*
X119882324Y-86742706D01*
X119859928Y-86776538D01*
X119847577Y-86790304D01*
X119810793Y-86825129D01*
X119771557Y-86850997D01*
X119724210Y-86869436D01*
X119663095Y-86881976D01*
X119582555Y-86890144D01*
X119476932Y-86895468D01*
X119455406Y-86896222D01*
X119221250Y-86904064D01*
X119221250Y-86439375D01*
X119348250Y-86439375D01*
X119348250Y-86788625D01*
X119483697Y-86788625D01*
X119564239Y-86785576D01*
X119631680Y-86777205D01*
X119672919Y-86766156D01*
X119726777Y-86730804D01*
X119756797Y-86677777D01*
X119765329Y-86610031D01*
X119754195Y-86535055D01*
X119721696Y-86480966D01*
X119687071Y-86457003D01*
X119654382Y-86449206D01*
X119599450Y-86443174D01*
X119531768Y-86439794D01*
X119498315Y-86439375D01*
X119348250Y-86439375D01*
X119221250Y-86439375D01*
X119221250Y-86042500D01*
X119348250Y-86042500D01*
X119348250Y-86328250D01*
X119472881Y-86328250D01*
X119540192Y-86326001D01*
X119601583Y-86320073D01*
X119644803Y-86311695D01*
X119647841Y-86310705D01*
X119694318Y-86285365D01*
X119720075Y-86245363D01*
X119729094Y-86183899D01*
X119729250Y-86171695D01*
X119723354Y-86121894D01*
X119701377Y-86087532D01*
X119687421Y-86075402D01*
X119662440Y-86059404D01*
X119631824Y-86049510D01*
X119587676Y-86044357D01*
X119522097Y-86042579D01*
X119496921Y-86042500D01*
X119348250Y-86042500D01*
X119221250Y-86042500D01*
X119221250Y-85928525D01*
X119463343Y-85933918D01*
G37*
X119463343Y-85933918D02*
X119573853Y-85937631D01*
X119657626Y-85944378D01*
X119719651Y-85955962D01*
X119764919Y-85974185D01*
X119798417Y-86000850D01*
X119825136Y-86037760D01*
X119842623Y-86070957D01*
X119864947Y-86147490D01*
X119861052Y-86223015D01*
X119832994Y-86290260D01*
X119782830Y-86341953D01*
X119762577Y-86353955D01*
X119741972Y-86366116D01*
X119741747Y-86377005D01*
X119764808Y-86393596D01*
X119783808Y-86404928D01*
X119847802Y-86455081D01*
X119885832Y-86517201D01*
X119900490Y-86596566D01*
X119900033Y-86641505D01*
X119894245Y-86701799D01*
X119882324Y-86742706D01*
X119859928Y-86776538D01*
X119847577Y-86790304D01*
X119810793Y-86825129D01*
X119771557Y-86850997D01*
X119724210Y-86869436D01*
X119663095Y-86881976D01*
X119582555Y-86890144D01*
X119476932Y-86895468D01*
X119455406Y-86896222D01*
X119221250Y-86904064D01*
X119221250Y-86439375D01*
X119348250Y-86439375D01*
X119348250Y-86788625D01*
X119483697Y-86788625D01*
X119564239Y-86785576D01*
X119631680Y-86777205D01*
X119672919Y-86766156D01*
X119726777Y-86730804D01*
X119756797Y-86677777D01*
X119765329Y-86610031D01*
X119754195Y-86535055D01*
X119721696Y-86480966D01*
X119687071Y-86457003D01*
X119654382Y-86449206D01*
X119599450Y-86443174D01*
X119531768Y-86439794D01*
X119498315Y-86439375D01*
X119348250Y-86439375D01*
X119221250Y-86439375D01*
X119221250Y-86042500D01*
X119348250Y-86042500D01*
X119348250Y-86328250D01*
X119472881Y-86328250D01*
X119540192Y-86326001D01*
X119601583Y-86320073D01*
X119644803Y-86311695D01*
X119647841Y-86310705D01*
X119694318Y-86285365D01*
X119720075Y-86245363D01*
X119729094Y-86183899D01*
X119729250Y-86171695D01*
X119723354Y-86121894D01*
X119701377Y-86087532D01*
X119687421Y-86075402D01*
X119662440Y-86059404D01*
X119631824Y-86049510D01*
X119587676Y-86044357D01*
X119522097Y-86042579D01*
X119496921Y-86042500D01*
X119348250Y-86042500D01*
X119221250Y-86042500D01*
X119221250Y-85928525D01*
X119463343Y-85933918D01*
G36*
X129647557Y-85923937D02*
G01*
X129728086Y-85955471D01*
X129793233Y-86014142D01*
X129829368Y-86069129D01*
X129868784Y-86167808D01*
X129892959Y-86285343D01*
X129901500Y-86412527D01*
X129894014Y-86540153D01*
X129870110Y-86659012D01*
X129856303Y-86700866D01*
X129807376Y-86791305D01*
X129739273Y-86858067D01*
X129655954Y-86899156D01*
X129561378Y-86912578D01*
X129465025Y-86897976D01*
X129406922Y-86867728D01*
X129349984Y-86815118D01*
X129302231Y-86748787D01*
X129277525Y-86695959D01*
X129260410Y-86627508D01*
X129248321Y-86538505D01*
X129243045Y-86458715D01*
X129369689Y-86458715D01*
X129378037Y-86559951D01*
X129396500Y-86647789D01*
X129406258Y-86675860D01*
X129432165Y-86724880D01*
X129464060Y-86765469D01*
X129472545Y-86773047D01*
X129528873Y-86799050D01*
X129594161Y-86802537D01*
X129655017Y-86783541D01*
X129671587Y-86772548D01*
X129714367Y-86719628D01*
X129744732Y-86638585D01*
X129762350Y-86530661D01*
X129767051Y-86415562D01*
X129763147Y-86300691D01*
X129751325Y-86211369D01*
X129730336Y-86142104D01*
X129698933Y-86087404D01*
X129689965Y-86076138D01*
X129635025Y-86032072D01*
X129572776Y-86015686D01*
X129510437Y-86026430D01*
X129455227Y-86063752D01*
X129430170Y-86095966D01*
X129401695Y-86162706D01*
X129381881Y-86251283D01*
X129371091Y-86352889D01*
X129369689Y-86458715D01*
X129243045Y-86458715D01*
X129241796Y-86439832D01*
X129241373Y-86342369D01*
X129247593Y-86256997D01*
X129253935Y-86219609D01*
X129287699Y-86107550D01*
X129334056Y-86023366D01*
X129395031Y-85964991D01*
X129472647Y-85930360D01*
X129549318Y-85918283D01*
X129647557Y-85923937D01*
G37*
X129647557Y-85923937D02*
X129728086Y-85955471D01*
X129793233Y-86014142D01*
X129829368Y-86069129D01*
X129868784Y-86167808D01*
X129892959Y-86285343D01*
X129901500Y-86412527D01*
X129894014Y-86540153D01*
X129870110Y-86659012D01*
X129856303Y-86700866D01*
X129807376Y-86791305D01*
X129739273Y-86858067D01*
X129655954Y-86899156D01*
X129561378Y-86912578D01*
X129465025Y-86897976D01*
X129406922Y-86867728D01*
X129349984Y-86815118D01*
X129302231Y-86748787D01*
X129277525Y-86695959D01*
X129260410Y-86627508D01*
X129248321Y-86538505D01*
X129243045Y-86458715D01*
X129369689Y-86458715D01*
X129378037Y-86559951D01*
X129396500Y-86647789D01*
X129406258Y-86675860D01*
X129432165Y-86724880D01*
X129464060Y-86765469D01*
X129472545Y-86773047D01*
X129528873Y-86799050D01*
X129594161Y-86802537D01*
X129655017Y-86783541D01*
X129671587Y-86772548D01*
X129714367Y-86719628D01*
X129744732Y-86638585D01*
X129762350Y-86530661D01*
X129767051Y-86415562D01*
X129763147Y-86300691D01*
X129751325Y-86211369D01*
X129730336Y-86142104D01*
X129698933Y-86087404D01*
X129689965Y-86076138D01*
X129635025Y-86032072D01*
X129572776Y-86015686D01*
X129510437Y-86026430D01*
X129455227Y-86063752D01*
X129430170Y-86095966D01*
X129401695Y-86162706D01*
X129381881Y-86251283D01*
X129371091Y-86352889D01*
X129369689Y-86458715D01*
X129243045Y-86458715D01*
X129241796Y-86439832D01*
X129241373Y-86342369D01*
X129247593Y-86256997D01*
X129253935Y-86219609D01*
X129287699Y-86107550D01*
X129334056Y-86023366D01*
X129395031Y-85964991D01*
X129472647Y-85930360D01*
X129549318Y-85918283D01*
X129647557Y-85923937D01*
G36*
X127564985Y-85924127D02*
G01*
X127644852Y-85954090D01*
X127708780Y-86010366D01*
X127750444Y-86075472D01*
X127790661Y-86178937D01*
X127814414Y-86294651D01*
X127822148Y-86415807D01*
X127814308Y-86535594D01*
X127791340Y-86647204D01*
X127753688Y-86743827D01*
X127701863Y-86818586D01*
X127624706Y-86878269D01*
X127536135Y-86908748D01*
X127438478Y-86909441D01*
X127385070Y-86897890D01*
X127314405Y-86861377D01*
X127253850Y-86797188D01*
X127206026Y-86708500D01*
X127188978Y-86660201D01*
X127167309Y-86558070D01*
X127161227Y-86481767D01*
X127288558Y-86481767D01*
X127302178Y-86597525D01*
X127330751Y-86688818D01*
X127373768Y-86754486D01*
X127430722Y-86793367D01*
X127492105Y-86804500D01*
X127544126Y-86798749D01*
X127583110Y-86776557D01*
X127602816Y-86757338D01*
X127634097Y-86712032D01*
X127659950Y-86654704D01*
X127666146Y-86634307D01*
X127676442Y-86572384D01*
X127682610Y-86490895D01*
X127684615Y-86400418D01*
X127682425Y-86311533D01*
X127676008Y-86234819D01*
X127667529Y-86188269D01*
X127634943Y-86110537D01*
X127588359Y-86055252D01*
X127532910Y-86023276D01*
X127473729Y-86015472D01*
X127415949Y-86032702D01*
X127364704Y-86075829D01*
X127330903Y-86131702D01*
X127310344Y-86197560D01*
X127295578Y-86285548D01*
X127290398Y-86342708D01*
X127288558Y-86481767D01*
X127161227Y-86481767D01*
X127158141Y-86443063D01*
X127161103Y-86325281D01*
X127175826Y-86214827D01*
X127201938Y-86121804D01*
X127209349Y-86104301D01*
X127259585Y-86018873D01*
X127321030Y-85961368D01*
X127397908Y-85928734D01*
X127466249Y-85918862D01*
X127564985Y-85924127D01*
G37*
X127564985Y-85924127D02*
X127644852Y-85954090D01*
X127708780Y-86010366D01*
X127750444Y-86075472D01*
X127790661Y-86178937D01*
X127814414Y-86294651D01*
X127822148Y-86415807D01*
X127814308Y-86535594D01*
X127791340Y-86647204D01*
X127753688Y-86743827D01*
X127701863Y-86818586D01*
X127624706Y-86878269D01*
X127536135Y-86908748D01*
X127438478Y-86909441D01*
X127385070Y-86897890D01*
X127314405Y-86861377D01*
X127253850Y-86797188D01*
X127206026Y-86708500D01*
X127188978Y-86660201D01*
X127167309Y-86558070D01*
X127161227Y-86481767D01*
X127288558Y-86481767D01*
X127302178Y-86597525D01*
X127330751Y-86688818D01*
X127373768Y-86754486D01*
X127430722Y-86793367D01*
X127492105Y-86804500D01*
X127544126Y-86798749D01*
X127583110Y-86776557D01*
X127602816Y-86757338D01*
X127634097Y-86712032D01*
X127659950Y-86654704D01*
X127666146Y-86634307D01*
X127676442Y-86572384D01*
X127682610Y-86490895D01*
X127684615Y-86400418D01*
X127682425Y-86311533D01*
X127676008Y-86234819D01*
X127667529Y-86188269D01*
X127634943Y-86110537D01*
X127588359Y-86055252D01*
X127532910Y-86023276D01*
X127473729Y-86015472D01*
X127415949Y-86032702D01*
X127364704Y-86075829D01*
X127330903Y-86131702D01*
X127310344Y-86197560D01*
X127295578Y-86285548D01*
X127290398Y-86342708D01*
X127288558Y-86481767D01*
X127161227Y-86481767D01*
X127158141Y-86443063D01*
X127161103Y-86325281D01*
X127175826Y-86214827D01*
X127201938Y-86121804D01*
X127209349Y-86104301D01*
X127259585Y-86018873D01*
X127321030Y-85961368D01*
X127397908Y-85928734D01*
X127466249Y-85918862D01*
X127564985Y-85924127D01*
G36*
X122151177Y-85919878D02*
G01*
X122232203Y-85926938D01*
X122277187Y-85935700D01*
X122323774Y-85949585D01*
X122347894Y-85964338D01*
X122357861Y-85988594D01*
X122361422Y-86023171D01*
X122366282Y-86089249D01*
X122306966Y-86064465D01*
X122215921Y-86035607D01*
X122124162Y-86022668D01*
X122038539Y-86025290D01*
X121965900Y-86043112D01*
X121913094Y-86075775D01*
X121904266Y-86085613D01*
X121878651Y-86138315D01*
X121874126Y-86196466D01*
X121890759Y-86247956D01*
X121903287Y-86263912D01*
X121938272Y-86287267D01*
X121987484Y-86307499D01*
X122002506Y-86311737D01*
X122101073Y-86336421D01*
X122174140Y-86355834D01*
X122227098Y-86372040D01*
X122265340Y-86387101D01*
X122294257Y-86403080D01*
X122319241Y-86422040D01*
X122340247Y-86440953D01*
X122404187Y-86500596D01*
X122404187Y-86759153D01*
X122339348Y-86819634D01*
X122266150Y-86868596D01*
X122173735Y-86901191D01*
X122071176Y-86915463D01*
X121967545Y-86909457D01*
X121943812Y-86904846D01*
X121910669Y-86896605D01*
X121860785Y-86883324D01*
X121828718Y-86874494D01*
X121780907Y-86860141D01*
X121756125Y-86846268D01*
X121746804Y-86824884D01*
X121745375Y-86787995D01*
X121745375Y-86786483D01*
X121747231Y-86746001D01*
X121755125Y-86730553D01*
X121772543Y-86733523D01*
X121773156Y-86733787D01*
X121886463Y-86774745D01*
X121991245Y-86796931D01*
X122084478Y-86801113D01*
X122163140Y-86788061D01*
X122224209Y-86758542D01*
X122264663Y-86713325D01*
X122281480Y-86653179D01*
X122278110Y-86605400D01*
X122259351Y-86556466D01*
X122221105Y-86518201D01*
X122159373Y-86487900D01*
X122070152Y-86462859D01*
X122065778Y-86461890D01*
X121949503Y-86430509D01*
X121862081Y-86392689D01*
X121800890Y-86346178D01*
X121763310Y-86288722D01*
X121746721Y-86218068D01*
X121745375Y-86186434D01*
X121758339Y-86095488D01*
X121797673Y-86021883D01*
X121856779Y-85968993D01*
X121894913Y-85946564D01*
X121933061Y-85932585D01*
X121981379Y-85924598D01*
X122050024Y-85920146D01*
X122060435Y-85919719D01*
X122151177Y-85919878D01*
G37*
X122151177Y-85919878D02*
X122232203Y-85926938D01*
X122277187Y-85935700D01*
X122323774Y-85949585D01*
X122347894Y-85964338D01*
X122357861Y-85988594D01*
X122361422Y-86023171D01*
X122366282Y-86089249D01*
X122306966Y-86064465D01*
X122215921Y-86035607D01*
X122124162Y-86022668D01*
X122038539Y-86025290D01*
X121965900Y-86043112D01*
X121913094Y-86075775D01*
X121904266Y-86085613D01*
X121878651Y-86138315D01*
X121874126Y-86196466D01*
X121890759Y-86247956D01*
X121903287Y-86263912D01*
X121938272Y-86287267D01*
X121987484Y-86307499D01*
X122002506Y-86311737D01*
X122101073Y-86336421D01*
X122174140Y-86355834D01*
X122227098Y-86372040D01*
X122265340Y-86387101D01*
X122294257Y-86403080D01*
X122319241Y-86422040D01*
X122340247Y-86440953D01*
X122404187Y-86500596D01*
X122404187Y-86759153D01*
X122339348Y-86819634D01*
X122266150Y-86868596D01*
X122173735Y-86901191D01*
X122071176Y-86915463D01*
X121967545Y-86909457D01*
X121943812Y-86904846D01*
X121910669Y-86896605D01*
X121860785Y-86883324D01*
X121828718Y-86874494D01*
X121780907Y-86860141D01*
X121756125Y-86846268D01*
X121746804Y-86824884D01*
X121745375Y-86787995D01*
X121745375Y-86786483D01*
X121747231Y-86746001D01*
X121755125Y-86730553D01*
X121772543Y-86733523D01*
X121773156Y-86733787D01*
X121886463Y-86774745D01*
X121991245Y-86796931D01*
X122084478Y-86801113D01*
X122163140Y-86788061D01*
X122224209Y-86758542D01*
X122264663Y-86713325D01*
X122281480Y-86653179D01*
X122278110Y-86605400D01*
X122259351Y-86556466D01*
X122221105Y-86518201D01*
X122159373Y-86487900D01*
X122070152Y-86462859D01*
X122065778Y-86461890D01*
X121949503Y-86430509D01*
X121862081Y-86392689D01*
X121800890Y-86346178D01*
X121763310Y-86288722D01*
X121746721Y-86218068D01*
X121745375Y-86186434D01*
X121758339Y-86095488D01*
X121797673Y-86021883D01*
X121856779Y-85968993D01*
X121894913Y-85946564D01*
X121933061Y-85932585D01*
X121981379Y-85924598D01*
X122050024Y-85920146D01*
X122060435Y-85919719D01*
X122151177Y-85919878D01*
G36*
X118016002Y-85930170D02*
G01*
X118107874Y-85956906D01*
X118113968Y-85959540D01*
X118158267Y-85980929D01*
X118180606Y-86000168D01*
X118188471Y-86026982D01*
X118189375Y-86057482D01*
X118187789Y-86097594D01*
X118183824Y-86120105D01*
X118182142Y-86121875D01*
X118165801Y-86113763D01*
X118133125Y-86093332D01*
X118117045Y-86082607D01*
X118057233Y-86050060D01*
X117990993Y-86032162D01*
X117909170Y-86027092D01*
X117849639Y-86029396D01*
X117753857Y-86047378D01*
X117677730Y-86089269D01*
X117617630Y-86157392D01*
X117598438Y-86190263D01*
X117580881Y-86229612D01*
X117570122Y-86272303D01*
X117564631Y-86327696D01*
X117562876Y-86405154D01*
X117562866Y-86407625D01*
X117563879Y-86484999D01*
X117568677Y-86540696D01*
X117578892Y-86584713D01*
X117596156Y-86627051D01*
X117599954Y-86634891D01*
X117653835Y-86711225D01*
X117726501Y-86765457D01*
X117813135Y-86796718D01*
X117908915Y-86804141D01*
X118009025Y-86786856D01*
X118108643Y-86743996D01*
X118130798Y-86730545D01*
X118191284Y-86691660D01*
X118186360Y-86759986D01*
X118181049Y-86801716D01*
X118167414Y-86827992D01*
X118137443Y-86849525D01*
X118107941Y-86864794D01*
X118034661Y-86890234D01*
X117944504Y-86905820D01*
X117851185Y-86910208D01*
X117768416Y-86902052D01*
X117756265Y-86899292D01*
X117648094Y-86857449D01*
X117559288Y-86790894D01*
X117488754Y-86698690D01*
X117461953Y-86646987D01*
X117433961Y-86557758D01*
X117420724Y-86451863D01*
X117422551Y-86340910D01*
X117439757Y-86236508D01*
X117449977Y-86202176D01*
X117496560Y-86110179D01*
X117566118Y-86029176D01*
X117650913Y-85966919D01*
X117712041Y-85939672D01*
X117804442Y-85920879D01*
X117910310Y-85917936D01*
X118016002Y-85930170D01*
G37*
X118016002Y-85930170D02*
X118107874Y-85956906D01*
X118113968Y-85959540D01*
X118158267Y-85980929D01*
X118180606Y-86000168D01*
X118188471Y-86026982D01*
X118189375Y-86057482D01*
X118187789Y-86097594D01*
X118183824Y-86120105D01*
X118182142Y-86121875D01*
X118165801Y-86113763D01*
X118133125Y-86093332D01*
X118117045Y-86082607D01*
X118057233Y-86050060D01*
X117990993Y-86032162D01*
X117909170Y-86027092D01*
X117849639Y-86029396D01*
X117753857Y-86047378D01*
X117677730Y-86089269D01*
X117617630Y-86157392D01*
X117598438Y-86190263D01*
X117580881Y-86229612D01*
X117570122Y-86272303D01*
X117564631Y-86327696D01*
X117562876Y-86405154D01*
X117562866Y-86407625D01*
X117563879Y-86484999D01*
X117568677Y-86540696D01*
X117578892Y-86584713D01*
X117596156Y-86627051D01*
X117599954Y-86634891D01*
X117653835Y-86711225D01*
X117726501Y-86765457D01*
X117813135Y-86796718D01*
X117908915Y-86804141D01*
X118009025Y-86786856D01*
X118108643Y-86743996D01*
X118130798Y-86730545D01*
X118191284Y-86691660D01*
X118186360Y-86759986D01*
X118181049Y-86801716D01*
X118167414Y-86827992D01*
X118137443Y-86849525D01*
X118107941Y-86864794D01*
X118034661Y-86890234D01*
X117944504Y-86905820D01*
X117851185Y-86910208D01*
X117768416Y-86902052D01*
X117756265Y-86899292D01*
X117648094Y-86857449D01*
X117559288Y-86790894D01*
X117488754Y-86698690D01*
X117461953Y-86646987D01*
X117433961Y-86557758D01*
X117420724Y-86451863D01*
X117422551Y-86340910D01*
X117439757Y-86236508D01*
X117449977Y-86202176D01*
X117496560Y-86110179D01*
X117566118Y-86029176D01*
X117650913Y-85966919D01*
X117712041Y-85939672D01*
X117804442Y-85920879D01*
X117910310Y-85917936D01*
X118016002Y-85930170D01*
G36*
X116837327Y-85924671D02*
G01*
X116892468Y-85929536D01*
X116936181Y-85939781D01*
X116978597Y-85957151D01*
X116990812Y-85963125D01*
X117036586Y-85987792D01*
X117060945Y-86009218D01*
X117071489Y-86037058D01*
X117075064Y-86070190D01*
X117079941Y-86137567D01*
X116997093Y-86086066D01*
X116947284Y-86057959D01*
X116902016Y-86041371D01*
X116848228Y-86032667D01*
X116792254Y-86029025D01*
X116687659Y-86032805D01*
X116605041Y-86056013D01*
X116539934Y-86100498D01*
X116498775Y-86150645D01*
X116458314Y-86236055D01*
X116436653Y-86335634D01*
X116433368Y-86441082D01*
X116448033Y-86544096D01*
X116480225Y-86636375D01*
X116527226Y-86707158D01*
X116597724Y-86761569D01*
X116684364Y-86793700D01*
X116780313Y-86803185D01*
X116878736Y-86789657D01*
X116972801Y-86752748D01*
X117005511Y-86732835D01*
X117042212Y-86708938D01*
X117066623Y-86694915D01*
X117070892Y-86693375D01*
X117075398Y-86707486D01*
X117077926Y-86742789D01*
X117078125Y-86757753D01*
X117076511Y-86794396D01*
X117067058Y-86817958D01*
X117042847Y-86836802D01*
X116996959Y-86859288D01*
X116992366Y-86861392D01*
X116906611Y-86890026D01*
X116807959Y-86906617D01*
X116711004Y-86909447D01*
X116649500Y-86901796D01*
X116545231Y-86864333D01*
X116453414Y-86802704D01*
X116379810Y-86722095D01*
X116330180Y-86627690D01*
X116323988Y-86608800D01*
X116306463Y-86519847D01*
X116300398Y-86418431D01*
X116305584Y-86317079D01*
X116321810Y-86228314D01*
X116330831Y-86200482D01*
X116375932Y-86106446D01*
X116433762Y-86035156D01*
X116511499Y-85978093D01*
X116524559Y-85970655D01*
X116568117Y-85948117D01*
X116606224Y-85934139D01*
X116648927Y-85926713D01*
X116706270Y-85923829D01*
X116760625Y-85923437D01*
X116837327Y-85924671D01*
G37*
X116837327Y-85924671D02*
X116892468Y-85929536D01*
X116936181Y-85939781D01*
X116978597Y-85957151D01*
X116990812Y-85963125D01*
X117036586Y-85987792D01*
X117060945Y-86009218D01*
X117071489Y-86037058D01*
X117075064Y-86070190D01*
X117079941Y-86137567D01*
X116997093Y-86086066D01*
X116947284Y-86057959D01*
X116902016Y-86041371D01*
X116848228Y-86032667D01*
X116792254Y-86029025D01*
X116687659Y-86032805D01*
X116605041Y-86056013D01*
X116539934Y-86100498D01*
X116498775Y-86150645D01*
X116458314Y-86236055D01*
X116436653Y-86335634D01*
X116433368Y-86441082D01*
X116448033Y-86544096D01*
X116480225Y-86636375D01*
X116527226Y-86707158D01*
X116597724Y-86761569D01*
X116684364Y-86793700D01*
X116780313Y-86803185D01*
X116878736Y-86789657D01*
X116972801Y-86752748D01*
X117005511Y-86732835D01*
X117042212Y-86708938D01*
X117066623Y-86694915D01*
X117070892Y-86693375D01*
X117075398Y-86707486D01*
X117077926Y-86742789D01*
X117078125Y-86757753D01*
X117076511Y-86794396D01*
X117067058Y-86817958D01*
X117042847Y-86836802D01*
X116996959Y-86859288D01*
X116992366Y-86861392D01*
X116906611Y-86890026D01*
X116807959Y-86906617D01*
X116711004Y-86909447D01*
X116649500Y-86901796D01*
X116545231Y-86864333D01*
X116453414Y-86802704D01*
X116379810Y-86722095D01*
X116330180Y-86627690D01*
X116323988Y-86608800D01*
X116306463Y-86519847D01*
X116300398Y-86418431D01*
X116305584Y-86317079D01*
X116321810Y-86228314D01*
X116330831Y-86200482D01*
X116375932Y-86106446D01*
X116433762Y-86035156D01*
X116511499Y-85978093D01*
X116524559Y-85970655D01*
X116568117Y-85948117D01*
X116606224Y-85934139D01*
X116648927Y-85926713D01*
X116706270Y-85923829D01*
X116760625Y-85923437D01*
X116837327Y-85924671D01*
G36*
X130108328Y-82868421D02*
G01*
X130194848Y-82920933D01*
X130260501Y-82984683D01*
X130313874Y-83068631D01*
X130328120Y-83097687D01*
X130365189Y-83177062D01*
X130365189Y-87018812D01*
X130328120Y-87098187D01*
X130276683Y-87189579D01*
X130215430Y-87258204D01*
X130135771Y-87313023D01*
X130108328Y-87327453D01*
X130011178Y-87376000D01*
X116368821Y-87376000D01*
X116271671Y-87327453D01*
X116185151Y-87274941D01*
X116119498Y-87211191D01*
X116066125Y-87127243D01*
X116051879Y-87098187D01*
X116014810Y-87018812D01*
X116014810Y-85928471D01*
X116191183Y-85928471D01*
X116191350Y-86123975D01*
X116191681Y-86303267D01*
X116192171Y-86464238D01*
X116192813Y-86604781D01*
X116193603Y-86722787D01*
X116194535Y-86816147D01*
X116195603Y-86882755D01*
X116196802Y-86920501D01*
X116197277Y-86926730D01*
X116222168Y-87019836D01*
X116270571Y-87097544D01*
X116338434Y-87155002D01*
X116413324Y-87185513D01*
X116432720Y-87186376D01*
X116482824Y-87187213D01*
X116562596Y-87188022D01*
X116670994Y-87188802D01*
X116806977Y-87189551D01*
X116969503Y-87190267D01*
X117157532Y-87190949D01*
X117370022Y-87191596D01*
X117605931Y-87192206D01*
X117864220Y-87192777D01*
X118143845Y-87193308D01*
X118443766Y-87193796D01*
X118762942Y-87194242D01*
X119100332Y-87194642D01*
X119454893Y-87194995D01*
X119825586Y-87195301D01*
X120211368Y-87195556D01*
X120611198Y-87195760D01*
X121024035Y-87195912D01*
X121448838Y-87196008D01*
X121884566Y-87196049D01*
X122330177Y-87196032D01*
X122784629Y-87195956D01*
X123221750Y-87195827D01*
X123774527Y-87195627D01*
X124296445Y-87195425D01*
X124788392Y-87195217D01*
X125251258Y-87195001D01*
X125685934Y-87194771D01*
X126093309Y-87194525D01*
X126474272Y-87194258D01*
X126829714Y-87193966D01*
X127160525Y-87193646D01*
X127467593Y-87193293D01*
X127751810Y-87192904D01*
X128014064Y-87192475D01*
X128255246Y-87192001D01*
X128476245Y-87191480D01*
X128677952Y-87190908D01*
X128861255Y-87190279D01*
X129027045Y-87189591D01*
X129176211Y-87188840D01*
X129309644Y-87188022D01*
X129428233Y-87187132D01*
X129532868Y-87186167D01*
X129624439Y-87185124D01*
X129703835Y-87183998D01*
X129771947Y-87182785D01*
X129829663Y-87181482D01*
X129877875Y-87180085D01*
X129917471Y-87178589D01*
X129949342Y-87176991D01*
X129974377Y-87175288D01*
X129993466Y-87173474D01*
X130007499Y-87171547D01*
X130017366Y-87169502D01*
X130023956Y-87167336D01*
X130026265Y-87166226D01*
X130082935Y-87124482D01*
X130132950Y-87069044D01*
X130166336Y-87011519D01*
X130171035Y-86997745D01*
X130172571Y-86976645D01*
X130174048Y-86925810D01*
X130175456Y-86847258D01*
X130176781Y-86743005D01*
X130178010Y-86615065D01*
X130179132Y-86465456D01*
X130180134Y-86296194D01*
X130181003Y-86109294D01*
X130181727Y-85906773D01*
X130182293Y-85690646D01*
X130182689Y-85462930D01*
X130182902Y-85225641D01*
X130182937Y-85082062D01*
X130182914Y-84797740D01*
X130182827Y-84543447D01*
X130182654Y-84317463D01*
X130182368Y-84118066D01*
X130181947Y-83943536D01*
X130181365Y-83792152D01*
X130180599Y-83662194D01*
X130179624Y-83551940D01*
X130178415Y-83459670D01*
X130176948Y-83383662D01*
X130175200Y-83322197D01*
X130173144Y-83273554D01*
X130170758Y-83236011D01*
X130168017Y-83207847D01*
X130164897Y-83187343D01*
X130161372Y-83172778D01*
X130157419Y-83162429D01*
X130155726Y-83159109D01*
X130113982Y-83102439D01*
X130058544Y-83052424D01*
X130001019Y-83019038D01*
X129987245Y-83014339D01*
X129968276Y-83013430D01*
X129918818Y-83012559D01*
X129840131Y-83011724D01*
X129733475Y-83010926D01*
X129600112Y-83010165D01*
X129441302Y-83009441D01*
X129258305Y-83008753D01*
X129052382Y-83008103D01*
X128824793Y-83007489D01*
X128576800Y-83006911D01*
X128309662Y-83006371D01*
X128024640Y-83005867D01*
X127722995Y-83005401D01*
X127405988Y-83004971D01*
X127074878Y-83004577D01*
X126730926Y-83004221D01*
X126375394Y-83003901D01*
X126009541Y-83003619D01*
X125634628Y-83003373D01*
X125251916Y-83003163D01*
X124862664Y-83002991D01*
X124468135Y-83002855D01*
X124069588Y-83002756D01*
X123668284Y-83002694D01*
X123265483Y-83002669D01*
X122862446Y-83002681D01*
X122460434Y-83002729D01*
X122060707Y-83002814D01*
X121664525Y-83002936D01*
X121273150Y-83003094D01*
X120887841Y-83003290D01*
X120509860Y-83003522D01*
X120140467Y-83003791D01*
X119780922Y-83004097D01*
X119432486Y-83004440D01*
X119096419Y-83004819D01*
X118773983Y-83005235D01*
X118466438Y-83005688D01*
X118175043Y-83006178D01*
X117901061Y-83006705D01*
X117645750Y-83007268D01*
X117410373Y-83007868D01*
X117196189Y-83008505D01*
X117004460Y-83009179D01*
X116836444Y-83009890D01*
X116693404Y-83010637D01*
X116576600Y-83011421D01*
X116487292Y-83012242D01*
X116426741Y-83013100D01*
X116396207Y-83013994D01*
X116392754Y-83014339D01*
X116336576Y-83041810D01*
X116279487Y-83088486D01*
X116233095Y-83144393D01*
X116224273Y-83159109D01*
X116220078Y-83168452D01*
X116216322Y-83181482D01*
X116212976Y-83199946D01*
X116210008Y-83225590D01*
X116207390Y-83260162D01*
X116205091Y-83305408D01*
X116203082Y-83363076D01*
X116201332Y-83434910D01*
X116199811Y-83522660D01*
X116198490Y-83628070D01*
X116197339Y-83752889D01*
X116196327Y-83898862D01*
X116195426Y-84067737D01*
X116194604Y-84261260D01*
X116193832Y-84481179D01*
X116193079Y-84729239D01*
X116192317Y-85007188D01*
X116192266Y-85026500D01*
X116191722Y-85265769D01*
X116191363Y-85497260D01*
X116191185Y-85718864D01*
X116191183Y-85928471D01*
X116014810Y-85928471D01*
X116014810Y-83177062D01*
X116051879Y-83097687D01*
X116103316Y-83006295D01*
X116164569Y-82937670D01*
X116244228Y-82882851D01*
X116271671Y-82868421D01*
X116368821Y-82819875D01*
X130011178Y-82819875D01*
X130108328Y-82868421D01*
G37*
X130108328Y-82868421D02*
X130194848Y-82920933D01*
X130260501Y-82984683D01*
X130313874Y-83068631D01*
X130328120Y-83097687D01*
X130365189Y-83177062D01*
X130365189Y-87018812D01*
X130328120Y-87098187D01*
X130276683Y-87189579D01*
X130215430Y-87258204D01*
X130135771Y-87313023D01*
X130108328Y-87327453D01*
X130011178Y-87376000D01*
X116368821Y-87376000D01*
X116271671Y-87327453D01*
X116185151Y-87274941D01*
X116119498Y-87211191D01*
X116066125Y-87127243D01*
X116051879Y-87098187D01*
X116014810Y-87018812D01*
X116014810Y-85928471D01*
X116191183Y-85928471D01*
X116191350Y-86123975D01*
X116191681Y-86303267D01*
X116192171Y-86464238D01*
X116192813Y-86604781D01*
X116193603Y-86722787D01*
X116194535Y-86816147D01*
X116195603Y-86882755D01*
X116196802Y-86920501D01*
X116197277Y-86926730D01*
X116222168Y-87019836D01*
X116270571Y-87097544D01*
X116338434Y-87155002D01*
X116413324Y-87185513D01*
X116432720Y-87186376D01*
X116482824Y-87187213D01*
X116562596Y-87188022D01*
X116670994Y-87188802D01*
X116806977Y-87189551D01*
X116969503Y-87190267D01*
X117157532Y-87190949D01*
X117370022Y-87191596D01*
X117605931Y-87192206D01*
X117864220Y-87192777D01*
X118143845Y-87193308D01*
X118443766Y-87193796D01*
X118762942Y-87194242D01*
X119100332Y-87194642D01*
X119454893Y-87194995D01*
X119825586Y-87195301D01*
X120211368Y-87195556D01*
X120611198Y-87195760D01*
X121024035Y-87195912D01*
X121448838Y-87196008D01*
X121884566Y-87196049D01*
X122330177Y-87196032D01*
X122784629Y-87195956D01*
X123221750Y-87195827D01*
X123774527Y-87195627D01*
X124296445Y-87195425D01*
X124788392Y-87195217D01*
X125251258Y-87195001D01*
X125685934Y-87194771D01*
X126093309Y-87194525D01*
X126474272Y-87194258D01*
X126829714Y-87193966D01*
X127160525Y-87193646D01*
X127467593Y-87193293D01*
X127751810Y-87192904D01*
X128014064Y-87192475D01*
X128255246Y-87192001D01*
X128476245Y-87191480D01*
X128677952Y-87190908D01*
X128861255Y-87190279D01*
X129027045Y-87189591D01*
X129176211Y-87188840D01*
X129309644Y-87188022D01*
X129428233Y-87187132D01*
X129532868Y-87186167D01*
X129624439Y-87185124D01*
X129703835Y-87183998D01*
X129771947Y-87182785D01*
X129829663Y-87181482D01*
X129877875Y-87180085D01*
X129917471Y-87178589D01*
X129949342Y-87176991D01*
X129974377Y-87175288D01*
X129993466Y-87173474D01*
X130007499Y-87171547D01*
X130017366Y-87169502D01*
X130023956Y-87167336D01*
X130026265Y-87166226D01*
X130082935Y-87124482D01*
X130132950Y-87069044D01*
X130166336Y-87011519D01*
X130171035Y-86997745D01*
X130172571Y-86976645D01*
X130174048Y-86925810D01*
X130175456Y-86847258D01*
X130176781Y-86743005D01*
X130178010Y-86615065D01*
X130179132Y-86465456D01*
X130180134Y-86296194D01*
X130181003Y-86109294D01*
X130181727Y-85906773D01*
X130182293Y-85690646D01*
X130182689Y-85462930D01*
X130182902Y-85225641D01*
X130182937Y-85082062D01*
X130182914Y-84797740D01*
X130182827Y-84543447D01*
X130182654Y-84317463D01*
X130182368Y-84118066D01*
X130181947Y-83943536D01*
X130181365Y-83792152D01*
X130180599Y-83662194D01*
X130179624Y-83551940D01*
X130178415Y-83459670D01*
X130176948Y-83383662D01*
X130175200Y-83322197D01*
X130173144Y-83273554D01*
X130170758Y-83236011D01*
X130168017Y-83207847D01*
X130164897Y-83187343D01*
X130161372Y-83172778D01*
X130157419Y-83162429D01*
X130155726Y-83159109D01*
X130113982Y-83102439D01*
X130058544Y-83052424D01*
X130001019Y-83019038D01*
X129987245Y-83014339D01*
X129968276Y-83013430D01*
X129918818Y-83012559D01*
X129840131Y-83011724D01*
X129733475Y-83010926D01*
X129600112Y-83010165D01*
X129441302Y-83009441D01*
X129258305Y-83008753D01*
X129052382Y-83008103D01*
X128824793Y-83007489D01*
X128576800Y-83006911D01*
X128309662Y-83006371D01*
X128024640Y-83005867D01*
X127722995Y-83005401D01*
X127405988Y-83004971D01*
X127074878Y-83004577D01*
X126730926Y-83004221D01*
X126375394Y-83003901D01*
X126009541Y-83003619D01*
X125634628Y-83003373D01*
X125251916Y-83003163D01*
X124862664Y-83002991D01*
X124468135Y-83002855D01*
X124069588Y-83002756D01*
X123668284Y-83002694D01*
X123265483Y-83002669D01*
X122862446Y-83002681D01*
X122460434Y-83002729D01*
X122060707Y-83002814D01*
X121664525Y-83002936D01*
X121273150Y-83003094D01*
X120887841Y-83003290D01*
X120509860Y-83003522D01*
X120140467Y-83003791D01*
X119780922Y-83004097D01*
X119432486Y-83004440D01*
X119096419Y-83004819D01*
X118773983Y-83005235D01*
X118466438Y-83005688D01*
X118175043Y-83006178D01*
X117901061Y-83006705D01*
X117645750Y-83007268D01*
X117410373Y-83007868D01*
X117196189Y-83008505D01*
X117004460Y-83009179D01*
X116836444Y-83009890D01*
X116693404Y-83010637D01*
X116576600Y-83011421D01*
X116487292Y-83012242D01*
X116426741Y-83013100D01*
X116396207Y-83013994D01*
X116392754Y-83014339D01*
X116336576Y-83041810D01*
X116279487Y-83088486D01*
X116233095Y-83144393D01*
X116224273Y-83159109D01*
X116220078Y-83168452D01*
X116216322Y-83181482D01*
X116212976Y-83199946D01*
X116210008Y-83225590D01*
X116207390Y-83260162D01*
X116205091Y-83305408D01*
X116203082Y-83363076D01*
X116201332Y-83434910D01*
X116199811Y-83522660D01*
X116198490Y-83628070D01*
X116197339Y-83752889D01*
X116196327Y-83898862D01*
X116195426Y-84067737D01*
X116194604Y-84261260D01*
X116193832Y-84481179D01*
X116193079Y-84729239D01*
X116192317Y-85007188D01*
X116192266Y-85026500D01*
X116191722Y-85265769D01*
X116191363Y-85497260D01*
X116191185Y-85718864D01*
X116191183Y-85928471D01*
X116014810Y-85928471D01*
X116014810Y-83177062D01*
X116051879Y-83097687D01*
X116103316Y-83006295D01*
X116164569Y-82937670D01*
X116244228Y-82882851D01*
X116271671Y-82868421D01*
X116368821Y-82819875D01*
X130011178Y-82819875D01*
X130108328Y-82868421D01*
%TO.C,REF\002A\002A*%
G36*
X127103910Y-77252348D02*
G01*
X127182454Y-77252778D01*
X127239298Y-77253942D01*
X127278105Y-77256207D01*
X127302538Y-77259940D01*
X127316262Y-77265506D01*
X127322940Y-77273273D01*
X127326236Y-77283605D01*
X127326556Y-77284943D01*
X127331562Y-77309079D01*
X127340829Y-77356701D01*
X127353392Y-77422741D01*
X127368287Y-77502128D01*
X127384551Y-77589796D01*
X127385119Y-77592875D01*
X127401410Y-77678789D01*
X127416652Y-77754696D01*
X127429861Y-77816045D01*
X127440054Y-77858282D01*
X127446248Y-77876855D01*
X127446543Y-77877184D01*
X127464788Y-77886253D01*
X127502405Y-77901367D01*
X127551271Y-77919262D01*
X127551543Y-77919358D01*
X127613093Y-77942493D01*
X127685657Y-77971965D01*
X127754057Y-78001597D01*
X127757294Y-78003062D01*
X127868702Y-78053626D01*
X128115399Y-77885160D01*
X128191077Y-77833803D01*
X128259631Y-77787889D01*
X128317088Y-77750030D01*
X128359476Y-77722837D01*
X128382825Y-77708921D01*
X128385042Y-77707889D01*
X128402010Y-77712484D01*
X128433701Y-77734655D01*
X128481352Y-77775447D01*
X128546198Y-77835905D01*
X128612397Y-77900227D01*
X128676214Y-77963612D01*
X128733329Y-78021451D01*
X128780305Y-78070175D01*
X128813703Y-78106210D01*
X128830085Y-78125984D01*
X128830694Y-78127002D01*
X128832505Y-78140572D01*
X128825683Y-78162733D01*
X128808540Y-78196478D01*
X128779393Y-78244800D01*
X128736555Y-78310692D01*
X128679448Y-78395517D01*
X128628766Y-78470177D01*
X128583461Y-78537140D01*
X128546150Y-78592516D01*
X128519452Y-78632420D01*
X128505985Y-78652962D01*
X128505137Y-78654356D01*
X128506781Y-78674038D01*
X128519245Y-78712293D01*
X128540048Y-78761889D01*
X128547462Y-78777728D01*
X128579814Y-78848290D01*
X128614328Y-78928353D01*
X128642365Y-78997629D01*
X128662568Y-79049045D01*
X128678615Y-79088119D01*
X128687888Y-79108541D01*
X128689041Y-79110114D01*
X128706096Y-79112721D01*
X128746298Y-79119863D01*
X128804302Y-79130523D01*
X128874763Y-79143685D01*
X128952335Y-79158333D01*
X129031672Y-79173449D01*
X129107431Y-79188018D01*
X129174264Y-79201022D01*
X129226828Y-79211445D01*
X129259776Y-79218270D01*
X129267857Y-79220199D01*
X129276205Y-79224962D01*
X129282506Y-79235718D01*
X129287045Y-79256098D01*
X129290104Y-79289734D01*
X129291967Y-79340255D01*
X129292918Y-79411292D01*
X129293240Y-79506476D01*
X129293257Y-79545492D01*
X129293257Y-79862799D01*
X129217057Y-79877839D01*
X129174663Y-79885995D01*
X129111400Y-79897899D01*
X129034962Y-79912116D01*
X128953043Y-79927210D01*
X128930400Y-79931355D01*
X128854806Y-79946053D01*
X128788953Y-79960505D01*
X128738366Y-79973375D01*
X128708574Y-79983322D01*
X128703612Y-79986287D01*
X128691426Y-80007283D01*
X128673953Y-80047967D01*
X128654577Y-80100322D01*
X128650734Y-80111600D01*
X128625339Y-80181523D01*
X128593817Y-80260418D01*
X128562969Y-80331266D01*
X128562817Y-80331595D01*
X128511447Y-80442733D01*
X128680399Y-80691253D01*
X128849352Y-80939772D01*
X128632429Y-81157058D01*
X128566819Y-81221726D01*
X128506979Y-81278733D01*
X128456267Y-81325033D01*
X128418046Y-81357584D01*
X128395675Y-81373343D01*
X128392466Y-81374343D01*
X128373626Y-81366469D01*
X128335180Y-81344578D01*
X128281330Y-81311267D01*
X128216276Y-81269131D01*
X128145940Y-81221943D01*
X128074555Y-81173810D01*
X128010908Y-81131928D01*
X127959041Y-81098871D01*
X127922995Y-81077218D01*
X127906867Y-81069543D01*
X127887189Y-81076037D01*
X127849875Y-81093150D01*
X127802621Y-81117326D01*
X127797612Y-81120013D01*
X127733977Y-81151927D01*
X127690341Y-81167579D01*
X127663202Y-81167745D01*
X127649057Y-81153204D01*
X127648975Y-81153000D01*
X127641905Y-81135779D01*
X127625042Y-81094899D01*
X127599695Y-81033525D01*
X127567171Y-80954819D01*
X127528778Y-80861947D01*
X127485822Y-80758072D01*
X127444222Y-80657502D01*
X127398504Y-80546516D01*
X127356526Y-80443703D01*
X127319548Y-80352215D01*
X127288827Y-80275201D01*
X127265622Y-80215815D01*
X127251190Y-80177209D01*
X127246743Y-80162800D01*
X127257896Y-80146272D01*
X127287069Y-80119930D01*
X127325971Y-80090887D01*
X127436757Y-79999039D01*
X127523351Y-79893759D01*
X127584716Y-79777266D01*
X127619815Y-79651776D01*
X127627608Y-79519507D01*
X127621943Y-79458457D01*
X127591078Y-79331795D01*
X127537920Y-79219941D01*
X127465767Y-79124001D01*
X127377917Y-79045076D01*
X127277665Y-78984270D01*
X127168310Y-78942687D01*
X127053147Y-78921428D01*
X126935475Y-78921599D01*
X126818590Y-78944301D01*
X126705789Y-78990638D01*
X126600369Y-79061713D01*
X126556368Y-79101911D01*
X126471979Y-79205129D01*
X126413222Y-79317925D01*
X126379704Y-79437010D01*
X126371035Y-79559095D01*
X126386823Y-79680893D01*
X126426678Y-79799116D01*
X126490207Y-79910475D01*
X126577021Y-80011684D01*
X126674029Y-80090887D01*
X126714437Y-80121162D01*
X126742982Y-80147219D01*
X126753257Y-80162825D01*
X126747877Y-80179843D01*
X126732575Y-80220500D01*
X126708612Y-80281642D01*
X126677244Y-80360119D01*
X126639732Y-80452780D01*
X126597333Y-80556472D01*
X126555663Y-80657526D01*
X126509690Y-80768607D01*
X126467107Y-80871541D01*
X126429221Y-80963165D01*
X126397340Y-81040316D01*
X126372771Y-81099831D01*
X126356820Y-81138544D01*
X126350910Y-81153000D01*
X126336948Y-81167685D01*
X126309940Y-81167642D01*
X126266413Y-81152099D01*
X126202890Y-81120284D01*
X126202388Y-81120013D01*
X126154560Y-81095323D01*
X126115897Y-81077338D01*
X126094095Y-81069614D01*
X126093133Y-81069543D01*
X126076721Y-81077378D01*
X126040487Y-81099165D01*
X125988474Y-81132328D01*
X125924725Y-81174291D01*
X125854060Y-81221943D01*
X125782116Y-81270191D01*
X125717274Y-81312151D01*
X125663735Y-81345227D01*
X125625697Y-81366821D01*
X125607533Y-81374343D01*
X125590808Y-81364457D01*
X125557180Y-81336826D01*
X125510010Y-81294495D01*
X125452658Y-81240505D01*
X125388484Y-81177899D01*
X125367497Y-81156983D01*
X125150499Y-80939623D01*
X125315668Y-80697220D01*
X125365864Y-80622781D01*
X125409919Y-80555972D01*
X125445362Y-80500665D01*
X125469719Y-80460729D01*
X125480522Y-80440036D01*
X125480838Y-80438563D01*
X125475143Y-80419058D01*
X125459826Y-80379822D01*
X125437537Y-80327430D01*
X125421893Y-80292355D01*
X125392641Y-80225201D01*
X125365094Y-80157358D01*
X125343737Y-80100034D01*
X125337935Y-80082572D01*
X125321452Y-80035938D01*
X125305340Y-79999905D01*
X125296490Y-79986287D01*
X125276960Y-79977952D01*
X125234334Y-79966137D01*
X125174145Y-79952181D01*
X125101922Y-79937422D01*
X125069600Y-79931355D01*
X124987522Y-79916273D01*
X124908795Y-79901669D01*
X124841109Y-79888980D01*
X124792160Y-79879642D01*
X124782943Y-79877839D01*
X124706743Y-79862799D01*
X124706743Y-79545492D01*
X124706914Y-79441154D01*
X124707616Y-79362213D01*
X124709134Y-79305038D01*
X124711749Y-79265999D01*
X124715746Y-79241465D01*
X124721409Y-79227805D01*
X124729020Y-79221389D01*
X124732143Y-79220199D01*
X124750978Y-79215980D01*
X124792588Y-79207562D01*
X124851630Y-79195961D01*
X124922757Y-79182195D01*
X125000625Y-79167280D01*
X125079887Y-79152232D01*
X125155198Y-79138069D01*
X125221213Y-79125806D01*
X125272587Y-79116461D01*
X125303975Y-79111050D01*
X125310959Y-79110114D01*
X125317285Y-79097596D01*
X125331290Y-79064246D01*
X125350355Y-79016377D01*
X125357634Y-78997629D01*
X125386996Y-78925195D01*
X125421571Y-78845170D01*
X125452537Y-78777728D01*
X125475323Y-78726159D01*
X125490482Y-78683785D01*
X125495542Y-78657834D01*
X125494736Y-78654356D01*
X125484041Y-78637936D01*
X125459620Y-78601417D01*
X125424095Y-78548687D01*
X125380087Y-78483635D01*
X125330217Y-78410151D01*
X125320356Y-78395645D01*
X125262492Y-78309704D01*
X125219956Y-78244261D01*
X125191054Y-78196304D01*
X125174090Y-78162820D01*
X125167367Y-78140795D01*
X125169190Y-78127217D01*
X125169236Y-78127131D01*
X125183586Y-78109297D01*
X125215323Y-78074817D01*
X125261010Y-78027268D01*
X125317204Y-77970222D01*
X125380468Y-77907255D01*
X125387602Y-77900227D01*
X125467330Y-77823020D01*
X125528857Y-77766330D01*
X125573421Y-77729110D01*
X125602257Y-77710315D01*
X125614958Y-77707889D01*
X125633494Y-77718471D01*
X125671961Y-77742916D01*
X125726386Y-77778612D01*
X125792798Y-77822947D01*
X125867225Y-77873311D01*
X125884601Y-77885160D01*
X126131297Y-78053626D01*
X126242706Y-78003062D01*
X126310457Y-77973595D01*
X126383183Y-77943959D01*
X126445703Y-77920330D01*
X126448457Y-77919358D01*
X126497360Y-77901457D01*
X126535057Y-77886320D01*
X126553425Y-77877210D01*
X126553456Y-77877184D01*
X126559285Y-77860717D01*
X126569192Y-77820219D01*
X126582195Y-77760242D01*
X126597309Y-77685340D01*
X126613552Y-77600064D01*
X126614881Y-77592875D01*
X126631175Y-77505014D01*
X126646133Y-77425260D01*
X126658791Y-77358681D01*
X126668186Y-77310347D01*
X126673354Y-77285325D01*
X126673444Y-77284943D01*
X126676589Y-77274299D01*
X126682704Y-77266262D01*
X126695453Y-77260467D01*
X126718500Y-77256547D01*
X126755509Y-77254135D01*
X126810144Y-77252865D01*
X126886067Y-77252371D01*
X126986944Y-77252286D01*
X127000000Y-77252286D01*
X127103910Y-77252348D01*
G37*
X127103910Y-77252348D02*
X127182454Y-77252778D01*
X127239298Y-77253942D01*
X127278105Y-77256207D01*
X127302538Y-77259940D01*
X127316262Y-77265506D01*
X127322940Y-77273273D01*
X127326236Y-77283605D01*
X127326556Y-77284943D01*
X127331562Y-77309079D01*
X127340829Y-77356701D01*
X127353392Y-77422741D01*
X127368287Y-77502128D01*
X127384551Y-77589796D01*
X127385119Y-77592875D01*
X127401410Y-77678789D01*
X127416652Y-77754696D01*
X127429861Y-77816045D01*
X127440054Y-77858282D01*
X127446248Y-77876855D01*
X127446543Y-77877184D01*
X127464788Y-77886253D01*
X127502405Y-77901367D01*
X127551271Y-77919262D01*
X127551543Y-77919358D01*
X127613093Y-77942493D01*
X127685657Y-77971965D01*
X127754057Y-78001597D01*
X127757294Y-78003062D01*
X127868702Y-78053626D01*
X128115399Y-77885160D01*
X128191077Y-77833803D01*
X128259631Y-77787889D01*
X128317088Y-77750030D01*
X128359476Y-77722837D01*
X128382825Y-77708921D01*
X128385042Y-77707889D01*
X128402010Y-77712484D01*
X128433701Y-77734655D01*
X128481352Y-77775447D01*
X128546198Y-77835905D01*
X128612397Y-77900227D01*
X128676214Y-77963612D01*
X128733329Y-78021451D01*
X128780305Y-78070175D01*
X128813703Y-78106210D01*
X128830085Y-78125984D01*
X128830694Y-78127002D01*
X128832505Y-78140572D01*
X128825683Y-78162733D01*
X128808540Y-78196478D01*
X128779393Y-78244800D01*
X128736555Y-78310692D01*
X128679448Y-78395517D01*
X128628766Y-78470177D01*
X128583461Y-78537140D01*
X128546150Y-78592516D01*
X128519452Y-78632420D01*
X128505985Y-78652962D01*
X128505137Y-78654356D01*
X128506781Y-78674038D01*
X128519245Y-78712293D01*
X128540048Y-78761889D01*
X128547462Y-78777728D01*
X128579814Y-78848290D01*
X128614328Y-78928353D01*
X128642365Y-78997629D01*
X128662568Y-79049045D01*
X128678615Y-79088119D01*
X128687888Y-79108541D01*
X128689041Y-79110114D01*
X128706096Y-79112721D01*
X128746298Y-79119863D01*
X128804302Y-79130523D01*
X128874763Y-79143685D01*
X128952335Y-79158333D01*
X129031672Y-79173449D01*
X129107431Y-79188018D01*
X129174264Y-79201022D01*
X129226828Y-79211445D01*
X129259776Y-79218270D01*
X129267857Y-79220199D01*
X129276205Y-79224962D01*
X129282506Y-79235718D01*
X129287045Y-79256098D01*
X129290104Y-79289734D01*
X129291967Y-79340255D01*
X129292918Y-79411292D01*
X129293240Y-79506476D01*
X129293257Y-79545492D01*
X129293257Y-79862799D01*
X129217057Y-79877839D01*
X129174663Y-79885995D01*
X129111400Y-79897899D01*
X129034962Y-79912116D01*
X128953043Y-79927210D01*
X128930400Y-79931355D01*
X128854806Y-79946053D01*
X128788953Y-79960505D01*
X128738366Y-79973375D01*
X128708574Y-79983322D01*
X128703612Y-79986287D01*
X128691426Y-80007283D01*
X128673953Y-80047967D01*
X128654577Y-80100322D01*
X128650734Y-80111600D01*
X128625339Y-80181523D01*
X128593817Y-80260418D01*
X128562969Y-80331266D01*
X128562817Y-80331595D01*
X128511447Y-80442733D01*
X128680399Y-80691253D01*
X128849352Y-80939772D01*
X128632429Y-81157058D01*
X128566819Y-81221726D01*
X128506979Y-81278733D01*
X128456267Y-81325033D01*
X128418046Y-81357584D01*
X128395675Y-81373343D01*
X128392466Y-81374343D01*
X128373626Y-81366469D01*
X128335180Y-81344578D01*
X128281330Y-81311267D01*
X128216276Y-81269131D01*
X128145940Y-81221943D01*
X128074555Y-81173810D01*
X128010908Y-81131928D01*
X127959041Y-81098871D01*
X127922995Y-81077218D01*
X127906867Y-81069543D01*
X127887189Y-81076037D01*
X127849875Y-81093150D01*
X127802621Y-81117326D01*
X127797612Y-81120013D01*
X127733977Y-81151927D01*
X127690341Y-81167579D01*
X127663202Y-81167745D01*
X127649057Y-81153204D01*
X127648975Y-81153000D01*
X127641905Y-81135779D01*
X127625042Y-81094899D01*
X127599695Y-81033525D01*
X127567171Y-80954819D01*
X127528778Y-80861947D01*
X127485822Y-80758072D01*
X127444222Y-80657502D01*
X127398504Y-80546516D01*
X127356526Y-80443703D01*
X127319548Y-80352215D01*
X127288827Y-80275201D01*
X127265622Y-80215815D01*
X127251190Y-80177209D01*
X127246743Y-80162800D01*
X127257896Y-80146272D01*
X127287069Y-80119930D01*
X127325971Y-80090887D01*
X127436757Y-79999039D01*
X127523351Y-79893759D01*
X127584716Y-79777266D01*
X127619815Y-79651776D01*
X127627608Y-79519507D01*
X127621943Y-79458457D01*
X127591078Y-79331795D01*
X127537920Y-79219941D01*
X127465767Y-79124001D01*
X127377917Y-79045076D01*
X127277665Y-78984270D01*
X127168310Y-78942687D01*
X127053147Y-78921428D01*
X126935475Y-78921599D01*
X126818590Y-78944301D01*
X126705789Y-78990638D01*
X126600369Y-79061713D01*
X126556368Y-79101911D01*
X126471979Y-79205129D01*
X126413222Y-79317925D01*
X126379704Y-79437010D01*
X126371035Y-79559095D01*
X126386823Y-79680893D01*
X126426678Y-79799116D01*
X126490207Y-79910475D01*
X126577021Y-80011684D01*
X126674029Y-80090887D01*
X126714437Y-80121162D01*
X126742982Y-80147219D01*
X126753257Y-80162825D01*
X126747877Y-80179843D01*
X126732575Y-80220500D01*
X126708612Y-80281642D01*
X126677244Y-80360119D01*
X126639732Y-80452780D01*
X126597333Y-80556472D01*
X126555663Y-80657526D01*
X126509690Y-80768607D01*
X126467107Y-80871541D01*
X126429221Y-80963165D01*
X126397340Y-81040316D01*
X126372771Y-81099831D01*
X126356820Y-81138544D01*
X126350910Y-81153000D01*
X126336948Y-81167685D01*
X126309940Y-81167642D01*
X126266413Y-81152099D01*
X126202890Y-81120284D01*
X126202388Y-81120013D01*
X126154560Y-81095323D01*
X126115897Y-81077338D01*
X126094095Y-81069614D01*
X126093133Y-81069543D01*
X126076721Y-81077378D01*
X126040487Y-81099165D01*
X125988474Y-81132328D01*
X125924725Y-81174291D01*
X125854060Y-81221943D01*
X125782116Y-81270191D01*
X125717274Y-81312151D01*
X125663735Y-81345227D01*
X125625697Y-81366821D01*
X125607533Y-81374343D01*
X125590808Y-81364457D01*
X125557180Y-81336826D01*
X125510010Y-81294495D01*
X125452658Y-81240505D01*
X125388484Y-81177899D01*
X125367497Y-81156983D01*
X125150499Y-80939623D01*
X125315668Y-80697220D01*
X125365864Y-80622781D01*
X125409919Y-80555972D01*
X125445362Y-80500665D01*
X125469719Y-80460729D01*
X125480522Y-80440036D01*
X125480838Y-80438563D01*
X125475143Y-80419058D01*
X125459826Y-80379822D01*
X125437537Y-80327430D01*
X125421893Y-80292355D01*
X125392641Y-80225201D01*
X125365094Y-80157358D01*
X125343737Y-80100034D01*
X125337935Y-80082572D01*
X125321452Y-80035938D01*
X125305340Y-79999905D01*
X125296490Y-79986287D01*
X125276960Y-79977952D01*
X125234334Y-79966137D01*
X125174145Y-79952181D01*
X125101922Y-79937422D01*
X125069600Y-79931355D01*
X124987522Y-79916273D01*
X124908795Y-79901669D01*
X124841109Y-79888980D01*
X124792160Y-79879642D01*
X124782943Y-79877839D01*
X124706743Y-79862799D01*
X124706743Y-79545492D01*
X124706914Y-79441154D01*
X124707616Y-79362213D01*
X124709134Y-79305038D01*
X124711749Y-79265999D01*
X124715746Y-79241465D01*
X124721409Y-79227805D01*
X124729020Y-79221389D01*
X124732143Y-79220199D01*
X124750978Y-79215980D01*
X124792588Y-79207562D01*
X124851630Y-79195961D01*
X124922757Y-79182195D01*
X125000625Y-79167280D01*
X125079887Y-79152232D01*
X125155198Y-79138069D01*
X125221213Y-79125806D01*
X125272587Y-79116461D01*
X125303975Y-79111050D01*
X125310959Y-79110114D01*
X125317285Y-79097596D01*
X125331290Y-79064246D01*
X125350355Y-79016377D01*
X125357634Y-78997629D01*
X125386996Y-78925195D01*
X125421571Y-78845170D01*
X125452537Y-78777728D01*
X125475323Y-78726159D01*
X125490482Y-78683785D01*
X125495542Y-78657834D01*
X125494736Y-78654356D01*
X125484041Y-78637936D01*
X125459620Y-78601417D01*
X125424095Y-78548687D01*
X125380087Y-78483635D01*
X125330217Y-78410151D01*
X125320356Y-78395645D01*
X125262492Y-78309704D01*
X125219956Y-78244261D01*
X125191054Y-78196304D01*
X125174090Y-78162820D01*
X125167367Y-78140795D01*
X125169190Y-78127217D01*
X125169236Y-78127131D01*
X125183586Y-78109297D01*
X125215323Y-78074817D01*
X125261010Y-78027268D01*
X125317204Y-77970222D01*
X125380468Y-77907255D01*
X125387602Y-77900227D01*
X125467330Y-77823020D01*
X125528857Y-77766330D01*
X125573421Y-77729110D01*
X125602257Y-77710315D01*
X125614958Y-77707889D01*
X125633494Y-77718471D01*
X125671961Y-77742916D01*
X125726386Y-77778612D01*
X125792798Y-77822947D01*
X125867225Y-77873311D01*
X125884601Y-77885160D01*
X126131297Y-78053626D01*
X126242706Y-78003062D01*
X126310457Y-77973595D01*
X126383183Y-77943959D01*
X126445703Y-77920330D01*
X126448457Y-77919358D01*
X126497360Y-77901457D01*
X126535057Y-77886320D01*
X126553425Y-77877210D01*
X126553456Y-77877184D01*
X126559285Y-77860717D01*
X126569192Y-77820219D01*
X126582195Y-77760242D01*
X126597309Y-77685340D01*
X126613552Y-77600064D01*
X126614881Y-77592875D01*
X126631175Y-77505014D01*
X126646133Y-77425260D01*
X126658791Y-77358681D01*
X126668186Y-77310347D01*
X126673354Y-77285325D01*
X126673444Y-77284943D01*
X126676589Y-77274299D01*
X126682704Y-77266262D01*
X126695453Y-77260467D01*
X126718500Y-77256547D01*
X126755509Y-77254135D01*
X126810144Y-77252865D01*
X126886067Y-77252371D01*
X126986944Y-77252286D01*
X127000000Y-77252286D01*
X127103910Y-77252348D01*
G36*
X130153595Y-81976966D02*
G01*
X130211021Y-82014497D01*
X130238719Y-82048096D01*
X130260662Y-82109064D01*
X130262405Y-82157308D01*
X130258457Y-82221816D01*
X130109686Y-82286934D01*
X130037349Y-82320202D01*
X129990084Y-82346964D01*
X129965507Y-82370144D01*
X129961237Y-82392667D01*
X129974889Y-82417455D01*
X129989943Y-82433886D01*
X130033746Y-82460235D01*
X130081389Y-82462081D01*
X130125145Y-82441546D01*
X130157289Y-82400752D01*
X130163038Y-82386347D01*
X130190576Y-82341356D01*
X130222258Y-82322182D01*
X130265714Y-82305779D01*
X130265714Y-82367966D01*
X130261872Y-82410283D01*
X130246823Y-82445969D01*
X130215280Y-82486943D01*
X130210592Y-82492267D01*
X130175506Y-82528720D01*
X130145347Y-82548283D01*
X130107615Y-82557283D01*
X130076335Y-82560230D01*
X130020385Y-82560965D01*
X129980555Y-82551660D01*
X129955708Y-82537846D01*
X129916656Y-82507467D01*
X129889625Y-82474613D01*
X129872517Y-82433294D01*
X129863238Y-82377521D01*
X129859693Y-82301305D01*
X129859410Y-82262622D01*
X129860372Y-82216247D01*
X129948007Y-82216247D01*
X129949023Y-82241126D01*
X129951556Y-82245200D01*
X129968274Y-82239665D01*
X130004249Y-82225017D01*
X130052331Y-82204190D01*
X130062386Y-82199714D01*
X130123152Y-82168814D01*
X130156632Y-82141657D01*
X130163990Y-82116220D01*
X130146391Y-82090481D01*
X130131856Y-82079109D01*
X130079410Y-82056364D01*
X130030322Y-82060122D01*
X129989227Y-82087884D01*
X129960758Y-82137152D01*
X129951631Y-82176257D01*
X129948007Y-82216247D01*
X129860372Y-82216247D01*
X129861285Y-82172249D01*
X129868196Y-82105384D01*
X129881884Y-82056695D01*
X129904096Y-82020849D01*
X129936574Y-81992513D01*
X129950733Y-81983355D01*
X130015053Y-81959507D01*
X130085473Y-81958006D01*
X130153595Y-81976966D01*
G37*
X130153595Y-81976966D02*
X130211021Y-82014497D01*
X130238719Y-82048096D01*
X130260662Y-82109064D01*
X130262405Y-82157308D01*
X130258457Y-82221816D01*
X130109686Y-82286934D01*
X130037349Y-82320202D01*
X129990084Y-82346964D01*
X129965507Y-82370144D01*
X129961237Y-82392667D01*
X129974889Y-82417455D01*
X129989943Y-82433886D01*
X130033746Y-82460235D01*
X130081389Y-82462081D01*
X130125145Y-82441546D01*
X130157289Y-82400752D01*
X130163038Y-82386347D01*
X130190576Y-82341356D01*
X130222258Y-82322182D01*
X130265714Y-82305779D01*
X130265714Y-82367966D01*
X130261872Y-82410283D01*
X130246823Y-82445969D01*
X130215280Y-82486943D01*
X130210592Y-82492267D01*
X130175506Y-82528720D01*
X130145347Y-82548283D01*
X130107615Y-82557283D01*
X130076335Y-82560230D01*
X130020385Y-82560965D01*
X129980555Y-82551660D01*
X129955708Y-82537846D01*
X129916656Y-82507467D01*
X129889625Y-82474613D01*
X129872517Y-82433294D01*
X129863238Y-82377521D01*
X129859693Y-82301305D01*
X129859410Y-82262622D01*
X129860372Y-82216247D01*
X129948007Y-82216247D01*
X129949023Y-82241126D01*
X129951556Y-82245200D01*
X129968274Y-82239665D01*
X130004249Y-82225017D01*
X130052331Y-82204190D01*
X130062386Y-82199714D01*
X130123152Y-82168814D01*
X130156632Y-82141657D01*
X130163990Y-82116220D01*
X130146391Y-82090481D01*
X130131856Y-82079109D01*
X130079410Y-82056364D01*
X130030322Y-82060122D01*
X129989227Y-82087884D01*
X129960758Y-82137152D01*
X129951631Y-82176257D01*
X129948007Y-82216247D01*
X129860372Y-82216247D01*
X129861285Y-82172249D01*
X129868196Y-82105384D01*
X129881884Y-82056695D01*
X129904096Y-82020849D01*
X129936574Y-81992513D01*
X129950733Y-81983355D01*
X130015053Y-81959507D01*
X130085473Y-81958006D01*
X130153595Y-81976966D01*
G36*
X129652600Y-81968752D02*
G01*
X129669948Y-81976334D01*
X129711356Y-82009128D01*
X129746765Y-82056547D01*
X129768664Y-82107151D01*
X129772229Y-82132098D01*
X129760279Y-82166927D01*
X129734067Y-82185357D01*
X129705964Y-82196516D01*
X129693095Y-82198572D01*
X129686829Y-82183649D01*
X129674456Y-82151175D01*
X129669028Y-82136502D01*
X129638590Y-82085744D01*
X129594520Y-82060427D01*
X129538010Y-82061206D01*
X129533825Y-82062203D01*
X129503655Y-82076507D01*
X129481476Y-82104393D01*
X129466327Y-82149287D01*
X129457250Y-82214615D01*
X129453286Y-82303804D01*
X129452914Y-82351261D01*
X129452730Y-82426071D01*
X129451522Y-82477069D01*
X129448309Y-82509471D01*
X129442109Y-82528495D01*
X129431940Y-82539356D01*
X129416819Y-82547272D01*
X129415946Y-82547670D01*
X129386828Y-82559981D01*
X129372403Y-82564514D01*
X129370186Y-82550809D01*
X129368289Y-82512925D01*
X129366847Y-82455715D01*
X129365998Y-82384027D01*
X129365829Y-82331565D01*
X129366692Y-82230047D01*
X129370070Y-82153032D01*
X129377142Y-82096023D01*
X129389088Y-82054526D01*
X129407090Y-82024043D01*
X129432327Y-82000080D01*
X129457247Y-81983355D01*
X129517171Y-81961097D01*
X129586911Y-81956076D01*
X129652600Y-81968752D01*
G37*
X129652600Y-81968752D02*
X129669948Y-81976334D01*
X129711356Y-82009128D01*
X129746765Y-82056547D01*
X129768664Y-82107151D01*
X129772229Y-82132098D01*
X129760279Y-82166927D01*
X129734067Y-82185357D01*
X129705964Y-82196516D01*
X129693095Y-82198572D01*
X129686829Y-82183649D01*
X129674456Y-82151175D01*
X129669028Y-82136502D01*
X129638590Y-82085744D01*
X129594520Y-82060427D01*
X129538010Y-82061206D01*
X129533825Y-82062203D01*
X129503655Y-82076507D01*
X129481476Y-82104393D01*
X129466327Y-82149287D01*
X129457250Y-82214615D01*
X129453286Y-82303804D01*
X129452914Y-82351261D01*
X129452730Y-82426071D01*
X129451522Y-82477069D01*
X129448309Y-82509471D01*
X129442109Y-82528495D01*
X129431940Y-82539356D01*
X129416819Y-82547272D01*
X129415946Y-82547670D01*
X129386828Y-82559981D01*
X129372403Y-82564514D01*
X129370186Y-82550809D01*
X129368289Y-82512925D01*
X129366847Y-82455715D01*
X129365998Y-82384027D01*
X129365829Y-82331565D01*
X129366692Y-82230047D01*
X129370070Y-82153032D01*
X129377142Y-82096023D01*
X129389088Y-82054526D01*
X129407090Y-82024043D01*
X129432327Y-82000080D01*
X129457247Y-81983355D01*
X129517171Y-81961097D01*
X129586911Y-81956076D01*
X129652600Y-81968752D01*
G36*
X129144876Y-81966335D02*
G01*
X129186667Y-81985344D01*
X129219469Y-82008378D01*
X129243503Y-82034133D01*
X129260097Y-82067358D01*
X129270577Y-82112800D01*
X129276271Y-82175207D01*
X129278507Y-82259327D01*
X129278743Y-82314721D01*
X129278743Y-82530826D01*
X129241774Y-82547670D01*
X129212656Y-82559981D01*
X129198231Y-82564514D01*
X129195472Y-82551025D01*
X129193282Y-82514653D01*
X129191942Y-82461542D01*
X129191657Y-82419372D01*
X129190434Y-82358447D01*
X129187136Y-82310115D01*
X129182321Y-82280518D01*
X129178496Y-82274229D01*
X129152783Y-82280652D01*
X129112418Y-82297125D01*
X129065679Y-82319458D01*
X129020845Y-82343457D01*
X128986193Y-82364930D01*
X128970002Y-82379685D01*
X128969938Y-82379845D01*
X128971330Y-82407152D01*
X128983818Y-82433219D01*
X129005743Y-82454392D01*
X129037743Y-82461474D01*
X129065092Y-82460649D01*
X129103826Y-82460042D01*
X129124158Y-82469116D01*
X129136369Y-82493092D01*
X129137909Y-82497613D01*
X129143203Y-82531806D01*
X129129047Y-82552568D01*
X129092148Y-82562462D01*
X129052289Y-82564292D01*
X128980562Y-82550727D01*
X128943432Y-82531355D01*
X128897576Y-82485845D01*
X128873256Y-82429983D01*
X128871073Y-82370957D01*
X128891629Y-82315953D01*
X128922549Y-82281486D01*
X128953420Y-82262189D01*
X129001942Y-82237759D01*
X129058485Y-82212985D01*
X129067910Y-82209199D01*
X129130019Y-82181791D01*
X129165822Y-82157634D01*
X129177337Y-82133619D01*
X129166580Y-82106635D01*
X129148114Y-82085543D01*
X129104469Y-82059572D01*
X129056446Y-82057624D01*
X129012406Y-82077637D01*
X128980709Y-82117551D01*
X128976549Y-82127848D01*
X128952327Y-82165724D01*
X128916965Y-82193842D01*
X128872343Y-82216917D01*
X128872343Y-82151485D01*
X128874969Y-82111506D01*
X128886230Y-82079997D01*
X128911199Y-82046378D01*
X128935169Y-82020484D01*
X128972441Y-81983817D01*
X129001401Y-81964121D01*
X129032505Y-81956220D01*
X129067713Y-81954914D01*
X129144876Y-81966335D01*
G37*
X129144876Y-81966335D02*
X129186667Y-81985344D01*
X129219469Y-82008378D01*
X129243503Y-82034133D01*
X129260097Y-82067358D01*
X129270577Y-82112800D01*
X129276271Y-82175207D01*
X129278507Y-82259327D01*
X129278743Y-82314721D01*
X129278743Y-82530826D01*
X129241774Y-82547670D01*
X129212656Y-82559981D01*
X129198231Y-82564514D01*
X129195472Y-82551025D01*
X129193282Y-82514653D01*
X129191942Y-82461542D01*
X129191657Y-82419372D01*
X129190434Y-82358447D01*
X129187136Y-82310115D01*
X129182321Y-82280518D01*
X129178496Y-82274229D01*
X129152783Y-82280652D01*
X129112418Y-82297125D01*
X129065679Y-82319458D01*
X129020845Y-82343457D01*
X128986193Y-82364930D01*
X128970002Y-82379685D01*
X128969938Y-82379845D01*
X128971330Y-82407152D01*
X128983818Y-82433219D01*
X129005743Y-82454392D01*
X129037743Y-82461474D01*
X129065092Y-82460649D01*
X129103826Y-82460042D01*
X129124158Y-82469116D01*
X129136369Y-82493092D01*
X129137909Y-82497613D01*
X129143203Y-82531806D01*
X129129047Y-82552568D01*
X129092148Y-82562462D01*
X129052289Y-82564292D01*
X128980562Y-82550727D01*
X128943432Y-82531355D01*
X128897576Y-82485845D01*
X128873256Y-82429983D01*
X128871073Y-82370957D01*
X128891629Y-82315953D01*
X128922549Y-82281486D01*
X128953420Y-82262189D01*
X129001942Y-82237759D01*
X129058485Y-82212985D01*
X129067910Y-82209199D01*
X129130019Y-82181791D01*
X129165822Y-82157634D01*
X129177337Y-82133619D01*
X129166580Y-82106635D01*
X129148114Y-82085543D01*
X129104469Y-82059572D01*
X129056446Y-82057624D01*
X129012406Y-82077637D01*
X128980709Y-82117551D01*
X128976549Y-82127848D01*
X128952327Y-82165724D01*
X128916965Y-82193842D01*
X128872343Y-82216917D01*
X128872343Y-82151485D01*
X128874969Y-82111506D01*
X128886230Y-82079997D01*
X128911199Y-82046378D01*
X128935169Y-82020484D01*
X128972441Y-81983817D01*
X129001401Y-81964121D01*
X129032505Y-81956220D01*
X129067713Y-81954914D01*
X129144876Y-81966335D01*
G36*
X128779833Y-81968663D02*
G01*
X128782048Y-82006850D01*
X128783784Y-82064886D01*
X128784899Y-82138180D01*
X128785257Y-82215055D01*
X128785257Y-82475196D01*
X128739326Y-82521127D01*
X128707675Y-82549429D01*
X128679890Y-82560893D01*
X128641915Y-82560168D01*
X128626840Y-82558321D01*
X128579726Y-82552948D01*
X128540756Y-82549869D01*
X128531257Y-82549585D01*
X128499233Y-82551445D01*
X128453432Y-82556114D01*
X128435674Y-82558321D01*
X128392057Y-82561735D01*
X128362745Y-82554320D01*
X128333680Y-82531427D01*
X128323188Y-82521127D01*
X128277257Y-82475196D01*
X128277257Y-81988602D01*
X128314226Y-81971758D01*
X128346059Y-81959282D01*
X128364683Y-81954914D01*
X128369458Y-81968718D01*
X128373921Y-82007286D01*
X128377775Y-82066356D01*
X128380722Y-82141663D01*
X128382143Y-82205286D01*
X128386114Y-82455657D01*
X128420759Y-82460556D01*
X128452268Y-82457131D01*
X128467708Y-82446041D01*
X128472023Y-82425308D01*
X128475708Y-82381145D01*
X128478469Y-82319146D01*
X128480012Y-82244909D01*
X128480235Y-82206706D01*
X128480457Y-81986783D01*
X128526166Y-81970849D01*
X128558518Y-81960015D01*
X128576115Y-81954962D01*
X128576623Y-81954914D01*
X128578388Y-81968648D01*
X128580329Y-82006730D01*
X128582282Y-82064482D01*
X128584084Y-82137227D01*
X128585343Y-82205286D01*
X128589314Y-82455657D01*
X128676400Y-82455657D01*
X128680396Y-82227240D01*
X128684392Y-81998822D01*
X128726847Y-81976868D01*
X128758192Y-81961793D01*
X128776744Y-81954951D01*
X128777279Y-81954914D01*
X128779833Y-81968663D01*
G37*
X128779833Y-81968663D02*
X128782048Y-82006850D01*
X128783784Y-82064886D01*
X128784899Y-82138180D01*
X128785257Y-82215055D01*
X128785257Y-82475196D01*
X128739326Y-82521127D01*
X128707675Y-82549429D01*
X128679890Y-82560893D01*
X128641915Y-82560168D01*
X128626840Y-82558321D01*
X128579726Y-82552948D01*
X128540756Y-82549869D01*
X128531257Y-82549585D01*
X128499233Y-82551445D01*
X128453432Y-82556114D01*
X128435674Y-82558321D01*
X128392057Y-82561735D01*
X128362745Y-82554320D01*
X128333680Y-82531427D01*
X128323188Y-82521127D01*
X128277257Y-82475196D01*
X128277257Y-81988602D01*
X128314226Y-81971758D01*
X128346059Y-81959282D01*
X128364683Y-81954914D01*
X128369458Y-81968718D01*
X128373921Y-82007286D01*
X128377775Y-82066356D01*
X128380722Y-82141663D01*
X128382143Y-82205286D01*
X128386114Y-82455657D01*
X128420759Y-82460556D01*
X128452268Y-82457131D01*
X128467708Y-82446041D01*
X128472023Y-82425308D01*
X128475708Y-82381145D01*
X128478469Y-82319146D01*
X128480012Y-82244909D01*
X128480235Y-82206706D01*
X128480457Y-81986783D01*
X128526166Y-81970849D01*
X128558518Y-81960015D01*
X128576115Y-81954962D01*
X128576623Y-81954914D01*
X128578388Y-81968648D01*
X128580329Y-82006730D01*
X128582282Y-82064482D01*
X128584084Y-82137227D01*
X128585343Y-82205286D01*
X128589314Y-82455657D01*
X128676400Y-82455657D01*
X128680396Y-82227240D01*
X128684392Y-81998822D01*
X128726847Y-81976868D01*
X128758192Y-81961793D01*
X128776744Y-81954951D01*
X128777279Y-81954914D01*
X128779833Y-81968663D01*
G36*
X128190117Y-82075358D02*
G01*
X128189933Y-82183837D01*
X128189219Y-82267287D01*
X128187675Y-82329704D01*
X128185001Y-82375085D01*
X128180894Y-82407429D01*
X128175055Y-82430733D01*
X128167182Y-82448995D01*
X128161221Y-82459418D01*
X128111855Y-82515945D01*
X128049264Y-82551377D01*
X127980013Y-82564090D01*
X127910668Y-82552463D01*
X127869375Y-82531568D01*
X127826025Y-82495422D01*
X127796481Y-82451276D01*
X127778655Y-82393462D01*
X127770463Y-82316313D01*
X127769302Y-82259714D01*
X127769458Y-82255647D01*
X127870857Y-82255647D01*
X127871476Y-82320550D01*
X127874314Y-82363514D01*
X127880840Y-82391622D01*
X127892523Y-82411953D01*
X127906483Y-82427288D01*
X127953365Y-82456890D01*
X128003701Y-82459419D01*
X128051276Y-82434705D01*
X128054979Y-82431356D01*
X128070783Y-82413935D01*
X128080693Y-82393209D01*
X128086058Y-82362362D01*
X128088228Y-82314577D01*
X128088571Y-82261748D01*
X128087827Y-82195381D01*
X128084748Y-82151106D01*
X128078061Y-82122009D01*
X128066496Y-82101173D01*
X128057013Y-82090107D01*
X128012960Y-82062198D01*
X127962224Y-82058843D01*
X127913796Y-82080159D01*
X127904450Y-82088073D01*
X127888540Y-82105647D01*
X127878610Y-82126587D01*
X127873278Y-82157782D01*
X127871163Y-82206122D01*
X127870857Y-82255647D01*
X127769458Y-82255647D01*
X127772810Y-82168568D01*
X127784726Y-82100086D01*
X127807135Y-82048600D01*
X127842124Y-82008443D01*
X127869375Y-81987861D01*
X127918907Y-81965625D01*
X127976316Y-81955304D01*
X128029682Y-81958067D01*
X128059543Y-81969212D01*
X128071261Y-81972383D01*
X128079037Y-81960557D01*
X128084465Y-81928866D01*
X128088571Y-81880593D01*
X128093067Y-81826829D01*
X128099313Y-81794482D01*
X128110676Y-81775985D01*
X128130528Y-81763770D01*
X128143000Y-81758362D01*
X128190171Y-81738601D01*
X128190117Y-82075358D01*
G37*
X128190117Y-82075358D02*
X128189933Y-82183837D01*
X128189219Y-82267287D01*
X128187675Y-82329704D01*
X128185001Y-82375085D01*
X128180894Y-82407429D01*
X128175055Y-82430733D01*
X128167182Y-82448995D01*
X128161221Y-82459418D01*
X128111855Y-82515945D01*
X128049264Y-82551377D01*
X127980013Y-82564090D01*
X127910668Y-82552463D01*
X127869375Y-82531568D01*
X127826025Y-82495422D01*
X127796481Y-82451276D01*
X127778655Y-82393462D01*
X127770463Y-82316313D01*
X127769302Y-82259714D01*
X127769458Y-82255647D01*
X127870857Y-82255647D01*
X127871476Y-82320550D01*
X127874314Y-82363514D01*
X127880840Y-82391622D01*
X127892523Y-82411953D01*
X127906483Y-82427288D01*
X127953365Y-82456890D01*
X128003701Y-82459419D01*
X128051276Y-82434705D01*
X128054979Y-82431356D01*
X128070783Y-82413935D01*
X128080693Y-82393209D01*
X128086058Y-82362362D01*
X128088228Y-82314577D01*
X128088571Y-82261748D01*
X128087827Y-82195381D01*
X128084748Y-82151106D01*
X128078061Y-82122009D01*
X128066496Y-82101173D01*
X128057013Y-82090107D01*
X128012960Y-82062198D01*
X127962224Y-82058843D01*
X127913796Y-82080159D01*
X127904450Y-82088073D01*
X127888540Y-82105647D01*
X127878610Y-82126587D01*
X127873278Y-82157782D01*
X127871163Y-82206122D01*
X127870857Y-82255647D01*
X127769458Y-82255647D01*
X127772810Y-82168568D01*
X127784726Y-82100086D01*
X127807135Y-82048600D01*
X127842124Y-82008443D01*
X127869375Y-81987861D01*
X127918907Y-81965625D01*
X127976316Y-81955304D01*
X128029682Y-81958067D01*
X128059543Y-81969212D01*
X128071261Y-81972383D01*
X128079037Y-81960557D01*
X128084465Y-81928866D01*
X128088571Y-81880593D01*
X128093067Y-81826829D01*
X128099313Y-81794482D01*
X128110676Y-81775985D01*
X128130528Y-81763770D01*
X128143000Y-81758362D01*
X128190171Y-81738601D01*
X128190117Y-82075358D01*
G36*
X127529926Y-81959755D02*
G01*
X127595858Y-81984084D01*
X127649273Y-82027117D01*
X127670164Y-82057409D01*
X127692939Y-82112994D01*
X127692466Y-82153186D01*
X127668562Y-82180217D01*
X127659717Y-82184813D01*
X127621530Y-82199144D01*
X127602028Y-82195472D01*
X127595422Y-82171407D01*
X127595086Y-82158114D01*
X127582992Y-82109210D01*
X127551471Y-82074999D01*
X127507659Y-82058476D01*
X127458695Y-82062634D01*
X127418894Y-82084227D01*
X127405450Y-82096544D01*
X127395921Y-82111487D01*
X127389485Y-82134075D01*
X127385317Y-82169328D01*
X127382597Y-82222266D01*
X127380502Y-82297907D01*
X127379960Y-82321857D01*
X127377981Y-82403790D01*
X127375731Y-82461455D01*
X127372357Y-82499608D01*
X127367006Y-82523004D01*
X127358824Y-82536398D01*
X127346959Y-82544545D01*
X127339362Y-82548144D01*
X127307102Y-82560452D01*
X127288111Y-82564514D01*
X127281836Y-82550948D01*
X127278006Y-82509934D01*
X127276600Y-82440999D01*
X127277598Y-82343669D01*
X127277908Y-82328657D01*
X127280101Y-82239859D01*
X127282693Y-82175019D01*
X127286382Y-82129067D01*
X127291864Y-82096935D01*
X127299835Y-82073553D01*
X127310993Y-82053852D01*
X127316830Y-82045410D01*
X127350296Y-82008057D01*
X127387727Y-81979003D01*
X127392309Y-81976467D01*
X127459426Y-81956443D01*
X127529926Y-81959755D01*
G37*
X127529926Y-81959755D02*
X127595858Y-81984084D01*
X127649273Y-82027117D01*
X127670164Y-82057409D01*
X127692939Y-82112994D01*
X127692466Y-82153186D01*
X127668562Y-82180217D01*
X127659717Y-82184813D01*
X127621530Y-82199144D01*
X127602028Y-82195472D01*
X127595422Y-82171407D01*
X127595086Y-82158114D01*
X127582992Y-82109210D01*
X127551471Y-82074999D01*
X127507659Y-82058476D01*
X127458695Y-82062634D01*
X127418894Y-82084227D01*
X127405450Y-82096544D01*
X127395921Y-82111487D01*
X127389485Y-82134075D01*
X127385317Y-82169328D01*
X127382597Y-82222266D01*
X127380502Y-82297907D01*
X127379960Y-82321857D01*
X127377981Y-82403790D01*
X127375731Y-82461455D01*
X127372357Y-82499608D01*
X127367006Y-82523004D01*
X127358824Y-82536398D01*
X127346959Y-82544545D01*
X127339362Y-82548144D01*
X127307102Y-82560452D01*
X127288111Y-82564514D01*
X127281836Y-82550948D01*
X127278006Y-82509934D01*
X127276600Y-82440999D01*
X127277598Y-82343669D01*
X127277908Y-82328657D01*
X127280101Y-82239859D01*
X127282693Y-82175019D01*
X127286382Y-82129067D01*
X127291864Y-82096935D01*
X127299835Y-82073553D01*
X127310993Y-82053852D01*
X127316830Y-82045410D01*
X127350296Y-82008057D01*
X127387727Y-81979003D01*
X127392309Y-81976467D01*
X127459426Y-81956443D01*
X127529926Y-81959755D01*
G36*
X127039744Y-81960968D02*
G01*
X127096616Y-81982087D01*
X127097267Y-81982493D01*
X127132440Y-82008380D01*
X127158407Y-82038633D01*
X127176670Y-82078058D01*
X127188732Y-82131462D01*
X127196096Y-82203651D01*
X127200264Y-82299432D01*
X127200629Y-82313078D01*
X127205876Y-82518842D01*
X127161716Y-82541678D01*
X127129763Y-82557110D01*
X127110470Y-82564423D01*
X127109578Y-82564514D01*
X127106239Y-82551022D01*
X127103587Y-82514626D01*
X127101956Y-82461452D01*
X127101600Y-82418393D01*
X127101592Y-82348641D01*
X127098403Y-82304837D01*
X127087288Y-82283944D01*
X127063501Y-82282925D01*
X127022296Y-82298741D01*
X126960086Y-82327815D01*
X126914341Y-82351963D01*
X126890813Y-82372913D01*
X126883896Y-82395747D01*
X126883886Y-82396877D01*
X126895299Y-82436212D01*
X126929092Y-82457462D01*
X126980809Y-82460539D01*
X127018061Y-82460006D01*
X127037703Y-82470735D01*
X127049952Y-82496505D01*
X127057002Y-82529337D01*
X127046842Y-82547966D01*
X127043017Y-82550632D01*
X127007001Y-82561340D01*
X126956566Y-82562856D01*
X126904626Y-82555759D01*
X126867822Y-82542788D01*
X126816938Y-82499585D01*
X126788014Y-82439446D01*
X126782286Y-82392462D01*
X126786657Y-82350082D01*
X126802475Y-82315488D01*
X126833797Y-82284763D01*
X126884678Y-82253990D01*
X126959176Y-82219252D01*
X126963714Y-82217288D01*
X127030821Y-82186287D01*
X127072232Y-82160862D01*
X127089981Y-82138014D01*
X127086107Y-82114745D01*
X127062643Y-82088056D01*
X127055627Y-82081914D01*
X127008630Y-82058100D01*
X126959933Y-82059103D01*
X126917522Y-82082451D01*
X126889384Y-82125675D01*
X126886769Y-82134160D01*
X126861308Y-82175308D01*
X126829001Y-82195128D01*
X126782286Y-82214770D01*
X126782286Y-82163950D01*
X126796496Y-82090082D01*
X126838675Y-82022327D01*
X126860624Y-81999661D01*
X126910517Y-81970569D01*
X126973967Y-81957400D01*
X127039744Y-81960968D01*
G37*
X127039744Y-81960968D02*
X127096616Y-81982087D01*
X127097267Y-81982493D01*
X127132440Y-82008380D01*
X127158407Y-82038633D01*
X127176670Y-82078058D01*
X127188732Y-82131462D01*
X127196096Y-82203651D01*
X127200264Y-82299432D01*
X127200629Y-82313078D01*
X127205876Y-82518842D01*
X127161716Y-82541678D01*
X127129763Y-82557110D01*
X127110470Y-82564423D01*
X127109578Y-82564514D01*
X127106239Y-82551022D01*
X127103587Y-82514626D01*
X127101956Y-82461452D01*
X127101600Y-82418393D01*
X127101592Y-82348641D01*
X127098403Y-82304837D01*
X127087288Y-82283944D01*
X127063501Y-82282925D01*
X127022296Y-82298741D01*
X126960086Y-82327815D01*
X126914341Y-82351963D01*
X126890813Y-82372913D01*
X126883896Y-82395747D01*
X126883886Y-82396877D01*
X126895299Y-82436212D01*
X126929092Y-82457462D01*
X126980809Y-82460539D01*
X127018061Y-82460006D01*
X127037703Y-82470735D01*
X127049952Y-82496505D01*
X127057002Y-82529337D01*
X127046842Y-82547966D01*
X127043017Y-82550632D01*
X127007001Y-82561340D01*
X126956566Y-82562856D01*
X126904626Y-82555759D01*
X126867822Y-82542788D01*
X126816938Y-82499585D01*
X126788014Y-82439446D01*
X126782286Y-82392462D01*
X126786657Y-82350082D01*
X126802475Y-82315488D01*
X126833797Y-82284763D01*
X126884678Y-82253990D01*
X126959176Y-82219252D01*
X126963714Y-82217288D01*
X127030821Y-82186287D01*
X127072232Y-82160862D01*
X127089981Y-82138014D01*
X127086107Y-82114745D01*
X127062643Y-82088056D01*
X127055627Y-82081914D01*
X127008630Y-82058100D01*
X126959933Y-82059103D01*
X126917522Y-82082451D01*
X126889384Y-82125675D01*
X126886769Y-82134160D01*
X126861308Y-82175308D01*
X126829001Y-82195128D01*
X126782286Y-82214770D01*
X126782286Y-82163950D01*
X126796496Y-82090082D01*
X126838675Y-82022327D01*
X126860624Y-81999661D01*
X126910517Y-81970569D01*
X126973967Y-81957400D01*
X127039744Y-81960968D01*
G36*
X126375886Y-81861289D02*
G01*
X126380139Y-81920613D01*
X126385025Y-81955572D01*
X126391795Y-81970820D01*
X126401702Y-81971015D01*
X126404914Y-81969195D01*
X126447644Y-81956015D01*
X126503227Y-81956785D01*
X126559737Y-81970333D01*
X126595082Y-81987861D01*
X126631321Y-82015861D01*
X126657813Y-82047549D01*
X126675999Y-82087813D01*
X126687322Y-82141543D01*
X126693222Y-82213626D01*
X126695143Y-82308951D01*
X126695177Y-82327237D01*
X126695200Y-82532646D01*
X126649491Y-82548580D01*
X126617027Y-82559420D01*
X126599215Y-82564468D01*
X126598691Y-82564514D01*
X126596937Y-82550828D01*
X126595444Y-82513076D01*
X126594326Y-82456224D01*
X126593697Y-82385234D01*
X126593600Y-82342073D01*
X126593398Y-82256973D01*
X126592358Y-82195981D01*
X126589831Y-82154177D01*
X126585164Y-82126642D01*
X126577707Y-82108456D01*
X126566811Y-82094698D01*
X126560007Y-82088073D01*
X126513272Y-82061375D01*
X126462272Y-82059375D01*
X126416001Y-82081955D01*
X126407444Y-82090107D01*
X126394893Y-82105436D01*
X126386188Y-82123618D01*
X126380631Y-82149909D01*
X126377526Y-82189562D01*
X126376176Y-82247832D01*
X126375886Y-82328173D01*
X126375886Y-82532646D01*
X126330177Y-82548580D01*
X126297713Y-82559420D01*
X126279901Y-82564468D01*
X126279377Y-82564514D01*
X126278037Y-82550623D01*
X126276828Y-82511439D01*
X126275801Y-82450700D01*
X126275002Y-82372141D01*
X126274481Y-82279498D01*
X126274286Y-82176509D01*
X126274286Y-81779342D01*
X126321457Y-81759444D01*
X126368629Y-81739547D01*
X126375886Y-81861289D01*
G37*
X126375886Y-81861289D02*
X126380139Y-81920613D01*
X126385025Y-81955572D01*
X126391795Y-81970820D01*
X126401702Y-81971015D01*
X126404914Y-81969195D01*
X126447644Y-81956015D01*
X126503227Y-81956785D01*
X126559737Y-81970333D01*
X126595082Y-81987861D01*
X126631321Y-82015861D01*
X126657813Y-82047549D01*
X126675999Y-82087813D01*
X126687322Y-82141543D01*
X126693222Y-82213626D01*
X126695143Y-82308951D01*
X126695177Y-82327237D01*
X126695200Y-82532646D01*
X126649491Y-82548580D01*
X126617027Y-82559420D01*
X126599215Y-82564468D01*
X126598691Y-82564514D01*
X126596937Y-82550828D01*
X126595444Y-82513076D01*
X126594326Y-82456224D01*
X126593697Y-82385234D01*
X126593600Y-82342073D01*
X126593398Y-82256973D01*
X126592358Y-82195981D01*
X126589831Y-82154177D01*
X126585164Y-82126642D01*
X126577707Y-82108456D01*
X126566811Y-82094698D01*
X126560007Y-82088073D01*
X126513272Y-82061375D01*
X126462272Y-82059375D01*
X126416001Y-82081955D01*
X126407444Y-82090107D01*
X126394893Y-82105436D01*
X126386188Y-82123618D01*
X126380631Y-82149909D01*
X126377526Y-82189562D01*
X126376176Y-82247832D01*
X126375886Y-82328173D01*
X126375886Y-82532646D01*
X126330177Y-82548580D01*
X126297713Y-82559420D01*
X126279901Y-82564468D01*
X126279377Y-82564514D01*
X126278037Y-82550623D01*
X126276828Y-82511439D01*
X126275801Y-82450700D01*
X126275002Y-82372141D01*
X126274481Y-82279498D01*
X126274286Y-82176509D01*
X126274286Y-81779342D01*
X126321457Y-81759444D01*
X126368629Y-81739547D01*
X126375886Y-81861289D01*
G36*
X125168303Y-81941239D02*
G01*
X125225527Y-81979735D01*
X125269749Y-82035335D01*
X125296167Y-82106086D01*
X125301510Y-82158162D01*
X125300903Y-82179893D01*
X125295822Y-82196531D01*
X125281855Y-82211437D01*
X125254589Y-82227973D01*
X125209612Y-82249498D01*
X125142511Y-82279374D01*
X125142171Y-82279524D01*
X125080407Y-82307813D01*
X125029759Y-82332933D01*
X124995404Y-82352179D01*
X124982518Y-82362848D01*
X124982514Y-82362934D01*
X124993872Y-82386166D01*
X125020431Y-82411774D01*
X125050923Y-82430221D01*
X125066370Y-82433886D01*
X125108515Y-82421212D01*
X125144808Y-82389471D01*
X125162517Y-82354572D01*
X125179552Y-82328845D01*
X125212922Y-82299546D01*
X125252149Y-82274235D01*
X125286756Y-82260471D01*
X125293993Y-82259714D01*
X125302139Y-82272160D01*
X125302630Y-82303972D01*
X125296643Y-82346866D01*
X125285357Y-82392558D01*
X125269950Y-82432761D01*
X125269171Y-82434322D01*
X125222804Y-82499062D01*
X125162711Y-82543097D01*
X125094465Y-82564711D01*
X125023638Y-82562185D01*
X124955804Y-82533804D01*
X124952788Y-82531808D01*
X124899427Y-82483448D01*
X124864340Y-82420352D01*
X124844922Y-82337387D01*
X124842316Y-82314078D01*
X124837701Y-82204055D01*
X124843233Y-82152748D01*
X124982514Y-82152748D01*
X124984324Y-82184753D01*
X124994222Y-82194093D01*
X125018898Y-82187105D01*
X125057795Y-82170587D01*
X125101275Y-82149881D01*
X125102356Y-82149333D01*
X125139209Y-82129949D01*
X125154000Y-82117013D01*
X125150353Y-82103451D01*
X125134995Y-82085632D01*
X125095923Y-82059845D01*
X125053846Y-82057950D01*
X125016103Y-82076717D01*
X124990034Y-82112915D01*
X124982514Y-82152748D01*
X124843233Y-82152748D01*
X124847194Y-82116027D01*
X124871550Y-82046212D01*
X124905456Y-81997302D01*
X124966653Y-81947878D01*
X125034063Y-81923359D01*
X125102880Y-81921797D01*
X125168303Y-81941239D01*
G37*
X125168303Y-81941239D02*
X125225527Y-81979735D01*
X125269749Y-82035335D01*
X125296167Y-82106086D01*
X125301510Y-82158162D01*
X125300903Y-82179893D01*
X125295822Y-82196531D01*
X125281855Y-82211437D01*
X125254589Y-82227973D01*
X125209612Y-82249498D01*
X125142511Y-82279374D01*
X125142171Y-82279524D01*
X125080407Y-82307813D01*
X125029759Y-82332933D01*
X124995404Y-82352179D01*
X124982518Y-82362848D01*
X124982514Y-82362934D01*
X124993872Y-82386166D01*
X125020431Y-82411774D01*
X125050923Y-82430221D01*
X125066370Y-82433886D01*
X125108515Y-82421212D01*
X125144808Y-82389471D01*
X125162517Y-82354572D01*
X125179552Y-82328845D01*
X125212922Y-82299546D01*
X125252149Y-82274235D01*
X125286756Y-82260471D01*
X125293993Y-82259714D01*
X125302139Y-82272160D01*
X125302630Y-82303972D01*
X125296643Y-82346866D01*
X125285357Y-82392558D01*
X125269950Y-82432761D01*
X125269171Y-82434322D01*
X125222804Y-82499062D01*
X125162711Y-82543097D01*
X125094465Y-82564711D01*
X125023638Y-82562185D01*
X124955804Y-82533804D01*
X124952788Y-82531808D01*
X124899427Y-82483448D01*
X124864340Y-82420352D01*
X124844922Y-82337387D01*
X124842316Y-82314078D01*
X124837701Y-82204055D01*
X124843233Y-82152748D01*
X124982514Y-82152748D01*
X124984324Y-82184753D01*
X124994222Y-82194093D01*
X125018898Y-82187105D01*
X125057795Y-82170587D01*
X125101275Y-82149881D01*
X125102356Y-82149333D01*
X125139209Y-82129949D01*
X125154000Y-82117013D01*
X125150353Y-82103451D01*
X125134995Y-82085632D01*
X125095923Y-82059845D01*
X125053846Y-82057950D01*
X125016103Y-82076717D01*
X124990034Y-82112915D01*
X124982514Y-82152748D01*
X124843233Y-82152748D01*
X124847194Y-82116027D01*
X124871550Y-82046212D01*
X124905456Y-81997302D01*
X124966653Y-81947878D01*
X125034063Y-81923359D01*
X125102880Y-81921797D01*
X125168303Y-81941239D01*
G36*
X124041115Y-81931962D02*
G01*
X124109145Y-81967733D01*
X124159351Y-82025301D01*
X124177185Y-82062312D01*
X124191063Y-82117882D01*
X124198167Y-82188096D01*
X124198840Y-82264727D01*
X124193427Y-82339552D01*
X124182270Y-82404342D01*
X124165714Y-82450873D01*
X124160626Y-82458887D01*
X124100355Y-82518707D01*
X124028769Y-82554535D01*
X123951092Y-82565020D01*
X123872548Y-82548810D01*
X123850689Y-82539092D01*
X123808122Y-82509143D01*
X123770763Y-82469433D01*
X123767232Y-82464397D01*
X123752881Y-82440124D01*
X123743394Y-82414178D01*
X123737790Y-82380022D01*
X123735086Y-82331119D01*
X123734299Y-82260935D01*
X123734286Y-82245200D01*
X123734322Y-82240192D01*
X123879429Y-82240192D01*
X123880273Y-82306430D01*
X123883596Y-82350386D01*
X123890583Y-82378779D01*
X123902416Y-82398325D01*
X123908457Y-82404857D01*
X123943186Y-82429680D01*
X123976903Y-82428548D01*
X124010995Y-82407016D01*
X124031329Y-82384029D01*
X124043371Y-82350478D01*
X124050134Y-82297569D01*
X124050598Y-82291399D01*
X124051752Y-82195513D01*
X124039688Y-82124299D01*
X124014570Y-82078194D01*
X123976560Y-82057635D01*
X123962992Y-82056514D01*
X123927364Y-82062152D01*
X123902994Y-82081686D01*
X123888093Y-82119042D01*
X123880875Y-82178150D01*
X123879429Y-82240192D01*
X123734322Y-82240192D01*
X123734826Y-82170413D01*
X123737096Y-82118159D01*
X123742068Y-82081949D01*
X123750713Y-82055299D01*
X123764005Y-82031722D01*
X123766943Y-82027338D01*
X123816313Y-81968249D01*
X123870109Y-81933947D01*
X123935602Y-81920331D01*
X123957842Y-81919665D01*
X124041115Y-81931962D01*
G37*
X124041115Y-81931962D02*
X124109145Y-81967733D01*
X124159351Y-82025301D01*
X124177185Y-82062312D01*
X124191063Y-82117882D01*
X124198167Y-82188096D01*
X124198840Y-82264727D01*
X124193427Y-82339552D01*
X124182270Y-82404342D01*
X124165714Y-82450873D01*
X124160626Y-82458887D01*
X124100355Y-82518707D01*
X124028769Y-82554535D01*
X123951092Y-82565020D01*
X123872548Y-82548810D01*
X123850689Y-82539092D01*
X123808122Y-82509143D01*
X123770763Y-82469433D01*
X123767232Y-82464397D01*
X123752881Y-82440124D01*
X123743394Y-82414178D01*
X123737790Y-82380022D01*
X123735086Y-82331119D01*
X123734299Y-82260935D01*
X123734286Y-82245200D01*
X123734322Y-82240192D01*
X123879429Y-82240192D01*
X123880273Y-82306430D01*
X123883596Y-82350386D01*
X123890583Y-82378779D01*
X123902416Y-82398325D01*
X123908457Y-82404857D01*
X123943186Y-82429680D01*
X123976903Y-82428548D01*
X124010995Y-82407016D01*
X124031329Y-82384029D01*
X124043371Y-82350478D01*
X124050134Y-82297569D01*
X124050598Y-82291399D01*
X124051752Y-82195513D01*
X124039688Y-82124299D01*
X124014570Y-82078194D01*
X123976560Y-82057635D01*
X123962992Y-82056514D01*
X123927364Y-82062152D01*
X123902994Y-82081686D01*
X123888093Y-82119042D01*
X123880875Y-82178150D01*
X123879429Y-82240192D01*
X123734322Y-82240192D01*
X123734826Y-82170413D01*
X123737096Y-82118159D01*
X123742068Y-82081949D01*
X123750713Y-82055299D01*
X123764005Y-82031722D01*
X123766943Y-82027338D01*
X123816313Y-81968249D01*
X123870109Y-81933947D01*
X123935602Y-81920331D01*
X123957842Y-81919665D01*
X124041115Y-81931962D01*
G36*
X125716093Y-81937780D02*
G01*
X125762672Y-81964723D01*
X125795057Y-81991466D01*
X125818742Y-82019484D01*
X125835059Y-82053748D01*
X125845339Y-82099227D01*
X125850914Y-82160892D01*
X125853116Y-82243711D01*
X125853371Y-82303246D01*
X125853371Y-82522391D01*
X125791686Y-82550044D01*
X125730000Y-82577697D01*
X125722743Y-82337670D01*
X125719744Y-82248028D01*
X125716598Y-82182962D01*
X125712701Y-82138026D01*
X125707447Y-82108770D01*
X125700231Y-82090748D01*
X125690450Y-82079511D01*
X125687312Y-82077079D01*
X125639761Y-82058083D01*
X125591697Y-82065600D01*
X125563086Y-82085543D01*
X125551447Y-82099675D01*
X125543391Y-82118220D01*
X125538271Y-82146334D01*
X125535441Y-82189173D01*
X125534256Y-82251895D01*
X125534057Y-82317261D01*
X125534018Y-82399268D01*
X125532614Y-82457316D01*
X125527914Y-82496465D01*
X125517987Y-82521780D01*
X125500903Y-82538323D01*
X125474732Y-82551156D01*
X125439775Y-82564491D01*
X125401596Y-82579007D01*
X125406141Y-82321389D01*
X125407971Y-82228519D01*
X125410112Y-82159889D01*
X125413181Y-82110711D01*
X125417794Y-82076198D01*
X125424568Y-82051562D01*
X125434119Y-82032016D01*
X125445634Y-82014770D01*
X125501190Y-81959680D01*
X125568980Y-81927822D01*
X125642713Y-81920191D01*
X125716093Y-81937780D01*
G37*
X125716093Y-81937780D02*
X125762672Y-81964723D01*
X125795057Y-81991466D01*
X125818742Y-82019484D01*
X125835059Y-82053748D01*
X125845339Y-82099227D01*
X125850914Y-82160892D01*
X125853116Y-82243711D01*
X125853371Y-82303246D01*
X125853371Y-82522391D01*
X125791686Y-82550044D01*
X125730000Y-82577697D01*
X125722743Y-82337670D01*
X125719744Y-82248028D01*
X125716598Y-82182962D01*
X125712701Y-82138026D01*
X125707447Y-82108770D01*
X125700231Y-82090748D01*
X125690450Y-82079511D01*
X125687312Y-82077079D01*
X125639761Y-82058083D01*
X125591697Y-82065600D01*
X125563086Y-82085543D01*
X125551447Y-82099675D01*
X125543391Y-82118220D01*
X125538271Y-82146334D01*
X125535441Y-82189173D01*
X125534256Y-82251895D01*
X125534057Y-82317261D01*
X125534018Y-82399268D01*
X125532614Y-82457316D01*
X125527914Y-82496465D01*
X125517987Y-82521780D01*
X125500903Y-82538323D01*
X125474732Y-82551156D01*
X125439775Y-82564491D01*
X125401596Y-82579007D01*
X125406141Y-82321389D01*
X125407971Y-82228519D01*
X125410112Y-82159889D01*
X125413181Y-82110711D01*
X125417794Y-82076198D01*
X125424568Y-82051562D01*
X125434119Y-82032016D01*
X125445634Y-82014770D01*
X125501190Y-81959680D01*
X125568980Y-81927822D01*
X125642713Y-81920191D01*
X125716093Y-81937780D01*
G36*
X124599744Y-81929918D02*
G01*
X124655201Y-81957568D01*
X124704148Y-82008480D01*
X124717629Y-82027338D01*
X124732314Y-82052015D01*
X124741842Y-82078816D01*
X124747293Y-82114587D01*
X124749747Y-82166169D01*
X124750286Y-82234267D01*
X124747852Y-82327588D01*
X124739394Y-82397657D01*
X124723174Y-82449931D01*
X124697454Y-82489869D01*
X124660497Y-82522929D01*
X124657782Y-82524886D01*
X124621360Y-82544908D01*
X124577502Y-82554815D01*
X124521724Y-82557257D01*
X124431048Y-82557257D01*
X124431010Y-82645283D01*
X124430166Y-82694308D01*
X124425024Y-82723065D01*
X124411587Y-82740311D01*
X124385858Y-82754808D01*
X124379679Y-82757769D01*
X124350764Y-82771648D01*
X124328376Y-82780414D01*
X124311729Y-82781171D01*
X124300036Y-82771023D01*
X124292510Y-82747073D01*
X124288366Y-82706426D01*
X124286815Y-82646186D01*
X124287071Y-82563455D01*
X124288349Y-82455339D01*
X124288748Y-82423000D01*
X124290185Y-82311524D01*
X124291472Y-82238603D01*
X124430971Y-82238603D01*
X124431755Y-82300499D01*
X124435240Y-82340997D01*
X124443124Y-82367708D01*
X124457105Y-82388244D01*
X124466597Y-82398260D01*
X124505404Y-82427567D01*
X124539763Y-82429952D01*
X124575216Y-82405750D01*
X124576114Y-82404857D01*
X124590539Y-82386153D01*
X124599313Y-82360732D01*
X124603739Y-82321584D01*
X124605118Y-82261697D01*
X124605143Y-82248430D01*
X124601812Y-82165901D01*
X124590969Y-82108691D01*
X124571340Y-82073766D01*
X124541650Y-82058094D01*
X124524491Y-82056514D01*
X124483766Y-82063926D01*
X124455832Y-82088330D01*
X124439017Y-82132980D01*
X124431650Y-82201130D01*
X124430971Y-82238603D01*
X124291472Y-82238603D01*
X124291708Y-82225245D01*
X124293677Y-82160333D01*
X124296450Y-82112958D01*
X124300388Y-82079290D01*
X124305849Y-82055498D01*
X124313192Y-82037753D01*
X124322777Y-82022224D01*
X124326887Y-82016381D01*
X124381405Y-81961185D01*
X124450336Y-81929890D01*
X124530072Y-81921165D01*
X124599744Y-81929918D01*
G37*
X124599744Y-81929918D02*
X124655201Y-81957568D01*
X124704148Y-82008480D01*
X124717629Y-82027338D01*
X124732314Y-82052015D01*
X124741842Y-82078816D01*
X124747293Y-82114587D01*
X124749747Y-82166169D01*
X124750286Y-82234267D01*
X124747852Y-82327588D01*
X124739394Y-82397657D01*
X124723174Y-82449931D01*
X124697454Y-82489869D01*
X124660497Y-82522929D01*
X124657782Y-82524886D01*
X124621360Y-82544908D01*
X124577502Y-82554815D01*
X124521724Y-82557257D01*
X124431048Y-82557257D01*
X124431010Y-82645283D01*
X124430166Y-82694308D01*
X124425024Y-82723065D01*
X124411587Y-82740311D01*
X124385858Y-82754808D01*
X124379679Y-82757769D01*
X124350764Y-82771648D01*
X124328376Y-82780414D01*
X124311729Y-82781171D01*
X124300036Y-82771023D01*
X124292510Y-82747073D01*
X124288366Y-82706426D01*
X124286815Y-82646186D01*
X124287071Y-82563455D01*
X124288349Y-82455339D01*
X124288748Y-82423000D01*
X124290185Y-82311524D01*
X124291472Y-82238603D01*
X124430971Y-82238603D01*
X124431755Y-82300499D01*
X124435240Y-82340997D01*
X124443124Y-82367708D01*
X124457105Y-82388244D01*
X124466597Y-82398260D01*
X124505404Y-82427567D01*
X124539763Y-82429952D01*
X124575216Y-82405750D01*
X124576114Y-82404857D01*
X124590539Y-82386153D01*
X124599313Y-82360732D01*
X124603739Y-82321584D01*
X124605118Y-82261697D01*
X124605143Y-82248430D01*
X124601812Y-82165901D01*
X124590969Y-82108691D01*
X124571340Y-82073766D01*
X124541650Y-82058094D01*
X124524491Y-82056514D01*
X124483766Y-82063926D01*
X124455832Y-82088330D01*
X124439017Y-82132980D01*
X124431650Y-82201130D01*
X124430971Y-82238603D01*
X124291472Y-82238603D01*
X124291708Y-82225245D01*
X124293677Y-82160333D01*
X124296450Y-82112958D01*
X124300388Y-82079290D01*
X124305849Y-82055498D01*
X124313192Y-82037753D01*
X124322777Y-82022224D01*
X124326887Y-82016381D01*
X124381405Y-81961185D01*
X124450336Y-81929890D01*
X124530072Y-81921165D01*
X124599744Y-81929918D01*
D14*
%TO.C,U1*%
X155670000Y-82510000D02*
X155670000Y-92750000D01*
X151029000Y-82510000D02*
X151029000Y-92750000D01*
X155670000Y-82510000D02*
X151029000Y-82510000D01*
X155670000Y-92750000D02*
X151029000Y-92750000D01*
X154160000Y-82510000D02*
X154160000Y-92750000D01*
X155670000Y-85780000D02*
X154160000Y-85780000D01*
X155670000Y-89481000D02*
X154160000Y-89481000D01*
%TO.C,C1*%
X120690000Y-76160000D02*
G75*
G03X120690000Y-76160000I-5120000J0D01*
G01*
X120650000Y-76160000D02*
X110490000Y-76160000D01*
X120650000Y-76200000D02*
X110490000Y-76200000D01*
X120650000Y-76240000D02*
X110490000Y-76240000D01*
X120649000Y-76280000D02*
X110491000Y-76280000D01*
X120648000Y-76320000D02*
X110492000Y-76320000D01*
X120647000Y-76360000D02*
X110493000Y-76360000D01*
X120645000Y-76400000D02*
X110495000Y-76400000D01*
X120643000Y-76440000D02*
X110497000Y-76440000D01*
X120640000Y-76480000D02*
X110500000Y-76480000D01*
X120638000Y-76520000D02*
X110502000Y-76520000D01*
X120635000Y-76560000D02*
X110505000Y-76560000D01*
X120632000Y-76600000D02*
X110508000Y-76600000D01*
X120628000Y-76640000D02*
X110512000Y-76640000D01*
X120624000Y-76680000D02*
X110516000Y-76680000D01*
X120620000Y-76720000D02*
X110520000Y-76720000D01*
X120615000Y-76760000D02*
X110525000Y-76760000D01*
X120610000Y-76800000D02*
X110530000Y-76800000D01*
X120605000Y-76840000D02*
X110535000Y-76840000D01*
X120600000Y-76881000D02*
X110540000Y-76881000D01*
X120594000Y-76921000D02*
X110546000Y-76921000D01*
X120588000Y-76961000D02*
X110552000Y-76961000D01*
X120581000Y-77001000D02*
X110559000Y-77001000D01*
X120574000Y-77041000D02*
X110566000Y-77041000D01*
X120567000Y-77081000D02*
X110573000Y-77081000D01*
X120560000Y-77121000D02*
X110580000Y-77121000D01*
X120552000Y-77161000D02*
X110588000Y-77161000D01*
X120544000Y-77201000D02*
X110596000Y-77201000D01*
X120535000Y-77241000D02*
X110605000Y-77241000D01*
X120526000Y-77281000D02*
X110614000Y-77281000D01*
X120517000Y-77321000D02*
X110623000Y-77321000D01*
X120508000Y-77361000D02*
X110632000Y-77361000D01*
X120498000Y-77401000D02*
X110642000Y-77401000D01*
X120488000Y-77441000D02*
X116811000Y-77441000D01*
X114329000Y-77441000D02*
X110652000Y-77441000D01*
X120477000Y-77481000D02*
X116811000Y-77481000D01*
X114329000Y-77481000D02*
X110663000Y-77481000D01*
X120467000Y-77521000D02*
X116811000Y-77521000D01*
X114329000Y-77521000D02*
X110673000Y-77521000D01*
X120455000Y-77561000D02*
X116811000Y-77561000D01*
X114329000Y-77561000D02*
X110685000Y-77561000D01*
X120444000Y-77601000D02*
X116811000Y-77601000D01*
X114329000Y-77601000D02*
X110696000Y-77601000D01*
X120432000Y-77641000D02*
X116811000Y-77641000D01*
X114329000Y-77641000D02*
X110708000Y-77641000D01*
X120420000Y-77681000D02*
X116811000Y-77681000D01*
X114329000Y-77681000D02*
X110720000Y-77681000D01*
X120407000Y-77721000D02*
X116811000Y-77721000D01*
X114329000Y-77721000D02*
X110733000Y-77721000D01*
X120394000Y-77761000D02*
X116811000Y-77761000D01*
X114329000Y-77761000D02*
X110746000Y-77761000D01*
X120381000Y-77801000D02*
X116811000Y-77801000D01*
X114329000Y-77801000D02*
X110759000Y-77801000D01*
X120367000Y-77841000D02*
X116811000Y-77841000D01*
X114329000Y-77841000D02*
X110773000Y-77841000D01*
X120353000Y-77881000D02*
X116811000Y-77881000D01*
X114329000Y-77881000D02*
X110787000Y-77881000D01*
X120338000Y-77921000D02*
X116811000Y-77921000D01*
X114329000Y-77921000D02*
X110802000Y-77921000D01*
X120324000Y-77961000D02*
X116811000Y-77961000D01*
X114329000Y-77961000D02*
X110816000Y-77961000D01*
X120308000Y-78001000D02*
X116811000Y-78001000D01*
X114329000Y-78001000D02*
X110832000Y-78001000D01*
X120293000Y-78041000D02*
X116811000Y-78041000D01*
X114329000Y-78041000D02*
X110847000Y-78041000D01*
X120277000Y-78081000D02*
X116811000Y-78081000D01*
X114329000Y-78081000D02*
X110863000Y-78081000D01*
X120260000Y-78121000D02*
X116811000Y-78121000D01*
X114329000Y-78121000D02*
X110880000Y-78121000D01*
X120244000Y-78161000D02*
X116811000Y-78161000D01*
X114329000Y-78161000D02*
X110896000Y-78161000D01*
X120227000Y-78201000D02*
X116811000Y-78201000D01*
X114329000Y-78201000D02*
X110913000Y-78201000D01*
X120209000Y-78241000D02*
X116811000Y-78241000D01*
X114329000Y-78241000D02*
X110931000Y-78241000D01*
X120191000Y-78281000D02*
X116811000Y-78281000D01*
X114329000Y-78281000D02*
X110949000Y-78281000D01*
X120173000Y-78321000D02*
X116811000Y-78321000D01*
X114329000Y-78321000D02*
X110967000Y-78321000D01*
X120154000Y-78361000D02*
X116811000Y-78361000D01*
X114329000Y-78361000D02*
X110986000Y-78361000D01*
X120134000Y-78401000D02*
X116811000Y-78401000D01*
X114329000Y-78401000D02*
X111006000Y-78401000D01*
X120115000Y-78441000D02*
X116811000Y-78441000D01*
X114329000Y-78441000D02*
X111025000Y-78441000D01*
X120095000Y-78481000D02*
X116811000Y-78481000D01*
X114329000Y-78481000D02*
X111045000Y-78481000D01*
X120074000Y-78521000D02*
X116811000Y-78521000D01*
X114329000Y-78521000D02*
X111066000Y-78521000D01*
X120053000Y-78561000D02*
X116811000Y-78561000D01*
X114329000Y-78561000D02*
X111087000Y-78561000D01*
X120032000Y-78601000D02*
X116811000Y-78601000D01*
X114329000Y-78601000D02*
X111108000Y-78601000D01*
X120010000Y-78641000D02*
X116811000Y-78641000D01*
X114329000Y-78641000D02*
X111130000Y-78641000D01*
X119987000Y-78681000D02*
X116811000Y-78681000D01*
X114329000Y-78681000D02*
X111153000Y-78681000D01*
X119965000Y-78721000D02*
X116811000Y-78721000D01*
X114329000Y-78721000D02*
X111175000Y-78721000D01*
X119941000Y-78761000D02*
X116811000Y-78761000D01*
X114329000Y-78761000D02*
X111199000Y-78761000D01*
X119917000Y-78801000D02*
X116811000Y-78801000D01*
X114329000Y-78801000D02*
X111223000Y-78801000D01*
X119893000Y-78841000D02*
X116811000Y-78841000D01*
X114329000Y-78841000D02*
X111247000Y-78841000D01*
X119868000Y-78881000D02*
X116811000Y-78881000D01*
X114329000Y-78881000D02*
X111272000Y-78881000D01*
X119843000Y-78921000D02*
X116811000Y-78921000D01*
X114329000Y-78921000D02*
X111297000Y-78921000D01*
X119817000Y-78961000D02*
X116811000Y-78961000D01*
X114329000Y-78961000D02*
X111323000Y-78961000D01*
X119791000Y-79001000D02*
X116811000Y-79001000D01*
X114329000Y-79001000D02*
X111349000Y-79001000D01*
X119764000Y-79041000D02*
X116811000Y-79041000D01*
X114329000Y-79041000D02*
X111376000Y-79041000D01*
X119736000Y-79081000D02*
X116811000Y-79081000D01*
X114329000Y-79081000D02*
X111404000Y-79081000D01*
X119708000Y-79121000D02*
X116811000Y-79121000D01*
X114329000Y-79121000D02*
X111432000Y-79121000D01*
X119680000Y-79161000D02*
X116811000Y-79161000D01*
X114329000Y-79161000D02*
X111460000Y-79161000D01*
X119650000Y-79201000D02*
X116811000Y-79201000D01*
X114329000Y-79201000D02*
X111490000Y-79201000D01*
X119620000Y-79241000D02*
X116811000Y-79241000D01*
X114329000Y-79241000D02*
X111520000Y-79241000D01*
X119590000Y-79281000D02*
X116811000Y-79281000D01*
X114329000Y-79281000D02*
X111550000Y-79281000D01*
X119559000Y-79321000D02*
X116811000Y-79321000D01*
X114329000Y-79321000D02*
X111581000Y-79321000D01*
X119527000Y-79361000D02*
X116811000Y-79361000D01*
X114329000Y-79361000D02*
X111613000Y-79361000D01*
X119495000Y-79401000D02*
X116811000Y-79401000D01*
X114329000Y-79401000D02*
X111645000Y-79401000D01*
X119462000Y-79441000D02*
X116811000Y-79441000D01*
X114329000Y-79441000D02*
X111678000Y-79441000D01*
X119428000Y-79481000D02*
X116811000Y-79481000D01*
X114329000Y-79481000D02*
X111712000Y-79481000D01*
X119394000Y-79521000D02*
X116811000Y-79521000D01*
X114329000Y-79521000D02*
X111746000Y-79521000D01*
X119359000Y-79561000D02*
X116811000Y-79561000D01*
X114329000Y-79561000D02*
X111781000Y-79561000D01*
X119323000Y-79601000D02*
X116811000Y-79601000D01*
X114329000Y-79601000D02*
X111817000Y-79601000D01*
X119286000Y-79641000D02*
X116811000Y-79641000D01*
X114329000Y-79641000D02*
X111854000Y-79641000D01*
X119249000Y-79681000D02*
X116811000Y-79681000D01*
X114329000Y-79681000D02*
X111891000Y-79681000D01*
X119210000Y-79721000D02*
X116811000Y-79721000D01*
X114329000Y-79721000D02*
X111930000Y-79721000D01*
X119171000Y-79761000D02*
X116811000Y-79761000D01*
X114329000Y-79761000D02*
X111969000Y-79761000D01*
X119131000Y-79801000D02*
X116811000Y-79801000D01*
X114329000Y-79801000D02*
X112009000Y-79801000D01*
X119090000Y-79841000D02*
X116811000Y-79841000D01*
X114329000Y-79841000D02*
X112050000Y-79841000D01*
X119048000Y-79881000D02*
X116811000Y-79881000D01*
X114329000Y-79881000D02*
X112092000Y-79881000D01*
X119006000Y-79921000D02*
X112134000Y-79921000D01*
X118962000Y-79961000D02*
X112178000Y-79961000D01*
X118917000Y-80001000D02*
X112223000Y-80001000D01*
X118871000Y-80041000D02*
X112269000Y-80041000D01*
X118824000Y-80081000D02*
X112316000Y-80081000D01*
X118776000Y-80121000D02*
X112364000Y-80121000D01*
X118726000Y-80161000D02*
X112414000Y-80161000D01*
X118676000Y-80201000D02*
X112464000Y-80201000D01*
X118624000Y-80241000D02*
X112516000Y-80241000D01*
X118570000Y-80281000D02*
X112570000Y-80281000D01*
X118515000Y-80321000D02*
X112625000Y-80321000D01*
X118459000Y-80361000D02*
X112681000Y-80361000D01*
X118400000Y-80401000D02*
X112740000Y-80401000D01*
X118340000Y-80441000D02*
X112800000Y-80441000D01*
X118279000Y-80481000D02*
X112861000Y-80481000D01*
X118215000Y-80521000D02*
X112925000Y-80521000D01*
X118149000Y-80561000D02*
X112991000Y-80561000D01*
X118080000Y-80601000D02*
X113060000Y-80601000D01*
X118009000Y-80641000D02*
X113131000Y-80641000D01*
X117935000Y-80681000D02*
X113205000Y-80681000D01*
X117859000Y-80721000D02*
X113281000Y-80721000D01*
X117779000Y-80761000D02*
X113361000Y-80761000D01*
X117695000Y-80801000D02*
X113445000Y-80801000D01*
X117607000Y-80841000D02*
X113533000Y-80841000D01*
X117514000Y-80881000D02*
X113626000Y-80881000D01*
X117416000Y-80921000D02*
X113724000Y-80921000D01*
X117312000Y-80961000D02*
X113828000Y-80961000D01*
X117200000Y-81001000D02*
X113940000Y-81001000D01*
X117080000Y-81041000D02*
X114060000Y-81041000D01*
X116948000Y-81081000D02*
X114192000Y-81081000D01*
X116800000Y-81121000D02*
X114340000Y-81121000D01*
X116632000Y-81161000D02*
X114508000Y-81161000D01*
X116432000Y-81201000D02*
X114708000Y-81201000D01*
X116169000Y-81241000D02*
X114971000Y-81241000D01*
X118445000Y-70680354D02*
X118445000Y-71680354D01*
X118945000Y-71180354D02*
X117945000Y-71180354D01*
%TO.C,C2*%
X148670000Y-77470000D02*
G75*
G03X148670000Y-77470000I-3870000J0D01*
G01*
X144800000Y-81300000D02*
X144800000Y-73640000D01*
X144760000Y-81300000D02*
X144760000Y-73640000D01*
X144720000Y-81300000D02*
X144720000Y-73640000D01*
X144680000Y-81299000D02*
X144680000Y-73641000D01*
X144640000Y-81297000D02*
X144640000Y-73643000D01*
X144600000Y-81295000D02*
X144600000Y-73645000D01*
X144560000Y-81293000D02*
X144560000Y-78510000D01*
X144560000Y-76430000D02*
X144560000Y-73647000D01*
X144520000Y-81290000D02*
X144520000Y-78510000D01*
X144520000Y-76430000D02*
X144520000Y-73650000D01*
X144480000Y-81287000D02*
X144480000Y-78510000D01*
X144480000Y-76430000D02*
X144480000Y-73653000D01*
X144440000Y-81284000D02*
X144440000Y-78510000D01*
X144440000Y-76430000D02*
X144440000Y-73656000D01*
X144400000Y-81280000D02*
X144400000Y-78510000D01*
X144400000Y-76430000D02*
X144400000Y-73660000D01*
X144360000Y-81275000D02*
X144360000Y-78510000D01*
X144360000Y-76430000D02*
X144360000Y-73665000D01*
X144320000Y-81271000D02*
X144320000Y-78510000D01*
X144320000Y-76430000D02*
X144320000Y-73669000D01*
X144280000Y-81265000D02*
X144280000Y-78510000D01*
X144280000Y-76430000D02*
X144280000Y-73675000D01*
X144240000Y-81260000D02*
X144240000Y-78510000D01*
X144240000Y-76430000D02*
X144240000Y-73680000D01*
X144200000Y-81254000D02*
X144200000Y-78510000D01*
X144200000Y-76430000D02*
X144200000Y-73686000D01*
X144160000Y-81247000D02*
X144160000Y-78510000D01*
X144160000Y-76430000D02*
X144160000Y-73693000D01*
X144120000Y-81240000D02*
X144120000Y-78510000D01*
X144120000Y-76430000D02*
X144120000Y-73700000D01*
X144079000Y-81233000D02*
X144079000Y-78510000D01*
X144079000Y-76430000D02*
X144079000Y-73707000D01*
X144039000Y-81225000D02*
X144039000Y-78510000D01*
X144039000Y-76430000D02*
X144039000Y-73715000D01*
X143999000Y-81217000D02*
X143999000Y-78510000D01*
X143999000Y-76430000D02*
X143999000Y-73723000D01*
X143959000Y-81208000D02*
X143959000Y-78510000D01*
X143959000Y-76430000D02*
X143959000Y-73732000D01*
X143919000Y-81199000D02*
X143919000Y-78510000D01*
X143919000Y-76430000D02*
X143919000Y-73741000D01*
X143879000Y-81190000D02*
X143879000Y-78510000D01*
X143879000Y-76430000D02*
X143879000Y-73750000D01*
X143839000Y-81180000D02*
X143839000Y-78510000D01*
X143839000Y-76430000D02*
X143839000Y-73760000D01*
X143799000Y-81169000D02*
X143799000Y-78510000D01*
X143799000Y-76430000D02*
X143799000Y-73771000D01*
X143759000Y-81158000D02*
X143759000Y-78510000D01*
X143759000Y-76430000D02*
X143759000Y-73782000D01*
X143719000Y-81147000D02*
X143719000Y-78510000D01*
X143719000Y-76430000D02*
X143719000Y-73793000D01*
X143679000Y-81135000D02*
X143679000Y-78510000D01*
X143679000Y-76430000D02*
X143679000Y-73805000D01*
X143639000Y-81123000D02*
X143639000Y-78510000D01*
X143639000Y-76430000D02*
X143639000Y-73817000D01*
X143599000Y-81110000D02*
X143599000Y-78510000D01*
X143599000Y-76430000D02*
X143599000Y-73830000D01*
X143559000Y-81096000D02*
X143559000Y-78510000D01*
X143559000Y-76430000D02*
X143559000Y-73844000D01*
X143519000Y-81083000D02*
X143519000Y-78510000D01*
X143519000Y-76430000D02*
X143519000Y-73857000D01*
X143479000Y-81068000D02*
X143479000Y-78510000D01*
X143479000Y-76430000D02*
X143479000Y-73872000D01*
X143439000Y-81054000D02*
X143439000Y-78510000D01*
X143439000Y-76430000D02*
X143439000Y-73886000D01*
X143399000Y-81038000D02*
X143399000Y-78510000D01*
X143399000Y-76430000D02*
X143399000Y-73902000D01*
X143359000Y-81023000D02*
X143359000Y-78510000D01*
X143359000Y-76430000D02*
X143359000Y-73917000D01*
X143319000Y-81006000D02*
X143319000Y-78510000D01*
X143319000Y-76430000D02*
X143319000Y-73934000D01*
X143279000Y-80990000D02*
X143279000Y-78510000D01*
X143279000Y-76430000D02*
X143279000Y-73950000D01*
X143239000Y-80972000D02*
X143239000Y-78510000D01*
X143239000Y-76430000D02*
X143239000Y-73968000D01*
X143199000Y-80954000D02*
X143199000Y-78510000D01*
X143199000Y-76430000D02*
X143199000Y-73986000D01*
X143159000Y-80936000D02*
X143159000Y-78510000D01*
X143159000Y-76430000D02*
X143159000Y-74004000D01*
X143119000Y-80917000D02*
X143119000Y-78510000D01*
X143119000Y-76430000D02*
X143119000Y-74023000D01*
X143079000Y-80897000D02*
X143079000Y-78510000D01*
X143079000Y-76430000D02*
X143079000Y-74043000D01*
X143039000Y-80877000D02*
X143039000Y-78510000D01*
X143039000Y-76430000D02*
X143039000Y-74063000D01*
X142999000Y-80856000D02*
X142999000Y-78510000D01*
X142999000Y-76430000D02*
X142999000Y-74084000D01*
X142959000Y-80835000D02*
X142959000Y-78510000D01*
X142959000Y-76430000D02*
X142959000Y-74105000D01*
X142919000Y-80813000D02*
X142919000Y-78510000D01*
X142919000Y-76430000D02*
X142919000Y-74127000D01*
X142879000Y-80791000D02*
X142879000Y-78510000D01*
X142879000Y-76430000D02*
X142879000Y-74149000D01*
X142839000Y-80767000D02*
X142839000Y-78510000D01*
X142839000Y-76430000D02*
X142839000Y-74173000D01*
X142799000Y-80744000D02*
X142799000Y-78510000D01*
X142799000Y-76430000D02*
X142799000Y-74196000D01*
X142759000Y-80719000D02*
X142759000Y-78510000D01*
X142759000Y-76430000D02*
X142759000Y-74221000D01*
X142719000Y-80694000D02*
X142719000Y-78510000D01*
X142719000Y-76430000D02*
X142719000Y-74246000D01*
X142679000Y-80668000D02*
X142679000Y-78510000D01*
X142679000Y-76430000D02*
X142679000Y-74272000D01*
X142639000Y-80642000D02*
X142639000Y-78510000D01*
X142639000Y-76430000D02*
X142639000Y-74298000D01*
X142599000Y-80614000D02*
X142599000Y-78510000D01*
X142599000Y-76430000D02*
X142599000Y-74326000D01*
X142559000Y-80586000D02*
X142559000Y-78510000D01*
X142559000Y-76430000D02*
X142559000Y-74354000D01*
X142519000Y-80558000D02*
X142519000Y-78510000D01*
X142519000Y-76430000D02*
X142519000Y-74382000D01*
X142479000Y-80528000D02*
X142479000Y-74412000D01*
X142439000Y-80498000D02*
X142439000Y-74442000D01*
X142399000Y-80466000D02*
X142399000Y-74474000D01*
X142359000Y-80434000D02*
X142359000Y-74506000D01*
X142319000Y-80401000D02*
X142319000Y-74539000D01*
X142279000Y-80368000D02*
X142279000Y-74572000D01*
X142239000Y-80333000D02*
X142239000Y-74607000D01*
X142199000Y-80297000D02*
X142199000Y-74643000D01*
X142159000Y-80260000D02*
X142159000Y-74680000D01*
X142119000Y-80222000D02*
X142119000Y-74718000D01*
X142079000Y-80183000D02*
X142079000Y-74757000D01*
X142039000Y-80143000D02*
X142039000Y-74797000D01*
X141999000Y-80102000D02*
X141999000Y-74838000D01*
X141959000Y-80059000D02*
X141959000Y-74881000D01*
X141919000Y-80016000D02*
X141919000Y-74924000D01*
X141879000Y-79970000D02*
X141879000Y-74970000D01*
X141839000Y-79924000D02*
X141839000Y-75016000D01*
X141799000Y-79875000D02*
X141799000Y-75065000D01*
X141759000Y-79825000D02*
X141759000Y-75115000D01*
X141719000Y-79774000D02*
X141719000Y-75166000D01*
X141679000Y-79720000D02*
X141679000Y-75220000D01*
X141639000Y-79665000D02*
X141639000Y-75275000D01*
X141599000Y-79607000D02*
X141599000Y-75333000D01*
X141559000Y-79547000D02*
X141559000Y-75393000D01*
X141519000Y-79484000D02*
X141519000Y-75456000D01*
X141479000Y-79419000D02*
X141479000Y-75521000D01*
X141439000Y-79351000D02*
X141439000Y-75589000D01*
X141399000Y-79279000D02*
X141399000Y-75661000D01*
X141359000Y-79203000D02*
X141359000Y-75737000D01*
X141319000Y-79124000D02*
X141319000Y-75816000D01*
X141279000Y-79039000D02*
X141279000Y-75901000D01*
X141239000Y-78948000D02*
X141239000Y-75992000D01*
X141199000Y-78851000D02*
X141199000Y-76089000D01*
X141159000Y-78745000D02*
X141159000Y-76195000D01*
X141119000Y-78628000D02*
X141119000Y-76312000D01*
X141079000Y-78498000D02*
X141079000Y-76442000D01*
X141039000Y-78347000D02*
X141039000Y-76593000D01*
X140999000Y-78163000D02*
X140999000Y-76777000D01*
X140959000Y-77911000D02*
X140959000Y-77029000D01*
X148942211Y-79645000D02*
X148192211Y-79645000D01*
X148567211Y-80020000D02*
X148567211Y-79270000D01*
%TO.C,C3*%
X129640000Y-73330000D02*
X134480000Y-73330000D01*
X129640000Y-79070000D02*
X134480000Y-79070000D01*
X129640000Y-73330000D02*
X129640000Y-79070000D01*
X134480000Y-73330000D02*
X134480000Y-79070000D01*
%TO.C,D1*%
X130140000Y-103710000D02*
X130140000Y-103310000D01*
X125240000Y-103110000D02*
X126440000Y-103110000D01*
X125240000Y-104410000D02*
X125240000Y-103110000D01*
X130140000Y-107310000D02*
X130140000Y-110710000D01*
X125440000Y-103310000D02*
X125440000Y-110710000D01*
X148840000Y-103310000D02*
X125440000Y-103310000D01*
X148840000Y-110710000D02*
X148840000Y-103310000D01*
X125440000Y-110710000D02*
X148840000Y-110710000D01*
%TO.C,D2*%
X148590000Y-66040000D02*
X146050000Y-66040000D01*
X146050000Y-66040000D02*
X146050000Y-68580000D01*
X146050000Y-68580000D02*
X148590000Y-68580000D01*
X148590000Y-68580000D02*
X148590000Y-66040000D01*
X143510000Y-66040000D02*
X143510000Y-68580000D01*
X143510000Y-68580000D02*
X140970000Y-68580000D01*
X140970000Y-68580000D02*
X140970000Y-66040000D01*
X140970000Y-66040000D02*
X143510000Y-66040000D01*
X147320000Y-64770000D02*
X149860000Y-64770000D01*
X149860000Y-64770000D02*
X149860000Y-67310000D01*
X142240000Y-69850000D02*
X139700000Y-69850000D01*
X139700000Y-69850000D02*
X139700000Y-67310000D01*
%TO.C,J1*%
X115570000Y-95250000D02*
X115570000Y-97790000D01*
X110490000Y-105410000D02*
X110490000Y-102870000D01*
X113030000Y-105410000D02*
X110490000Y-105410000D01*
X113030000Y-95250000D02*
X115570000Y-95250000D01*
X111760000Y-101600000D02*
X114300000Y-101600000D01*
X111760000Y-104140000D02*
X111760000Y-101600000D01*
X114300000Y-104140000D02*
X111760000Y-104140000D01*
X114300000Y-101600000D02*
X114300000Y-104140000D01*
X114300000Y-99060000D02*
X114300000Y-96520000D01*
X111760000Y-99060000D02*
X114300000Y-99060000D01*
X111760000Y-96520000D02*
X111760000Y-99060000D01*
X114300000Y-96520000D02*
X111760000Y-96520000D01*
%TO.C,J2*%
X129540000Y-66040000D02*
X129540000Y-68580000D01*
X129540000Y-68580000D02*
X132080000Y-68580000D01*
X132080000Y-68580000D02*
X132080000Y-66040000D01*
X132080000Y-66040000D02*
X129540000Y-66040000D01*
X134620000Y-66040000D02*
X137160000Y-66040000D01*
X137160000Y-66040000D02*
X137160000Y-68580000D01*
X137160000Y-68580000D02*
X134620000Y-68580000D01*
X134620000Y-68580000D02*
X134620000Y-66040000D01*
X128270000Y-67310000D02*
X128270000Y-64770000D01*
X138430000Y-67310000D02*
X138430000Y-69850000D01*
X138430000Y-69850000D02*
X135890000Y-69850000D01*
X128270000Y-64770000D02*
X130810000Y-64770000D01*
%TO.C,J3*%
X133350000Y-82550000D02*
X133350000Y-85090000D01*
X133350000Y-85090000D02*
X135890000Y-85090000D01*
X135890000Y-85090000D02*
X135890000Y-82550000D01*
X135890000Y-82550000D02*
X133350000Y-82550000D01*
X138430000Y-82550000D02*
X140970000Y-82550000D01*
X140970000Y-82550000D02*
X140970000Y-85090000D01*
X140970000Y-85090000D02*
X138430000Y-85090000D01*
X138430000Y-85090000D02*
X138430000Y-82550000D01*
X132080000Y-83820000D02*
X132080000Y-81280000D01*
X142240000Y-83820000D02*
X142240000Y-86360000D01*
X142240000Y-86360000D02*
X139700000Y-86360000D01*
X132080000Y-81280000D02*
X134620000Y-81280000D01*
%TO.C,R1*%
X145970000Y-95420000D02*
X145970000Y-98600000D01*
X145970000Y-98600000D02*
X120730000Y-98600000D01*
X120730000Y-98600000D02*
X120730000Y-95420000D01*
X145970000Y-92540000D02*
X145970000Y-89360000D01*
X145970000Y-89360000D02*
X120730000Y-89360000D01*
X120730000Y-89360000D02*
X120730000Y-92540000D01*
%TO.C,U1*%
D10*
X156122380Y-88391904D02*
X156931904Y-88391904D01*
X157027142Y-88344285D01*
X157074761Y-88296666D01*
X157122380Y-88201428D01*
X157122380Y-88010952D01*
X157074761Y-87915714D01*
X157027142Y-87868095D01*
X156931904Y-87820476D01*
X156122380Y-87820476D01*
X157122380Y-86820476D02*
X157122380Y-87391904D01*
X157122380Y-87106190D02*
X156122380Y-87106190D01*
X156265238Y-87201428D01*
X156360476Y-87296666D01*
X156408095Y-87391904D01*
%TO.C,C1*%
X122177142Y-76326666D02*
X122224761Y-76374285D01*
X122272380Y-76517142D01*
X122272380Y-76612380D01*
X122224761Y-76755238D01*
X122129523Y-76850476D01*
X122034285Y-76898095D01*
X121843809Y-76945714D01*
X121700952Y-76945714D01*
X121510476Y-76898095D01*
X121415238Y-76850476D01*
X121320000Y-76755238D01*
X121272380Y-76612380D01*
X121272380Y-76517142D01*
X121320000Y-76374285D01*
X121367619Y-76326666D01*
X122272380Y-75374285D02*
X122272380Y-75945714D01*
X122272380Y-75660000D02*
X121272380Y-75660000D01*
X121415238Y-75755238D01*
X121510476Y-75850476D01*
X121558095Y-75945714D01*
%TO.C,C2*%
X144633333Y-82827142D02*
X144585714Y-82874761D01*
X144442857Y-82922380D01*
X144347619Y-82922380D01*
X144204761Y-82874761D01*
X144109523Y-82779523D01*
X144061904Y-82684285D01*
X144014285Y-82493809D01*
X144014285Y-82350952D01*
X144061904Y-82160476D01*
X144109523Y-82065238D01*
X144204761Y-81970000D01*
X144347619Y-81922380D01*
X144442857Y-81922380D01*
X144585714Y-81970000D01*
X144633333Y-82017619D01*
X145014285Y-82017619D02*
X145061904Y-81970000D01*
X145157142Y-81922380D01*
X145395238Y-81922380D01*
X145490476Y-81970000D01*
X145538095Y-82017619D01*
X145585714Y-82112857D01*
X145585714Y-82208095D01*
X145538095Y-82350952D01*
X144966666Y-82922380D01*
X145585714Y-82922380D01*
%TO.C,C3*%
X128103333Y-76557142D02*
X128055714Y-76604761D01*
X127912857Y-76652380D01*
X127817619Y-76652380D01*
X127674761Y-76604761D01*
X127579523Y-76509523D01*
X127531904Y-76414285D01*
X127484285Y-76223809D01*
X127484285Y-76080952D01*
X127531904Y-75890476D01*
X127579523Y-75795238D01*
X127674761Y-75700000D01*
X127817619Y-75652380D01*
X127912857Y-75652380D01*
X128055714Y-75700000D01*
X128103333Y-75747619D01*
X128436666Y-75652380D02*
X129055714Y-75652380D01*
X128722380Y-76033333D01*
X128865238Y-76033333D01*
X128960476Y-76080952D01*
X129008095Y-76128571D01*
X129055714Y-76223809D01*
X129055714Y-76461904D01*
X129008095Y-76557142D01*
X128960476Y-76604761D01*
X128865238Y-76652380D01*
X128579523Y-76652380D01*
X128484285Y-76604761D01*
X128436666Y-76557142D01*
%TO.C,D1*%
X136601904Y-102762380D02*
X136601904Y-101762380D01*
X136840000Y-101762380D01*
X136982857Y-101810000D01*
X137078095Y-101905238D01*
X137125714Y-102000476D01*
X137173333Y-102190952D01*
X137173333Y-102333809D01*
X137125714Y-102524285D01*
X137078095Y-102619523D01*
X136982857Y-102714761D01*
X136840000Y-102762380D01*
X136601904Y-102762380D01*
X138125714Y-102762380D02*
X137554285Y-102762380D01*
X137840000Y-102762380D02*
X137840000Y-101762380D01*
X137744761Y-101905238D01*
X137649523Y-102000476D01*
X137554285Y-102048095D01*
%TO.C,D2*%
X143541904Y-67762380D02*
X143541904Y-66762380D01*
X143780000Y-66762380D01*
X143922857Y-66810000D01*
X144018095Y-66905238D01*
X144065714Y-67000476D01*
X144113333Y-67190952D01*
X144113333Y-67333809D01*
X144065714Y-67524285D01*
X144018095Y-67619523D01*
X143922857Y-67714761D01*
X143780000Y-67762380D01*
X143541904Y-67762380D01*
X144494285Y-66857619D02*
X144541904Y-66810000D01*
X144637142Y-66762380D01*
X144875238Y-66762380D01*
X144970476Y-66810000D01*
X145018095Y-66857619D01*
X145065714Y-66952857D01*
X145065714Y-67048095D01*
X145018095Y-67190952D01*
X144446666Y-67762380D01*
X145065714Y-67762380D01*
%TO.C,J1*%
X111982380Y-100663333D02*
X112696666Y-100663333D01*
X112839523Y-100710952D01*
X112934761Y-100806190D01*
X112982380Y-100949047D01*
X112982380Y-101044285D01*
X112982380Y-99663333D02*
X112982380Y-100234761D01*
X112982380Y-99949047D02*
X111982380Y-99949047D01*
X112125238Y-100044285D01*
X112220476Y-100139523D01*
X112268095Y-100234761D01*
%TO.C,J2*%
X133016666Y-67262380D02*
X133016666Y-67976666D01*
X132969047Y-68119523D01*
X132873809Y-68214761D01*
X132730952Y-68262380D01*
X132635714Y-68262380D01*
X133445238Y-67357619D02*
X133492857Y-67310000D01*
X133588095Y-67262380D01*
X133826190Y-67262380D01*
X133921428Y-67310000D01*
X133969047Y-67357619D01*
X134016666Y-67452857D01*
X134016666Y-67548095D01*
X133969047Y-67690952D01*
X133397619Y-68262380D01*
X134016666Y-68262380D01*
%TO.C,J3*%
X136826666Y-83772380D02*
X136826666Y-84486666D01*
X136779047Y-84629523D01*
X136683809Y-84724761D01*
X136540952Y-84772380D01*
X136445714Y-84772380D01*
X137207619Y-83772380D02*
X137826666Y-83772380D01*
X137493333Y-84153333D01*
X137636190Y-84153333D01*
X137731428Y-84200952D01*
X137779047Y-84248571D01*
X137826666Y-84343809D01*
X137826666Y-84581904D01*
X137779047Y-84677142D01*
X137731428Y-84724761D01*
X137636190Y-84772380D01*
X137350476Y-84772380D01*
X137255238Y-84724761D01*
X137207619Y-84677142D01*
%TO.C,R1*%
X133183333Y-100052380D02*
X132850000Y-99576190D01*
X132611904Y-100052380D02*
X132611904Y-99052380D01*
X132992857Y-99052380D01*
X133088095Y-99100000D01*
X133135714Y-99147619D01*
X133183333Y-99242857D01*
X133183333Y-99385714D01*
X133135714Y-99480952D01*
X133088095Y-99528571D01*
X132992857Y-99576190D01*
X132611904Y-99576190D01*
X134135714Y-100052380D02*
X133564285Y-100052380D01*
X133850000Y-100052380D02*
X133850000Y-99052380D01*
X133754761Y-99195238D01*
X133659523Y-99290476D01*
X133564285Y-99338095D01*
%TD*%
%LPC*%
D15*
%TO.C,U1*%
X152400000Y-85090000D03*
D16*
X152400000Y-87630000D03*
X152400000Y-90170000D03*
%TD*%
D17*
%TO.C,M1*%
X110490000Y-66040000D03*
%TD*%
%TO.C,M4*%
X154813000Y-66040000D03*
%TD*%
%TO.C,M3*%
X154813000Y-110490000D03*
%TD*%
%TO.C,M2*%
X110490000Y-110490000D03*
%TD*%
D18*
%TO.C,C1*%
X115570000Y-73660000D03*
D19*
X115570000Y-78660000D03*
%TD*%
D20*
%TO.C,C2*%
X146050000Y-77470000D03*
D21*
X143550000Y-77470000D03*
%TD*%
D22*
%TO.C,C3*%
X130810000Y-76200000D03*
X133310000Y-76200000D03*
%TD*%
D23*
%TO.C,D1*%
X144780000Y-105410000D03*
X139700000Y-105410000D03*
X134620000Y-105410000D03*
D24*
X129540000Y-105410000D03*
%TD*%
D25*
%TO.C,D2*%
X147320000Y-67310000D03*
D26*
X142240000Y-67310000D03*
%TD*%
D27*
%TO.C,J1*%
X113030000Y-102870000D03*
D28*
X113030000Y-97790000D03*
%TD*%
%TO.C,J2*%
X130810000Y-67310000D03*
D27*
X135890000Y-67310000D03*
%TD*%
D28*
%TO.C,J3*%
X134620000Y-83820000D03*
D27*
X139700000Y-83820000D03*
%TD*%
D29*
%TO.C,R1*%
X147320000Y-93980000D03*
D30*
X119380000Y-93980000D03*
%TD*%
M02*
